<mxfile host="app.diagrams.net" modified="2023-05-04T11:32:46.539Z" agent="Mozilla/5.0 (X11; Linux x86_64) AppleWebKit/537.36 (KHTML, like Gecko) Chrome/112.0.0.0 Safari/537.36" etag="tYaclMsW5yX6k-VaX61D" version="21.2.7" type="device">
  <diagram name="Arquitectura &amp; Tecnologies" id="cpZIyNQtX_k-6xloKc7J">
    <mxGraphModel dx="1595" dy="1043" grid="1" gridSize="10" guides="1" tooltips="1" connect="1" arrows="1" fold="1" page="0" pageScale="1" pageWidth="827" pageHeight="1169" math="0" shadow="0">
      <root>
        <mxCell id="0" />
        <mxCell id="1" parent="0" />
        <mxCell id="ffUYFbKQlvKIQQluMXO9-7" style="edgeStyle=orthogonalEdgeStyle;rounded=0;orthogonalLoop=1;jettySize=auto;html=1;fontFamily=Jetbrains mono;fontSource=https%3A%2F%2Ffonts.googleapis.com%2Fcss%3Ffamily%3DJetbrains%2Bmono;startArrow=classic;startFill=1;fontStyle=1;verticalAlign=middle;align=center;" parent="1" source="ffUYFbKQlvKIQQluMXO9-1" target="ffUYFbKQlvKIQQluMXO9-4" edge="1">
          <mxGeometry relative="1" as="geometry" />
        </mxCell>
        <mxCell id="ffUYFbKQlvKIQQluMXO9-1" value="API Rest" style="rounded=0;whiteSpace=wrap;html=1;fillColor=#f8cecc;strokeColor=#b85450;fontFamily=Jetbrains mono;fontSource=https%3A%2F%2Ffonts.googleapis.com%2Fcss%3Ffamily%3DJetbrains%2Bmono;fontStyle=1;verticalAlign=middle;align=center;" parent="1" vertex="1">
          <mxGeometry x="280" y="120" width="160" height="40" as="geometry" />
        </mxCell>
        <mxCell id="ffUYFbKQlvKIQQluMXO9-5" style="edgeStyle=orthogonalEdgeStyle;rounded=0;orthogonalLoop=1;jettySize=auto;html=1;dashed=1;fontFamily=Jetbrains mono;fontSource=https%3A%2F%2Ffonts.googleapis.com%2Fcss%3Ffamily%3DJetbrains%2Bmono;fontStyle=1;verticalAlign=middle;align=center;" parent="1" source="ffUYFbKQlvKIQQluMXO9-2" target="ffUYFbKQlvKIQQluMXO9-1" edge="1">
          <mxGeometry relative="1" as="geometry" />
        </mxCell>
        <mxCell id="ffUYFbKQlvKIQQluMXO9-2" value="Engine" style="rounded=0;whiteSpace=wrap;html=1;fillColor=#d5e8d4;strokeColor=#82b366;fontFamily=Jetbrains mono;fontSource=https%3A%2F%2Ffonts.googleapis.com%2Fcss%3Ffamily%3DJetbrains%2Bmono;fontStyle=1;verticalAlign=middle;align=center;" parent="1" vertex="1">
          <mxGeometry x="280" y="-80" width="160" height="40" as="geometry" />
        </mxCell>
        <mxCell id="bq3jUTXx_F4QkcpRocF--1" style="edgeStyle=orthogonalEdgeStyle;rounded=0;orthogonalLoop=1;jettySize=auto;html=1;startArrow=classic;startFill=1;verticalAlign=middle;align=center;" edge="1" parent="1" source="ffUYFbKQlvKIQQluMXO9-3" target="ffUYFbKQlvKIQQluMXO9-1">
          <mxGeometry relative="1" as="geometry" />
        </mxCell>
        <mxCell id="ffUYFbKQlvKIQQluMXO9-3" value="Client" style="rounded=0;whiteSpace=wrap;html=1;fillColor=#fff2cc;strokeColor=#d6b656;fontFamily=Jetbrains mono;fontSource=https%3A%2F%2Ffonts.googleapis.com%2Fcss%3Ffamily%3DJetbrains%2Bmono;fontStyle=1;verticalAlign=middle;align=center;" parent="1" vertex="1">
          <mxGeometry x="-40" y="120" width="160" height="40" as="geometry" />
        </mxCell>
        <mxCell id="ffUYFbKQlvKIQQluMXO9-4" value="Database" style="rounded=0;whiteSpace=wrap;html=1;fillColor=#e1d5e7;strokeColor=#9673a6;fontFamily=Jetbrains mono;fontSource=https%3A%2F%2Ffonts.googleapis.com%2Fcss%3Ffamily%3DJetbrains%2Bmono;fontStyle=1;verticalAlign=middle;align=center;" parent="1" vertex="1">
          <mxGeometry x="600" y="120" width="160" height="40" as="geometry" />
        </mxCell>
        <mxCell id="ffUYFbKQlvKIQQluMXO9-15" value="Depends" style="text;html=1;align=center;verticalAlign=middle;resizable=0;points=[];autosize=1;strokeColor=none;fillColor=default;fontFamily=Jetbrains mono;fontSource=https%3A%2F%2Ffonts.googleapis.com%2Fcss%3Ffamily%3DJetbrains%2Bmono;fontStyle=1" parent="1" vertex="1">
          <mxGeometry x="325" y="18" width="70" height="30" as="geometry" />
        </mxCell>
        <mxCell id="ffUYFbKQlvKIQQluMXO9-16" value="Comunicates" style="text;html=1;align=center;verticalAlign=middle;resizable=0;points=[];autosize=1;strokeColor=none;fillColor=default;fontFamily=Jetbrains mono;fontSource=https%3A%2F%2Ffonts.googleapis.com%2Fcss%3Ffamily%3DJetbrains%2Bmono;fontStyle=1" parent="1" vertex="1">
          <mxGeometry x="150.47" y="150" width="100" height="30" as="geometry" />
        </mxCell>
        <mxCell id="ffUYFbKQlvKIQQluMXO9-18" value="Comunicates" style="text;html=1;align=center;verticalAlign=middle;resizable=0;points=[];autosize=1;strokeColor=none;fillColor=default;fontFamily=Jetbrains mono;fontSource=https%3A%2F%2Ffonts.googleapis.com%2Fcss%3Ffamily%3DJetbrains%2Bmono;fontStyle=1" parent="1" vertex="1">
          <mxGeometry x="470" y="150" width="100" height="30" as="geometry" />
        </mxCell>
        <mxCell id="ffUYFbKQlvKIQQluMXO9-19" value="" style="shape=image;verticalLabelPosition=bottom;labelBackgroundColor=default;verticalAlign=middle;aspect=fixed;imageAspect=0;image=data:image/webp,UklGRjqrAABXRUJQVlA4WAoAAAAYAAAArwQAnwIAQUxQSIB0AAAB/yckSPD/eGtEpO7hAdu2RVfy/7smFt3djYCEgAIKKjYvEooSBiCYgC2iYBCioGAiYiuIRdiITWMhCIgg0kh3r7Um7nPbZu6J+555nvWw1ny2T0T/XdG2VVM7Rw/p4uiobnr4pMSV+n//8f/+4//9x//7jwICqGrCCopjSFhRl8tJTVZhJdqSlqTaTrPwdyFSklPQ6DlgCmlJKgxELronqBaV2sPExqwklZeqxxztQdITVIZ1jnagPCnJKe1HWAaGJac0jd6CaWGdRskpPAqTWbiKtMQUbnBgYnqCCpfBZjZ2lEhOVfxqDcYc6+VJKU2hWtlgMPB0cgpl9sJ2VouTUzW/im7hNhyunJha1LWw4Gj/S0pZif5wYeLJ5NSG+fxqflLKotL3MOFsOFielIQUvnHgLh1ITUhhDgcTg0lLSOELD95ITGEOBwu/JKkaCuSc95cjJRmFxS7AGNqSmozC7zxM3JyQ2kBrOMB0m4ZITL1nza8+ITURZS+7lwMsLKNk1JZqJ8Fc2NhdKgm1o0rNwYPBaJCMwiWweVi4LAm1QaO+MBl8gkpC4SGY4GDgEdKTUJjsWcHEpCTUSqXvvCsTHyaiKqqq62BxgIWfElBeFKp8BLYXKykJZW8DxnjY2Fo0CeVzAEwfHCxLSvIJL/qA4XhlUhJRrZr6ILtWAupFoJI7YfvAaEhKMsqnF3YzUhNPWwbD9AHD2QkoTAvAuaQmoWrV+6IdqUmoRgJ90ZrUBNUWMLDmyafVrACYjRJOUKjULti+yK1HSsLJ3tn17YfsmoknTIYJXxytmHSqV6//62uHjW3Fkk6+L3DIDxZWK0mnUF9y7b5YlHSyF9nib2cmZpOWfNo7AK8lnfBBgJ0ZGEt6oqmSapUjPvZEVD/4Gt3l6P6w0THh9BrQr7CYvwXZdUhJQFX68q+mWjTh5DvInnSa2qpCdbPh6AE+pyaZfOo0BgYCMSzBBIVK7+ZCDtjz0gQTdLrf3R5ER6skmZwLbwrWuWG/J5j0O4L05NO8CwttdPVA3JZcgk53htATTZ3gK1RsawjdxubClFzSRzl6CPv0xJJdpdqnYLMgu4MBiSVo9AGMYJ0huy4pSSXqyJmDkGzq4+JXWAgETIxIKtl1upnbJ9iOFgmlUBUqvwe2i6TUS0AqfcjtE6gMPEp6QsmtNyzGwtitJqQmk9wq7OfcQth/JCWh5DaDcwvWTQwkLZnkdj1MZ2swbOwtm0haqVT5YDg3mHgxmaQTzYOJMDpjOIvURJLbeNdTOP2bhBJ1g83C6Ra6JJHsGtU6AissrUgm1fiin3lPoewDkkn6ZNdTKFhYpyeSPN3rvv8TVr+dtAQSdQezQ7pZ+CcriWQ+2+BCCKn3Tx7pGlXb44YQVv8zifT6T6GVnhDChdydtMQR0bcuhXabS2ryiD4Lb04kNRevENfLIRjC6QYmkZY4ondgsNBkY0cpUpJGNBlmaHKbM72B9KQRPeuhsPt8RWrSKLRJsATIxok6pCaMaJqI2dWHJIvcNKJPPKGFDvGbZFEIOhX6QYxsHK5GaqKISv4KA+HJfQGoD+mJIqqzToxguKPmThRRh0Oel3/C/9ZqPUG0XVHpesAUIhtmswSRrhI9AlguiXjqlyDypBO9BdsWIc/r1QkiKjMfJhMguLSAkkOeNDprq7e6l0B9+q1lSU0KhaFQH4P/SQGzhVNnJoXcXOk3FjAFyQb+lxgKQafCnzjhixLDgAQR1f3LCUOQmIUHkkJbFZUuP8q/+iNEJsYmhUJTie71hCFonkBKYqhy6huAJUwmJpKiJISo4mKYtgR6jhJCukZtdvKVU0XpeYcSQmH0s2GAidMLCSHSiJ4WD58L7cWEEOlU9AtYtjDZNsYlhqjBWj4MQWJ4JPY/pGhaQqJy6v+OeSunir1ajXtIjTWpGndShZIQ4d8nHAYYRzeTFmsXd7/KPd/Z24e0RETlVCnUO8YCjM99nnnv3MOw78yipAOVXwTTFicT7ErS41xUltVh/J8WgDfLJB/qT5z9Hx++MOV0jClxLkUvm/QvXLXqUiI96RDG9RYMMGEycLQt6XF1KdHt7W0ArGyYj6ukKUmIFkyl0L7mMSSV27/z2zsB2GYO8NOZlHwIv5DbgqkU2l4/dqS4ArHwZa9td/c3bcvC4dudvZIPo3JY7YQhhTZWIz1mLqqzX7tnN/MujBnAzKqkqAmHyqkaXXyEr5wqTmvKxYtU13/Dh5d7XWDZ2N6Dc006hH87F4YowaE/SpIes/xnmYHf5QLMcQGD6zq5JKnJBleuPP05wJJDi4rGqPSdy39e8OY+AKbFZ4BNYPWFrmviIYzCbjMQEogZ+F4nLU7+6zz4p+tiui6MwTZhjXIrTyQfqBYfPiTQlxQX0pyjVzvPygZst7CMMzHHdWEzrvJE4mHr+QdhQA7NIFJj47/GQ3/75j9512NDEhB7uQ1nDQAMMAlkYppDcTFdNP0EYPH5T68Qxuc1iNQEhCs9BVhSyMKrRGo8qk2UvPV3X/+8q4UDfTnX5EMY+iwnfBlkW7HogIcrwa8/bgdg+/gH411nVCZVTUJQteUwmBSy8aRDcQi744wcP/8esizs7cW5JiC2tt3jDV+8ifhHSYmYFJ1I7bUIgGHz/n1dp5d3W3ROQoR/ve2GL4fudwRZ5D5KDVnnDdv/nCzsvjoZ4aoSjQJMKWQBg0iNvHC/2hM73bADTXBcPyzL1UxNQvzkNNi2LLqJtKhN9V86Fmjy1vU6eB3nmoQIv/g8fj5yUqgX6RGbznwzBzACZTL/luJnVZwwkxFUey0MOWSCdSM9WlPr923A5E2Brsdvdl2TEdT2gBu+HDIuJT1S01kzAX7I8CHOCD/UTETU9SK3xdAepjw62T46UhxTs/cBFs7EDNhDOddkxE/eA5hyyMCRlqRHWM+ryVQWyuQehmXjz7NIUZMS9CyYJYv2NomK3KOt+aodKhyAr5r6nJKQcCWNlBmwbFm0vV5UwswJp8xTJ/xMIX7tv8vdg0tIhF96Cf+TUmhDjYhIVUi/fw9geExhfu3jUqQriYkRZW2EAVn0V0XSoyrev3EDYNihTJw3k+vTMClBFxxxf1IS/VGK9Ih+pN2CQFPQa4qrmnFVUxMS9SeuA0wpBIcWFyEtmh+p+iZgWtzJhfQ2RUtMuCpEwwBLGv2kkhbJXuqDh8FMuK4hvR3rzf1agqL+hC2NvldIi2Svy/6Cp93BsN6W1iZNSUiQxn1wGYcggZiBbygCUhWq9K73R0J7e9YVpokJ0ubAZNJoDpEaheutB2BbnCmstxO93NNJTPxkqZ9hyKPPI5BnGlGLhd69QntbUd/xlpygamthQBp94lAEro/ZnuGWhvf2hup4S05Qk10wwGTRTIfku7b8DTABJvC/gTGQSEtQUPujMukjh+S7Pso8vZGFD2NjC8dbgoK6WDDl0XTppCrUgnNlDGHJtvF1CcdbgoJ6wEuyhuYg3fUuy3EVIRN42vGWpKA+gCWP3omAyn4qJIUZYMC8MUFRfcJNT/WXSm/KlWjcMV6+E6YtQszA1paOa5KCbpVKrxIpsr2Ng3/1jHAtAn5fJkkRBqk0BLDl0WvyqfICriK9AFkMUxxZnaig+7k3qyGJ3pZMikod93jGVCMS/tBERRik0HCJZGCaZNKI7gdfmSw0ueFfQ6qSqDA/BlsifSSZdMqaDlgiBIf2nOOEkaigEfIIBmZLzjDqVHsVTFuImIGVVZMVpNED0og59IVk0qj9QRhMlOZkJS3objCJ9LVcUhTqx4chXEFfS1Z8CYJbpdIiRSa5RzgasMTItvGi85PJCuoJSKTlRUiTS6/z42sTG7bkSCIlWUGXApY8WldGKmmkfAaTiZEF3ElqwoJaZ8ukbVUlU4lFfHvOYnSDE0ayIrR6B7mGa6SQiX11SZfbDMRqGBCmLqQnKkilMhthSCG4dLyZZKrwj/uTyRJSiJbIIwtmO8lUZaMM6upQwkJ9II9soJtkqrpV8JQ46p60II3Gw2CSiNm4hXSpZ1RugwzqkbQgnQbCYpBEJh6XXN+r2J/CZAPXJi+ondT6qS9Lrk2vLZZBvZMWpFLFnbDk0SyJdd+5A5wjTMzGIIeSFqEvhCGPFpJkfbI4mRhJGiUtQnhFZoWvDSWkkk5DuUHVSMjWJi08Xe+EIIksnGgk+Qev5lqZEG+6S0laeKp7QlYIsBk6S/7BZoZgcZxLK7ISFzrRUpiSPDET90klhQqthSlIFvZUS2B4eobzJCmEV+WmwVR6X8YPnkd64oKuhM2k0U9EilRPQ2A6ZySYThySuCCFyu2FBVmhbyolVdeoJWALe3rH2SNxoU+HISsEGM1kJ8KWC3sysUIjJXFBV8OS5MYs3CiXdBorwdOpBqQlLtyKb3XcZHmaJFeoadQOEPPk6rcnLjyRThOkuZlYQrLzjCuF3Qx8lbzwpNJZXOJLjqdjtUmVK4CHwRAkG0eqJzHwDUzI8nQd6XLzt9WPwWZCYBb6JS/cNOrs7CPHzcDrpEk+o2nCuok5jjl5oZZJ2gcW1hUiRS5d6JpF/zdonMSo8nW9NDeG8yTrCi2SsM+TpCcw9BWydANjSY9V/pYxG7tLkZK80Hu52+X81u9EJF23BHUTdycwdIWWSKuiipakxevvA0ffWDh54U2l82EzSW7jSY+fPiSBoWs03fUtJcT1hUmRLIAvgC2sby9CCQy3aschRWc2Okl2cw7yPQmhjE5k6He6jfhJ2WembFKoxnEI6gwnapOSwFgthSVnH+MMUmUL4IeF87cmZpOWwPDdHJCiG3hafpZRWwdLUDfR24OkxeDeTTmedpchRbYAvkSC791lEhn272DK2T5Euq7RK6J2R/+QtAQGVT4CWwIsbIhAohXZ4p6QIAYlMuz/c98BkqEPkq6r1BE2EwTQnNTEBXR6xLHL2L6pcAQCeAIMiCkbWwoRJTD2/NSL+L0N/atw9QwLC0lJYizrJWxx9G3FIiiPq3ECTBAm3k5k+Kx4CLa4buBx0qPpRhGiPh9NZNRSbWRCwhacqEmKfIyDCYiu7klkoKOMUE1Mi0CgKfSDjNUtiYywusNiwrqFy6MQaEW3wRZHn0QGekqAjX90ikBvkAsGYQxMZOBGCWGZeJq0CM6nEywJ5/NAIgM3CIPvO0yNALfBlLAalchAV1iisLBGiWruOxBfvZvI2K29jOL4SaRFgakS8rcWlpKSwEAzBvFVtyig0tcSYGNn8Uyz0nHBQL16hmNVoomBv8GS0bRzy8yqXQgpPFLyxR3+hMUE9eURnc4qGcjEKtbrRQqLqOKliuaHe1BpNkwxmHgnGmGmr4ctA59mVCuFntm6abuI2rZj164fa+d/Lxo9KlrAZeAB0qNAkS0yYGNvOVIyKCpzAhLUeNLzv1cdRIfdZ6IXaXEFM9GXtAwKNY7AsgVVLp4hLf/bufhO2EKwcQGpMQUcfENqBoWaJ8DE+TjSQf63NgumEICm0SBrgxQwmI1IzSwxKh8cGl0HkzER2A2iKdtS/oIlDofwAmmZJZ7MB4dCpXfDFkJ2rYjK4pe5kOH5UEVSMko85Tjng2tvwQQTQE7tSKDSjzAlDXN5BOlJC6jc0JFFgGiGjazRhzCZHG17cVIyTOSXD0NSAAytI8JL7krO5uGkJy2gUV8RK7NxSSTQ6V53JUfbV5aUhAWICm2EHR4m+nFxL6puxKQNzTtpAY3uF9EMjIgEKrVwhaAk7XhNUhIWUKjUrvC7MBNvRgKFSu+BzWRtfo+0pIVFp1EwEBYWFpMS8egmZQxi5HzSEhZQqNze8JqN7UWjq03GIEv7hShjxDgH+eTaUAENrGk0Qbk7AtKWwaQnLEBUeDMssLCR78aIPHZwnGXBxpGqpCQsoNOtMMPjxYg8ltojcTHcAZQmLVZEK10tpMdfozkN1Wf8uJIm99uVtIQFNLoGJgsHhuM1SImugWdZmoWtxUlJWKwUmg8ztHZ1RBsu4hp4luc0hbSEBVQ6B4yFE2wmXoko9pX4D7Y0MO71SC1h4azRJPcXwq3WqhGdx1Q3UIlO6wuRkqyAQqV3wQ4TFRnf/3NEJXGWY5Xo9CzpyQqQTjeF3MxMDI0k+ilU/qCPVd6U7zNF5LfvEgrfkRpZjz+Q6rRaoYQFVGoFhNmFMRytSkp0XwYKMp2eIj3jw3gO+em7PAkjpHZzRPGv8CZ5Vo98bkNasgJEykrXKQzm8tZoxv4uUzOxgihhAY3ack4hrCdrRmJVqSlDCKv4tMcTFiudngjjxPgZEkb3daAkO51FarICRPQnzBCLhR9JifLzQEl1WkqUsIBG57gCiwWmuGCe4SxRdYfPINfpHtITFiudHnWdAmNkZCNu0fiqrzLB9dKjJiwsRD+F8MNsrNcj7FJRttMniQuoVPNI8PuLzNl8ZVTaIAla8AleS1rCYqVTL1jBP2ViZlTpLXUtLEjVLGwvSUrmhqfz5y0avQ4jWMPJGlEFcoNsDQYmkp6wgEJZawOFG4OJRyMTX8ska8xxbEJqsgJOXDsbrp8gz1uKRPthHeTu8llmiXz1fltZUN36/hFFQpVmRbBLZ9ISFiCF5gb6YRZ+IYoIdU/J/gULq4iSFlCp/A5YCNBsXExahDVfZTvdTVrCAqRTB4D5RkwGfpo5KfELnsH+ZXLIv/djgvkuEc47TqMLArsok/RhMJIWIIVmwgjUpkcVDXWaINvJxv5ypCQvUGwDTLBYTNtEIe1vWJCsjSI9aQEnxrWyYIP5atH1Vq9Re9lONg5UICUTwzOhkZ8+uCNHuvm/DFSLlKhOYQyMCLTEBUilt7nqqjGZF9NimJCrbStKyQsopP7BBR4HTaX6p2ALLyGq8Scu4ES6mgdhwU8zuI/gEJXTLTCF/YSoxp+8AOl0CWDDVztVlxSKyvixBD/B1fjV0wMoiqqFUmpm89EKFEVVw/IqA17u9U2OMX4QWtGNu2an3J8y8RFpmT0c8ag7MVvw2eceWIYhH1XNYZYor9zgMtlFpXe4AHy03AakRiZyr4At0clZHalMSoYOxY3LPrdL2drn/O/am+4a8dSk11973bFNnvDE8Nt7Xd6qeknPUWpa+r894scrtVy9lud37nPbg0++8KKjXn399ZeeHvVA/67t65XxHJnDq8w1APoNBny1adHFRY0muk4yPd9CWiaGOER3j3ys2rL7/ZO++GX9vlyEVKd2/Dn7qX4tS3GJlciivSKu4iVNJJxjDHhFlVr3uHviB/PW7TcRUhl7//rqhds7VOCfL5LSG6pPJpY7CJUyHkmrUrX9sOCjMZwTmebwdQVMeYuDHzLnVWACrdK5Nz3//cZjvn+6mCGU7b0Ge+aPu7w8d9QxvUnik2eL7S2seP3WuPCmCV/9dcQ3XxKGWZaXVwd/nXxNdU7YKZFcv4xH6dSRC8BHm0NqdFpz0/0paRqMM0jNtDCBtKjje/kOd7+3+rCPeDRMy7a5NyKYj/I5DNs9LsbF+7m313HvK1U+ypcOo8pUKO+oCuUrV69WvWqpOAmGEmVKh1VlnJN0VcWSUfGqwvl3T1t90p9Xls1zJzSvbDjqxKKHm8nh1RldruzarVvXK7s2dnBu98beONy1Z8MMZhkMi3kXZuNy0qI7g3tcjUkCTDxMWgaGKLfVv27SLwc8Z2CaXvEoeGvwMd8CkD2vf6kIDF/l7N0fQh08xqvjp06ePLH/s2oxWVR6+Ni+/WHVgaPceR7Co1K5pnp4df0rvx6Eq2w34cYzSx6v2LKhNVy2Cw7VBT6qKd0M4DbS3OOZCuRmLh9hQaPnfQJgiLZGlkJzJPphFhaRkuHCrySmQZ/XV+Z6ortlB4YnerZuvDdNALsnNXHOQ5V6zpsgQy2JTX72P0hQ15Am98FS/dpJK3K8vGLyecUsl1fHP7zIjdgid1vlOd//CcPEsm++rkYTcRK7i3Cf3wp2jttceeYSwBe+i4kbomOQSpX3y/spxpBdh5TMFip3lGU7PbvchKM8CRO/6C4/2tsfnEOkK9Kg0Xjk2mEU81V2bkyq/ylU/oDIV2ThzxBGQ/G73K94vsjF438/ETmvwDssulr86TIXmM4dwBMwDfQhTadnYNjo5CBjCaDwKm7hYOHfQhHmafnBSUpa+HeBMi9Id2l092f7PfE9ILpH4mAbAGY2JnnnrtK5ED5TBhMvkxYL1M8R5ZqDzYWluVTuNXVrLHgF18G0gZ+vIJFGBZRCdA9wFWUpugsT3zp8KLYNpp3BrNw7v5ZPeozBwDDSIzyD1xwneXg3U4W3sOacUb9ZACw3vvvcCxHHegbzpTKkKjK/9pTwtbTxb1Z8ZuEAMWXia1KlZD9rD/7mCADbiAevvN6/bEACJ63TfUB30pz1WBiA1ZToOpiw8L8MBqTTeczzlyJjNg5WJCW6+F6I6wQ2LEKNbiTzgkT/zUetBABvib6r4mEAdvYiWaev0cswxU/FRoc4WDXqBovJ+Igs4ryqcvM3p7gHi80QJ15ZFnIfceK2EK5xoNNTYId34Fk3Z2r+Dc6SySx9YTN+gYEXItXauofOJN1CdmNSM0x4KxtVuuMX90gNy29bfGK9AXxcinRJuFxGH75cY61xwM0wRWGhpwD4gq0yvWe5+5u+LrF6uvzaiDQlfA8O6O0BJt6J3XQW8PolwBUcMpiNo71vMDr+rGakRihxh8MAk7NY7l9FmSa4A7tg2iEApuUT32NmsE1s7yDLV/EdEqwWVsfjKf8IDEEIDr/ALS1r/fo+zoXB82SJ39MldyCRGhIPAjd4cW2JbAz9ETkVz8p4QApN98g3Bn6kyhGqedKcTIzNPKGQeu1i1yVo/xg63kMkY9HoPZjCYAxnkxqDh/xk0Rwvs7G1qIArUYcv+Cx7nJllAs85FygchgE3cngS6Eiz3NvvI2rp7JbxgH7yLpImNydy29U+DlvKwkx8moFa+v0D2KYNT3yPa6S3gBeJVAnghgwlfvPFoklulWbAZKJn943IdbpwLsAMziXOvLItzNVIC7u6zoHm7IY27jg4TMdvMyvjAalUfC2/uBHhn6xIcwU3uxqTAAtLiTJLKPRCuPxnTH19LGNRqOIhKdbfYsG1xbAgpkS+wYFCTwO2mQq8YgaWFiUtrLNnN9aK1NXAWo0aG57dMhs/Nfa6Ag6OzcAjpEcpcT/jjl9c2diUlWFhoigUqmqBj/FxV1ykny1jo0qfS7CG+TIAkU3xI6oiWoXKnoSRIrxCLv4oQmqosTGimwOdHgMak5vMu5+oFnBpxgOHU61zYcG9aWycqElqhKh8yHWSgYMVSMksUeEAbC7Gp8bykYRF47t+gqAy8SBpkTOt2nFRpjGYAi/1q6thpQivmLMsVIJ5pVDlLz4qwR1Ag59fduv0T5/qph5e+LgYEWU+Sxe4As7VPL1MR9mKvBwcrpJZghT6gSuoSpnlOVLFr2adUxAGs7Aw8ptPpTaiZ8dsbCwkIMuncGnPlFlmCXEpM2uX+XZYzGO8SHARj7BSFoZjNTJM6PSwG+dTZrEwmHQZc+ezmATpUT/qu0+jnhJ8fkGq2IRHkTKLgTEh7h1FVQMOwLOflil11fOkp+TFwp/RPmkbOyQDx2tmmFCprcvtlFlsoJ3whdBoqIwNJoaQFjUeginhz08tPMerHwdLmQXMxlWkZ5YNM/Odt3KPoIei5KhO49zDl+BcMfOClIHYp9BiYkNRUuTPxSrsREWjxmuiK/7LS4j9qZlCvLJwoEpkVznDadTGtWbXj5CjChXf7u4ijJ3FiDItSJp9eupEegNvSJDcf0ixnqhOSsTO38EUPbMckf7xNBoDk6UUr74kJaPUVFKWcAtMfEVqlFp/CZst/E2ZJ26UF+cZuPaoAhqnkpwf45+ll4leCo3GSrgQzMQA0iKOK+tgMUF9rRqLTzjhMMafVbYdDa8g90vpZEp+Sv7NG01cF20e/3dYYOIZECXDhEJ1skUjLgMX0z2dWQQckW36tDUsM1e1RhdvfEuCEGKRD1VaoarHRHlm4gMRjilUajdsGbyyPH1ZRM8rGzvLkJJhLtV2wuQ5WipCjmrUBRYTxiTSMi+Iq59hhQXjFN95hVfZOUf3bN+2a8/uPUctn2OR2Tweg4EHSNSg/wNbGDYOVYpUcqjUHrbwDX4nadHUpmXezissP1blHt27dcOGTdu37z5o+ByMYTHI5NWEDHMXh4lNjsHiODqZtCij/k8wIYrBmSd0ehpG6PhumaYNTh3954fpE+7t1bFVo5qVyxQvXrpMmTKVG5xzWc87xn+8/BAg8V0iR4Zgd0lShL8Phyl+9Kbb+nCkz/WBwj4Z2pIqdNx3OxDn1aE1c94cc3v3do1qVS5brFChIsVLlK5Qp9UlPe94+pMVXE9HhjReeeaRm2ku7W1YHEvbR3gDa3S5WBaEO6s2pGZckDR3z5DxHa46vvrDR/q0rSLE7fIXDF+Q4xokRXoYGEGaIK6AJX4GJj6MGM8KimJmY5eYMFeppZsmE+DVkT+nDevRvKLQmVe4ZOSCXMDiDFJ4xeVnMs3lKjh2WFipRBr3l8ASvH3/K55peXlWAhSqdBg2C9WtDqx10x+4tLpfo8Oapqoq192ywimuh2P+vOoNXQf/l/lEbx7h/5ZL7JBi3VM6ypSOSl8LrpiJb0Wfx/q/oXllrp16T8cqnvPjGMOxysM7z3BD+FNqOPRPwLQl8Yr7cgsZ5zLA5ScMjIwwj685x24yJnT7fk5qxglSaIGj+SdObAA5y6f0bczzWHx0IYrq9ryj3rgWkOLIYOJmYe09GTtb6BatJlw0Z7qV2cVrn/jzijuI3BWv9T1DLq+o5zL3HMHkDMya0zLMwO5xbz4GuwWp0cX90kJ/+DD+eztkntC59mldtsKbONn0Xr86/L3kxHZZV0F33B+zYUhZLPwm4SUdSxwm3o4QCtUQZRmz0FkY/XleuYrn1ebpA+pFwSu69bh7AkyGtqkQUea5PO7e3yYWR3rob8GEAHC8OimZJ1S6BLZfTipn8Yh2hT3xXXrCnlpukLFwBU6tSY288S0b24pFab9Y8LwYwzHR3qsVapDr+2DJXTKibRGeV4r0eEa158GSsDBmuT3xZJyL6hafusu9pEeHriKPdM8IITJPKFR2H2w+dXL4qzvqeeN7FCqLii+QsTAYwsMfUekLIWscRl+g0b2iWyz8LuHgV8DiXY5/M7hBlLzSiV4KvYSel2mG+UbQGzCYjZN1I+OpQmX3hn/kMr6XiwwUpNL3yAZw5NM+lfiuR6MsO6Uf3EVCpmqdFovGt16OEu+KwjP4O+HKHjkADnxyY7WIeeWe3zPuVWbivDpUnpRMdPkIBtfphRJd0nAuTJEeOnWiTBQa3Q1kfzOgist3TYm6KCJrBUxI6qlCXl3/eN6Fv8MSRV8JuBrY+3HPCnHglaLQuzAk8Mriml7OQJ1oLrcMjMxJp5Gh+3fim53QMlIQFX5wUC2/CB/1UucobEhIkw0nLfrGt2ycT2pUHCt/UNQZtvhMahWq8laP0nHhlXPgy2HKuIfec5CJLtoiGDYOVyM1qnjWA1ZY2NhThpQMFRQ6wke0Qx8JtUyZhXmkCN59D0oIFIZQf60RtzXGbGzQZcWSuPBKoyZuaaOknTPRwItyw8z5NCqo1AIIA7+ONDJVhBqKbKy7LGE29pcVW1RqakOGsF0Z7VtAMShT1+LEK53GuLyS8m9uZrqU/ReGhRtJjyj2Vz4MO1S2w1OTOvPCcxLzLnFCE7e2avR5yD9CW2Myjb7JMEXZdX+qsUuh4v9xNUdkvPqdiSqdqu9ALvZH9uJ+ke0hARN3O/rpEJwTfUNCIsXEA6TFofGtEaRFxLGloj5ttCc15eLqMCm8esdBhro0OohsfBzVvab8EwoMFpYT0ekRVGoOMHFMFYRK54HJsC4hJbIhstmCtDf1CmgVqnxEWGMWVmSwcxlodcox9o4qHbYGVoh7xM25XEJapoZUXL6CKS7ifo7DCLQYN/C+SC5Lh8C9w32kqhRMDE8T5hVsHK1MSsa6XGADe8tFZFwbCjC4hECmgVppCxr1Ea9mamN3aVJkjAMkniVJGt0FUwxcD/ipB+5lLEHN04hTxrpcCRuzokHhrbBDkIVdzk9k4oj25QixK8InySQ1viXe2kxUSSjRVbfUTA2vhSUKkxtcSOa69IGNOyJwUqjiwWC47YSgh7NPxoaU1GbBFISUwfmV2CHFejyi1qhWwWKCnf7Ety9g8YSsKAzc70S+DHa5HshuTFo0/8KHcOP+kjmtwi3isLh2lKNvfIvrsCaiRmyY+EvW8pEKA6OEwfUCkLkqjW4AlmmkRPJVZwLJxLosUk6noFITBlGYuIt04RFoycHMCKwadRZ/afGl2DJLyohPRK/yGy4yXOPrpEo/2IdgsiCyYbVwb5DTi4Ai76yaGXjMRQwa39pblhT5GA1TNMnZK8bMivhdTRPvO8hsl2sYBpAuO0kwG2YQMQs3u+UFGdwqNbVPhBNlBp4kXfjYvxTX3PLUq+RfWJW+gcnEe5ROzXzQCzAhik+c3TLcpRPQSPaNXGQbbBZUuYd7Wfg0C5rbugfEVjKg0W0wmYQGJt4Kd2Ej/QOB8aNlSU30gym8+tJBprtciFWyH7oXhKGvHaFw+oVrYAmvnhCGQnXlNL61tUjsJihg4rWUTQu3AhPGVw4y3qUDniVdagR7DkYgrS4i8+6I25xzPT0WuP1lcTPQzagszQAZkNJfkDCYLX8WOxrdAVNaG4Ep+SqQKOY6yISXy0iTad/krHzJxH9VUu62dfZVw0cyTc2QoFClQ7Ajh07DJOwM7srG6oUbxo0/MlWfiFkbTwdAWdRltcQbWeMn3eRPxxpHGUKUMw7UK7e+dsgTb8ycu+iXX35Z8u0nb425vUvj0t7mljIgEBXaFAOo1IxJsFpYo0RSf110QDSpeyP9BItJmEhPJrzc+qA89qrcYCT9yWibSqRwXWdqja4b+9WGIwih7D2/T7m5mco55LGIrqkYGRBXy0Wskc0CWaVGFpgYq1K4SrRGH8HEaQAc1nYpL+8Iz3dfNvUhC+ziFCIui1l/wPvrTc8D3jBM07Rc5fyAYVr84fzz2tVl3KNUMgFI6AlMDsQb34KwMtzxQkr/908UN6UsdHoFBpNgyYxVIanDKQDzI3RKEfLIvXoPLzG4+9E0uQGNgYUZRxQctXd6tyxXrmY00OhtmBJWkqZhGLdJC2j0hihgNSI1ZfEEzAwMnsn6p2rkutjRfcgE65IypKpEl36a7TcTGSYypChu04bRdV1DBgOdnoXBZFji0fiW1USy9FglvOXv1E2xa3S/g8zJwg9yRUn1mD/f1X3IvjxVyD27yxcC4CbxxpFAeoJ3sICc91q4qcEMBk9JgbRpGIpf2/tIk8msejkQSypyw4FIXQzKjFaK6i8ftZIVa9Zr0rRGtKVVEQ/rz0sGsjumCikq1ZwF5GYbpmnZTji2ZwCJoed/7EpR2wDYrKZEeuaCx6U4S3rpnrPGpxVSjfpI2JLKGJjpQFH96jEVrdH6qiETPpi/Zg8D9n/RpyilpPoVFpiXdrdIGSK68TjCKpsb4SYYC+VgAvaUqkRqmsOzqQqNHpKH6BrfCvqUVBLxilhKkfGzP0nhhlQyGIviUxczq8a51498b8k2H1Gx9tWrK6dqUmAATJ7caLSuZupQ0RnAgX/nf/DciFuu6XJJhw4dOl7avf99Y6fPW8f/lMUPsTGk4egQxzFDwT3yEH3jW9IH9/Sn8Ja/FEph515SkKf7rXzezS98t+Gk5xZxsefLu1vwWbOUjPald8J2wcAMLCmZQvJnyOu9W1fRwl2Kyh1ufmHRUS5ac7uHm/7k0hYOlzIS3BEX9IbFIHuMyjKGXyR2Dm+SlsrIPCyqp4alVrfLo7NXHfEOmzc7xw1p5Uv/4+pnOcGn8Ke/4KSRbeJTNYVuV9V3mI1OvtxV7iH4XP3Kl05YCcCywhlsA2yo45ixQqGKhyVYpc4VTaMbJby0mNLonVlA9STnqncePmtdtrdYyDQMG8DBz4acyQvSlGWESi0Y+GJ1i2EKpdbdKvAKtaJ6dm3+5CaXS2EMgAl8X5X0DASDxTHGw6w4NL5luhMSj0etL8ZgNCAlhdEnM4Cv+CvUbOAbK/l8p8WVYFsmHLXx9e4xCjfqaYG5ZAL3kYT7IfVeZcy6aoHrIexOhy4nVck4cJc8SGt8Ky6v7ihrYElocyuF0TczgMLnPYu2GzprE/P6ZYzxLvYfT3QoFBRuCu/jlTqXOVIn/aSJHX8X/BRu5MXMjfMY5hxbxuFFHmLS+FZRqS8tCsF0h6udyrglA4DKcV0/a/Ds/7hLzfkFA+9iLX6wUZpo6kClqodhgwvjD/cn05FyWXPtRth2iIW5SYXXnCXDwH3yEJPGty6SxHWNbhXdYuHq1MadUpAHhlvnpmn/cjeB4X3FhdkGA+yfhzXmhCh36VMfn3D7WMB7KkfpylB4CmCGWmwTXzlLHg9FUTx/kei6VpiGwZCI6EegxX0+EUn42IGc4d2mHq90jlf35NkB+Qzkssj5Y5Zmw+fTZ/A2roWD34af6TPcyzQAnf+7iBnAA+7dnL6UTtT9OIwQWRnukv2kk5rnwjtTgXD/k/wIS1Y91Xg0viWtsW9upnxMzneiSg1ehTmmz8TxVV4FlctXVr5++hZum096zpv/3DS+JTmKd0kP5ooHHDfbxJYLnPsovT19dGr4T8gFuVigkJqGMDGOUNyUiB580+qlqjY869xLu/UZeOdDT7zw1gr3kkhCPBrfAlqQKq+ZJDFB9ERsHyuKqoXkVbWGZ513affrb71nxLiX3/nVfSDkwVA5TtcdMvcoANu0PO/ecSbTBo69979CXpf0gU9hwAQ+KOF4S3dKp1LLwi3MWeY6wiuPgxr0Jn6xivXOubzXnaMnfzR38cpNe48a8FU2wOIBjZ6SYGUmhpEmp7cgwVPgxt7DR8cY86p45YbtOt1w39gpM79dumpLIK8YkOdaFI4nzR9emOOb+QTgOtguT1bcV41zSS+ihyvfNJBzC+ctDS5Ffgu/TMvLoPjEdqXcmR373D1+2tzlWw+ZwYKGa1TRMEzu1SkJK4lTjpM0DlNp/xlIGm9W7HilVmh2yfX3TZj+3crtR+wwvDKDeCU47P08yKXRsN+YX+7TJxbbJpD7UUfXJd0II42amzAYljUWqD6Rdq5TqX9hhrijGZg7sFMtT4LiuVOLndFt2Bs/rDlg+8dyk1MW16CGbytAAOJj0ddLe9da0uQwheCbbooRr4qe0W342z+tPcRk8AquykvBMabevYssAN6vsRRg2vNMA/euSzuySCFlNbKBCeTxlhaN9Y7ADrfY6EJ63gK/CoF1ez0/7z9vMs42Tb7NH2GhKGk3WY1vCcPEQNJkdcYohgfictsoPK9q9Zjw43bvJbMk8CpvheLyt8KtP3HZT4shjGnL3aVTL/8pMRoYWHO+cwTptOeOHuGyRgwW9lchNf0gBjmFKr3eWJ3NR3YuqodIh8QenWAx8QvsP8Yxwc9rIWvgxzHgVcUer6w46eWVFYpXeTl48ade5v10VNw2XxMzgM13FnEOT0lb0zXEeC06Uyr3SIBQi4GvSckz4HmqNr7/26Oe1nzsoKieMiAqsTMuAw5R1ghvWa/H5V+2+nd+dYj3G8yrOCCv8N/g8bVcWRlDgMnlkAnsdE16WjI5bC+3HyvaUcpS3D55gcNxt1lMPY+A4h5vtcELLO5+dhNWnrRVCkKj92EKg/9MDVHXIDPxVuS3P3fYFQZ8nwvAioxXed5uqsOarJ7fGYDNFewHR1xmwh5X0jFR2lJL8bhCetrlts41QRlKs7GvPCnpBtGZlC6fHQ/6wyh10VtOoK8KQ6MhMJmkYT5G+mS56P1DoXgVq1UeEHa1R/71mzJ1MFnAvKbpzKTSpT+0JM/TNN0af4GFUIuBF0lLN4gqxpe7ezUA0+d2jidkdqrvsUabiVRFq6175hIecfaq2IBffXJX8KgMYsWXg5312vHwnGHM9TbCE076MsTClLqjRgzHagazCalpBtHE+OoTDwKW6elSLb6QOy5vYfgM2ji6b9XALCyOktxrWPaxHYDtv388V2nedPHnfm0Eh6Tjl/CtBKe1JeRlifHLGDHrlCMUs2G4pS/pBBMigE5UdcIxX/9pABrdLsEKE4+SJpqFgM0EeTQmuhvGPd6Sw/cE8CrjWKnOBbvsJ5e94Tnj0p7GlJU59OmoxE67DWbYp1N2PVLSOBz2lBx31H34gkuepAcoVMfbWWGUyTKNJorabVxIanQyQH1gVwCvMo6V6tz8ly/waRo4LNk42oiyMoB9da+gyKrVfsCr8fncEQqV2wc7FMCNWC9FUPtk/OAeZP//PDEeQLoAKbQQlrgV2cLDh/xTONQdJSga5V6+K//y51UGstKJ2szxmoQeVF3yclJU36ZCSjXpfN8rP204CkwtHidtKsywEW5TYUovkGxqs9AnxqcT6PSQhA3C3Ymp1ETwajITMyKyqwo1+MSHVxkJXG7W/RCwOJPYVX2P9Dw/PKXK2deN+vD3PTY4tfQsqdyP7K0SxjeOmZ6hE40HTD7GpwYkz9xJUtX6aCd/MjASuNfu3tyADgUyDouiUdbYbE95mYRZruS94fnc6WUadRr0wtd/HwGvrJxcHL6D+AdHvKxhJ0ybnqEo1HKFe6juyaQMZKoVEqyiU+FRaU4sR6OsqFT7e7/vKZKJrNzrdMW/cjhjY1/ZvLkUv3SjSwc9/+nyvbZXVBjuy60G8F4VCi2+Ip2ROQtfApN2wbHkYeaJ8SmGGDW+ZaETaZFNFZpZ+DkiITDwuE9CODNZaUQvyXqOMGTXzOtWihrQUmSF5p1vf+aTP/aa4JXl/bxTXFrl78uJ9NjdAiMcCPzDlXahU5HPAZOL8amGGDW+ZQpVEdaoOyyxAzcxWv5T1L1uXD8CPLMyk5VO1X+TlklnJkZRlpIniceAkjGiEnU6XP/oOz+sPQif8AxveNwtbJkwHlVi+Ja5Sh1hM4H5lqZb6FT/7wjLql0Oe5TtVe6hiGK05OdW1r+wOYiOuSG6NiGimcqqThUWRunq8CocsyQg3VKDPchlsjjDgF5unfq8RTzqquIrH9tcO3TS7N935Hgjiiclx+0b0CrGnDOcmBJHOVXtOELjq7S70unyYzAAJj2S25Zfo5x2kByzweQ7S5iGYaTziNbWCYe6uXAEQqDVDj7fLvtpYtsOrzhmheMVy1Msmju/XUMaYxhs4PmSRKqmpH/p6F/JVC1X/8IbR7zy1Z+7s31uL9Mvyxl47d2H+fZe0e0lpV2UsJFuQ1aaddaptzxvnrjutnlnI1hZ2UcP7tu9e/v27duOu4skyG18K7rW41U6261CKjy6W+l0QQ4MebxybNxgxsLIajvn+MEDe3bt/m/7tqPubZSXQKGSWzyckbYw7BpZx9OAddrNagb3TqWXadih533PfzR/3T6f5zt354Vpgi2wgcTni8f2XSOVPocZNlZk1yElnUKn6wA5hRt8Us60vLLu6H9rf5//5fRXxg8f0rf7xW1bNK5bvWK5UqWKFilSpNLvsCS0wyw5zu2SYv2JFKEyTvG5NcmmiyyY0njFLNPnrLP3bVi59NuZbzz7+D039bi03VlN6teoVKFMyVLFihQtuwhWnjIPFI3eRK5EgqeAO+fzG6pyh80JnnQnHNUQ05coXat1p77Dnp+xaP1BA4HpuNDiEQF7LTk7GleZDQSHO2++n+N0gWdIk05ijLT5bcaG76c80PO8BhWKqQLPkAnyxk0aq8a3cLxa2EWheYJ2hqNVSZFMVwCmNF7xD9N9y95/pO8VrWuXKiTAq7EwWB4ChWrleBLTMg22AeDo/CcurehlBhecklZkY5hOK7PK1GnT5ZZHJs1e8Pfuk/AXj94mbcGYjGtu2Tg0iCs5jC8egSkyYdr0CZ16ySCX17zLoZ+e6NrAV8JxN46uO7eOo3wGCazTeHGMkY7rPIGKp84EpnwnBBPfS6d2UsiNHxyvsn+bdH2Lsr7XIQyvFPdknoSZl0Cjrn5FB3I9cHH5yLJpD/yvcRm/21vj2KSkbB5TDzF2IrVUjSbtr7p99GufLv1nf67vpbO9/QOESscJu06LoqqX5Mhya1hZwAw8SHrahE7nMZfE2WiZAP599aoK/EmLPW45jIsbFKp0WII1/CBtNeoPUxT3kSZXBNTYz5GEJwuAXe9dX8dzuLoQs1yMdpCHOKt0voPgRVZRh8GXydr7Vnwx6aHe59UuScEPGU3jHzFxHZoA9xQLU3hXpHyt5hdedcvwZ6d+/cv6vcdt38sVNNJa+RcbMIE1lxHpKTruHhNPp8+VStUOulFemI2u6eCbl+tcs1x+hbAxQlxGoGVjY6GwxzwLplDc5L8rj1SOZ62EIUoe07EZ3bk6y/5lQJEjrapVPtyJYHe3TNyCR+XsWPHlG2Pv6nlB02rFwrDPK9e8SuWUIkf5jopP18PdGlklqzU6++Jrb3towlufLly9eX8O/JVtedNwIuJRWrkqjMcU0pQUHTciM/FyOrX8zN3MEmL8X3dX5OK7Im8c3fIgufEtJnzLoR2poThURnCe+MzCH7I5PpvjlYR8xfbhVSTzaow4vkqvUKml6XiMtF4ct6vhywv7xK6/lsz94OUn7htw9UWtG9epXLpw/DJrpas1OKtj9353P/7cO5/PX75h3wkj4HLwfy+HEY4RX1obmFPfjVoUd1wnsHo3bUKjCcgVj/Im8Hc/N8Jz1zJloVDdHAlRzsRjpIVvhFbscMeS3Gv6gAyyGLbeViyAV3nwSqN2B+FWHWGRyhLvr4SqucNOHd69Zd2y+XM//eDtyRPHDL/3tr7XdL3i0gs7tD27RdMz6teqVrly5fKuKl2qdIAqVbp8+YqVq9aq27jF2e07durRb/CwMc+//v5n3y9dtXm3Z2gCQXlMLv0WWBgWi2vpvc1W9vTbK9bOg2CExrR0CY1r7FMsynMJlNyhxP9fEk/Eq/EtCwtJCYXXY1WpXqWzABuCvIIBvFDCj1fxWqXZpdJswDIZE/m5KGpGe+v4MtFb0MjJPnnyxGFHHdq7J1DtPXTo+MlTOblW2GN285eG6SMZfYVjLC4ed1Y+Iv/Ehp9ev/dcIlVNibvgIZgIi7fS5krfIBoCc499aUPiLmOqQ6NhEjYwnKgZaim8yccej3rFv8AU5RUMbD0vxJM6D3bm7tauS31HEBIbxeD3BpXleUvBDBhcgMw0lidj6SMYffOXsVJ+KTnLG/G2//zBqL7nVsvyMigl8KKA8+tpBaIpCUM0yjMbb3Fp5DQAlZq7cU0UJq4nLeTcjoVgYgppMq/ovRJ4ZeKnMh4fsld5D0hxm4v/8DgAK9YdgICBhVZ2eBXmEMFiekGCw7P3r5g94ZZL6hf1skaLdKSCEfxThrS+m0r13T2YGJctPEFhrmG8douw8S15JQAaPQ1TTLha6CIRCpXfLyp1GQxMJ+6iZgAr4u/Z6rd+fRiAbXiCzRMVcy+wHZDlZPvXfjPp3i5N3QqAqfrmwJ+wQl4jA/eSnh7ACWzBWUsYEIzy7oErCkWCJ8Ux2gPZjW8J3502toSa9/jKOA3fSKOJorpLnxOplDHA81dHpWvf3gzPJi4NlZeJR14+mqbPvZ7932+zJgzqdGZ5782thgsvFeRUlSOwQ4unG0hLg1CpBcCEo/yHPEVikYd4Nb7F+O9BI/vyyv04IQrVOC6qw8SvLuUdiNM4cQq3H/XtbrjKcoVI3rIrg8+fEIZfdTUcXv/TO4/fcG7dYhTwVlPqVmu5EDYLCRuXkpoGodG7MCEW5S38Xdi9gDFfxa3xLdOd5qrc/weY5I8/o9Ezoklh2DhRhzTKQxC3cXiV7DDss628ILFdkZL203jMr1zMv5bHkU2LZzx9d/ezKmb5pG1jHZ7EKDPU8SnSo3oagWhFKvFqnzpRCqwkT+pLFBaWkBJc/0LYfqQKKfJ4XWovbEFeWejr8CrOyAtmdlKk0VUjP1l7wrfRBMtb6p5OpaNXPBqm321o7l87792xN/+vaeUs8ivETz35GEHPCczC3ypR+oNGI4WTKCbecKJ8ZBgbBWIxDUPGcKoWKVJnhsm4t5flTsdHmFfzSKVIkdeN81bxzkZHrdnxlnGfrtrvVxnUvxGFNJXX9C0UC8ht4sT2FV+/9kj/ixuX8YnjioSEXCpuKR36Ec/47+uSBi06l6uT9P2t0sVuCpXcKW7lAw0zW1Qx3EqaxDNfBEuMV1wTRlp0GYVRed2KfIu5PYdQrukVtz31weJNxwPfWParwp4exKNP0b3pf9Md37ZszqsjB3ZqWa0YBcrHdNtMh4mhpKU/qHSxcKm5t/Za7J3j1vgWglsoVek7B1ITgkTCnb1KnvpEDOvV5y291PhcxKxqra6++7kZi//Za8JH2RZX+zSgbnsKSUZvub2nDj98lHVw0x9fvfrIgE7NqxfxF/26VPmYwjOPFxrPYjqBjJbYw1++Vj5xPp71VKNBH3EwG//qQU1uOdxhwtP4lVtUKmeKYingnKfs6t9ejFam/nlX3/3U1O9Xbjtkhn130E9sgsWwJIzZvGgMTMEBuQc2/frFa6MHX9X+jPKFA1Ko6UA8Rj46RmZjg07p0FldL5qlsvAreVXaqKeqUOXDvlahp1TgVHWYmGS7R1SyyUwjgtnY5TYRFWPLV8HIW1J5AQKncKWG53YdMPyF975btn7PCTMEgy3+xR3TIzr5tJ+MgVF75GGI14jMUC9CWsd3rln82Zvj77vhf+fUr6CTjFRcmtN7h45/XPG4llYg8rYwEwM/MKJUtUjoHVp4dMma/6eUkDfTwljMWpObFmuUeDz9IEVbEQ1uoC+rRJVGba+4bsijz0/7fN4f67buO2GHfkx5pZ7By1CvHPXKQs8heWQrQqmcA1vXLP3qvRceu/OG/53bpHJxh8shEnHpRzxK/aQYIWMePzuHtIKoJqHFf2CUSL85hTzEr/GtgN4BFap+HEwIFhZItV/u9yKSWAXlVPGSF0pMLvkUfDzFylVv2Kpj1+tve+DxZ16Z9sm3i5av27L7wJGTBoNslXvi0J4ta5yOWt6f8syjd/e/+rJ2TWpXKBZ4lpoW3Bpt2qamNphQqOkD4wXwniCYjZ0lXEuKBBTBZ2sQvGD7y5Hic3lvFpc995ImVZAZgoDRkJQoMdJBRvLdsRTF0zlB6LyfWqh42Sq1z2h+dvvLuvfud+tdDz46dsKk16d+PHvWZ1/PmfuTq+bO+XT2R+9PfePlCU7zXLf369nlorYtGtasWCJLCZkl1rnmUdO0bBQrJQ8FxkuA9IJovq8HYOI7UiklVrFsfKsTaX6tN8dp4r0qfQqTSfhIRxmHJcYtu2taTErZ+ZyvRzIqeRarqNLR0L4ZTtUhJf1BoSpHRWt9ucN90yLFGJgSvEQjSx6SEugELxSqejQie0TPFmZiNqmRYqRES2by9WZ8m4DnE2YBynNU/CGJ9JKRV0Gnx0Lrng9pkv6gUhs3Pyf+gT1SaCV9BFrCq2USO+Th7RJ9HoINwYs5gbT4r/JllEIVD4TXGc6ilHGuIwsRjaWdWbg87hgVWW79T1iiYMitR4q0sXPnyrWfI+HZcjfp+ViIvFYTQoHBxEeOnhYxCiaEwHetFW/L6IigOSw3IX61+5Pm11liNPaoni0mbox49Vi+EEJ3Uyyw3WxManrEG8JxHsdrkpKCkDc3VeEN03lodIOYnXEJMU3mtbxHeE8L10SMxyU453MgggarGAzuQwSkR8wWhY1j1aJHXC1ZG2D7QXCkvSp9Kmw/VVvu6gmYwuicLwmNS1qEJBsHK5KSFqHQj7AgiMOVUwVxbHyLf+NSxp+vLOxb0bLG2iYwvpT8SAv9El43MYh0SosgWhZ7jBbH6OjQWULjWybuJI37kFfi9oGkScUsmBBFx/xI6PSACC10zGkG40JD+VsU7j92UUPeKqLGt8Qxg1RuJL6CdunPApW+EYaFy/IhoVKDnJB2Bht2C1LTJtYKw3aHwJCW4FzHD/hTEh9VpEK1T0EsBchPhlUqvnUQby+P5ktBoR9C6ozBwDDHLc+Ahe6kpSv0Fge/QaM7Re2W20hWvGBicP4jdHooJMGl7x23tAn1H9jCh/xg3DHaH9JHoCXDOsTt13m+cAcXe0qTIhffCcPAhHxHaNQaYKHAYOFIDVLTJ+gv0RVMzIgYo+Qhqsa3xPE+ZdEZptcuNLoKufheGCa+JTXe+DLfBQoVWRdSZ26MvNJxS6NYKsGyTqVI8SyM2EKjO8Rh4x9d9XslOy7to2k0Wxg2thePvC3Y/CaoNANGeE+POZSeENF/bGAw6keYrVb4eQpLQkwb34LVhOhXQbuFtap0+fyahAI7nEtqlPgBFvKXLDo96JpZSPrc8ZRyOCUJQl+0KbYvDasK3QObyWrHJp6Nb3E1ulpB2D6GNOmvTAoDJh6PUPrr1Mv9hyLjgZJh0RVuzAtHJjYUJzW94iV+FcuP2uSe6VMAQ2xXpLuNb4njdbdlCsEkmH0mqfKfkoaEDwoVYY6BBjDYyGygalqmFcIZJ2CBIQRg4XB90ii94m5xURNhyxA6lZgDm4EhTgGFGzmIuMBaKWrn6xRHM5Rv4bI4LSJe0SRwlLFA8WyrmZVJ7VFiPczQZJ/nxPo0iyvF2zNGVKPVVVRquREGi/WKSFQGgsvPLcgWkqUMJm4TuqoCbStK4NUX0fBKo2qLYTmUqUDhOuop0vKO1zeOJiVzIlrghhACDDZwjUPpFSo1c6+YsJZTX368dC//IBsGd1KyVnFtfAtM8NSZjSOVSYlhhTOHWe3lL+5xXnWYe7QwZCTguuapM/DjrQA+z6R+kGaEJxt3OpSu8FRYKFR6t3ic53rx0+UnUIp+CDf1y1FsvZBKHYT/RmBgFhPjSlSTj/0bljivIihtdC//i15eZSDgbo6agxdmc/fqt5Qx6YpCLwkQVwM93YI8lc7FEymXkC47xl+62TsVwViviApJaHzL59zj1DmlSp+7O4ovgylLthxouRy25eVVhlHvi7s1O39+0r3opoH1xUnNnPTxbhQJS8Md7qVfaPS8jDhv4b9SMq+pqlLhl8B5Y4g7NJoibpXwB2J0ExUSho2cM0mXmhCmkfB6yzxWDlMKD/nLveKW+2Q7eQZpmRKpNBJWGGIcPU4qpWVcLw4wGPjCuegSv57KlRv8EigSLTFtfEv8gpqS0uIhB7gMCQ+XjcWlnZN75Tss83rLPKCqpA7ZDFgmc5WFmygrc/rBB2GHJAsYQSqlY6jUWIJEY4wrXiJNlqnebL8ESkSruE3DENEPqSv0fFKkPFx+ziJdlqnym15eZSDQibqtc/3zbDHxI6mZE90N2w5NdzjcS3eIclTaDIxbdCmm0mNOwQpwlRZQ/BrfkiVxPvbJ0sh/01oc7rK0OGVJ4VWRoYf8E8KZhbOiUq0v4TOVbdd+QcbkptNtYCHJBK51mJf+ILZByjK/Kmli0VN1zqz4sD2AyfgoH90qgmkYRqhb6BQNNBru8krK8m9jUgV5pTtnMWir1zXzgHt5+x3jn7sMLiz8QkrGZB4IhCI3rp+62Ins6RtdYDFJy4GuJGBQ3NOqOnybX4xPkZVClY+IW6N+xTp0bTkGJmnJvlmMV06ML3vvOnhnwp+BQCP1vaA72XDfCM2MflKlu0MRc1hoYEMjh3dpGwqV3iNF0jDABD5t5maclBA84Q6l9avHEPQ9BaLwEtkItKKiaAeK+bubeZexmMC3LbgK4SFSwdyhNJ24z4dXmQh0Kv9LEFeYhR6kZUj1vUaAhSPbxA+lwj9q0si4HYQGC6LROzDlZNpg27DfaMndwO4InDyDguLFZsOHfwP8vphDJKsIG9+KEDaOViElqgj8OAzIWWwTbNo53BXiecUP5oUTc9XvXOBeeT6TlZFAp4bbPZ/LwRdXZEJwI9M42OHIBCaTy7m0txophCvcughyFmYC+PnOGoFHXubSsYtM9+x4U2SIuPGtyPS3SIvwDW8mi1fcM2jRbfUDj7x4h8fmH4efj4wEGtXeAyOILcxE30wIqvuGhhWG3Ghu3+4eVxrEw0J3V+EtXNGTLAMDTv488cZ2tUsXK1qifP32N4z7fi/g9z93OEQ0L3u5Q9qOCIxF2eWQQj/ChFReGb9Pua1jw0olSpSu0qjDwBe+3+HPqwwFChVeE2buoiamp3lnRXNH36bE/gFDb3N/toWa7f6GVqQqlOqoly0D94tAo/FupkperLd4+XDq4I5tuw/nwlW2YYWYDYPc3aK+KR6GGZnvhT5uUY2MWT6vco/u2X3gmMHzindhQMYClaZyFMzEnHrpWlMCBt4ca+iU9XlIMoEZxdynTMqjYa4M3CkChepmQ2KEdSO3ZfgUVdlm1JNSMzDSg6gb34pCj3z0MoU3y/w/lKsObpq2P6+8D5bMBRpdBTMEb9zI/g2l3auu+u1btGHnu8Y+1rucE9vjTBX/CNF+FOPnpXsnpYNnjEqNTBm4jTTBYf9zhy7TwVE+s2wUPWLGuAJHJgtxG4GWeGcUxaK9G5+AEQGvmMsqSbxi7vsbefxK/xeWe+nDLG9Q2tyouPt6n6u1L7t3yvz/+AT+oWGOwIovNf8PBsACb2ST4ZfGrrd0gKZMBvoLQaW2biyO71yELMAGi5Ml3PQvIwCLvMROoWpHYceYVzZ3o+fp0Oi+kM8hxk2vphipaezCe/+u98l0lmx02ZCXfth8CpziBioPzCkRU1mvaNTplMswFubrAIzhHi9pAe1gC8NCV9LEDv1DV4trlDdwbDdsSEAMG9+SNbXoiEc0H19emcj5ByyPXxXaxN1NYZdt3dzXONKWfPS5JbJqXdD3iZnLdlk+Mx+zPKl628CmprGUWs4p3wqYIcgEVp1Hsb9Z5Y5CXRg2zidVDPVzYmrkHihbarcBWCwD8rkfN8KWDobo53StULkDbno1ro+WE21KHYLN8nBo1Cv8/yjMvfD4poP7rFLTSn7T9+2JkvUvvnn09IWbTsInLcftC+Zz6QzkXEuKGj9u0dOAFUC8VGa8a7rANRIANBOMWTo9hVzED4x7Bi8oTboryITq1Ud/4V+FGcUliX5cqxoN4hL88Xy0bOZ7a8zbMQMmE7hnLAv4tkch9wC1FC4K8ozi2/e0S9Vte839L3+xcrcB+M+Bk/cbIqkVP9mlU8lv+F4HgvdaepbLyvSBW2GK45R4cy36atcphmHYmEqU5VaSYjGxiPTVweTrX8RB1vwcT17ZJuaXpsI0FWZeDiq6HTYTe/7awMbnLirK1VBIJa+KwslGLaDmVvGqLa4YMOrtb1ftyUaoWW+K/Pv1eal4LRo13wSDBRDcm/fAnZxr2oBOj8EQhYwZfGvUksUiVxXm2fU4V8Ax0UGMd1Oo1C7YssFNkViLGiqdmRNHXlkM77rJFW5UY3k3VDqTcQwVM1gAts0cdHYZz7FqbnCxnQyBKxyDWK0Wq9q8Y58Hnn3/+5XbA2eLaMn575lLcO24OEbpLeeqXGfAAFjwl4t5vSJ3VJRGVpNgQhgbC0uQtndzddvi5c3A8V7OjeZpO1XcOaUa32JucyjxeEL153gVN28YRqR6SkPzclwCi4nf1zZfk273wudvaFXR75j9JkehRCAT/WcxoIaRukUq1m11+fX3PPn6Z0v++u+47XcV3HScT46TSbvJYABPx+YDY+num4puNoMF/QiWnue4ppt7apawlGAWlpIi4fCncMVA8fK2tA5p3kkFCGBkLNBHOhCX199UejluvLJNbL2AuNexqU428kIIvksLQIaD54Y7tOrLibdd2bJK0XCF8GJKcJJfSpEyleu3PL/LjfeMfvnDr5es2X6Ay2n65jYNP/EYTdxk+KsDkR4LKvdNQP1Kxj9z99zmMFGh1FURDX0UMPGBBKngXMzPuJfwY+SK8T53QLH/YDNhxKDxLdkNbsUj+a8QfYJcxIdXMICPfeoD6W6XQ3n4qg1sKc8f5irb9zWPE1uWfTv9+RG39byiXfP6VUsXUqTK5iKlK9dudFa7S7pff+t9j4576Z1Pf/xtzZa9wXM9ZDY300PLp1SMRR89J1dw4mfkbKLLdvNh+P/DhuNjy3D53HSDYtthi/LDwFMyOKGS8iN/reMRJsOOTg4Dvaf0AywmvFsqNb7F4DtH6Ohv0O/5llbi4prrPoZ9r2VetJI8s0WZ4obZXIFVwOHkHN23Zc3ypfPmfvbRO5NfeG78UyMfG+ajHhwxctT4cc++8NIb0z7+7OsfFv365/r/9h05GZLTtuX3LWhEZWNUjofuy4o4GJ1oDLgwAt7tN1+pkdp7CX4GAlGYuIU0OZF+Ft+uSgxivAG8WIK0gLaexVcxaHyLSd1nY6EYla5+zvMqHgnhuQ1IVQJGX5PXQP5YL5lk1jHX3fbM8NmyI7sDbMsyuUP3neyvoHCMxw238a5izrWOKsOo6FTtJzC3tpe/CR80dovk0lSRqC0MC5eRJinST4J7e7IYmH5p48Z0P9wkAynU+BYDN42KGC2vxoJXzLSxpy+RHlgYmKfXU42QmQwB0+u1TEEVNInfKKRiXBL02PZwbfcujoZD1PUgnx/zDQdftHN/JE3dUUNgCgNWI1JlRfqBuXzjpBE/pvbfHfRIUelcx1l4txRqfMvRtxUnhWK03GrzvIrYhNfL+r2M5/PnSJ7+nvUvMBxepvan6Ek1w6lZnUtQBNBJf5HzFmCa2ZbvrSBN4RVhMBs7ikuTNyo1XgY+yAh9HB5TlvyTTd6JTQjXU41B41tMbuesepwKAhyJ9oswr2TUYJrTjkgP06VjHg6Vmhgw886Fwc61AeOjeqTI5g61WePtgo554r313lmUzt5DV2gJLBfx+EQCXFwdfhzMDIj1cpvDO/lsFQojhbR1YTUWgUVgtuZM1oViUsehLJNXw46C98Ai8jH/IjfXEG7Ugnl6u1udkEcamaMs7i+Kf545r7D8G/4xzxPaL96/1pjzkcao3AFxZxPPkSZT5FCNaXBjvVwHt5TC5fXup+u4pYshP7wAz85AFbhb1CPQkiWZcvCIV4+Tr0rPnQJMSzavwNznMBZ2cZ/DYafHE07xyAuXS0/w+fs8bi9mmyYctfXtLlnS73aFzlgCLvHr88DdNrqWa0pv6fXzYMtpdUvy06LltFzAMmU5cHGXY/bKQaXc/0LCDk852527v2EGqlN4Mh7Q6WmcMiWpHKzSYhmpqcaY/wCbf7zIiyEWcHL6eXyvkWFwM3KssFdubp4I0qn+UvCGPGubN1ysefmKIuQKONmuQ3I4VxeWAeC3/sVcU9prT03cp/TvG8LH2nrPbobjYFjcQ0POk+nQjM4U/p9bhervQmh1A2lxaXxMnlpTU56Ukc6rojf/BsfBtLh/tkQfLLwLNo6u4ZpC177dibCKmwZB3rjQ/Qe9+fs8KPPpDffQ1/c3dyOrpsmOaNTwB87VW/KaO/sSn3if3lafwhRliY3dpSSXE/FtsBXu+sF+cJtMm2NGmDNymWQZFoDcb26uyHFJJLvcY8BAR914fZC68ZL4MPaeD6aIqbfffee9jz/+aMYb/bPimihS3ORp24kb4SjTtPlNIXnlfXtl79Qrs4SewwpV6X7NddeHUpcVykP7w6r49GFv/j7P2cbcQ1g1uWsF4lyieITkwLThKS3DPyMbEKXHp2fRbY4lfrN88KQ1yl7xwgpPzzumafq8+cDZXL+mYcON71/cU1ec10qaiX6xVe6FL3T5q2s5VvGcClS25a39veGtLqXdQ1Wi5FVe6Vhp5HafYty8Ypsn87l1xi1NuGigq1Hc3825MMFsV96emPE/zW3oNT0++c4FE98STbm2j9yre9VTP2zN9p6DZZoGp0z+nXwc+33c5WVISqVghZ/Xf5h3XGMkpOSpmN8Huuuv+d1fbfXcDJbJc8r/4y9Z/864u2WWlKe5InDp8lClOIwsNmAxAyw+rZxXbDv4w0PnFuVjixJNEuZxC4YNm4v8y4fWpJSrlBr1nG2FYeOCyJIyiidGFql96ZCJs//YkQ1/dWrtxw9fUpWTDlrelQSJ8PFSpGmvZ75dtTewiCB7x7LZj1/dWPfEkExpKI0uH5s/ud6NQp5i3LTs17HZnmzQoQVPdvJkPtWokroXrABMvuD13wltQz5w03mtLxu7o63mpGg+hWHFare+ot9D416cPPnlp4be2KG2wvMtE4nvqjcClDzj4p4D73184rgnHnvk3usubVWnuFeWqhnWSPsVIr3Tq+v5hLKVZn/GW2TDp2YO/DTm8opBmc8IKk+Uew3INVyXXW9eliXoP129ZC0KMxb/uiuqHu7Roemqz7YMZFNoWSia9c5kuEiOQ9tHl57y/PVk8W0cp8F9ueQcX1K6Y+5jl5TzZJe46BqVa/+9jgnAzvevLklEafYu1ugeCXYzwuEyh21yjSv7cpt9VDKiPBRX8qVzKqpmgjOP/H3NqyYuOeIpkeRSeGDpbJvt/VPnxJ9v3dq6eOTbyBUfZ34LV217s0sp//xnXmJnQHNnlU+sVL5IpPJlD81am+3zf7lts/QSHEPA/8/mprljrqzuLZ5QIr7sRKPgqPUvX1qEc0ntx25sx5fHLCynfGPlny5S61z52MxVR7x5F8O0PLuy1A4P3L7eZlZz/v189NVnFIpTSeml23DqpxHnaLxLeq4VMxImRJXBT9Mtv3mTt5C8cvsBL3777zGfNAFX185mqZfOYz5pOW+h0ME/PhzRpb7uSY3GRaZlDd/xxY01eKGbvssS1kmwM7T12POdvfqklLSqba57dPrPm47Dq2zLMLwSM9ZCk8Gn7rFh2uDVkTWfjbmuVTnPnz3xSn4Vra1z1zuNSxGNesCSYP/ba8qf9ur772/hqmd3v+/5TxZvOOCf1eGFmGn5C00WD/Foe87I5yRObJ7/zohe51RRPEIhhjnFtJX7jNUE4QH4fVGQfO5dfbN6eoUGHXrdM+7NL3/dcPBUoEjkSrX8m18OaH85OBUY/A6XbXsbdfbPTOXs/vPr1x6/sV31wl5xoMf2D2h3W5qn1mDCOgNr5mPPBw8usKpKVtnazTt0H/jAuDdn/bhi455jhlgMdYUg99JWkPIK0+DobR3asuK7D56/r2e7eiV9ssaZTlUZzR0dJZiw/gMplN+uFC6dF1y8VKhMldpntrmoa5+BQx58fNwLr037+NM5Pyz8ZcW6rbsPHD1lQVzZpw7t+veP+V9Mf3ns0IFd29WvWMQ3xaLpqRFe+tfPtCCse4bxm3+v+DE3iAoxNat4uWp1m5zV5vzLuvbse+tdDz72uK96+N47bupzVaeO7Vo2rVuxmBZ4yOGqa2c0+gfiOrOxq1R+9iqaUTn4t0iiKkoUeV2BnvMzIP1sCdth4CVBvWBBgnokoB6oPCI1jFDNwPClo0vw3dTxnQxSujuaP3HdxMzEEClUYhsscd1G+wSR/jIMSNC/TxBRR3cfYd3C/0hLBkGlUjLcYOFXosTQ9jmcm7h+ZRJFj3SWkhK2/0BKMoiy6CquSheSUqHodIENW5xgYFpCyC2LzjoJS4r5aHVSkkFUfz9MMBn6UNKTQVtb7ZVDZkLoJxSdOuVIIW7WW0mg7SrRAMghcKMRTQJ5o/GA5ZIEt4X57QkI9TTlXqg+H7YthSwcq0Vq/vk2XT1dCZP6HuWnhy9OzELPfHM3hSsbLta4o34aYmrwmRuGSzI8jcsvD0F1Y9eZ936yFUtIOd24HSo8mQ3L8SaJ5uST+3B7Zq09bKkF4DTjjTfndqg65oDj6nqTQ38XIzU/3OS4X/zxKQBmNiaSdlphOuv1Y/y0aOSQid3VSMsHD8eJjj0WAzAst6+8EqScRlCNhQwwub0k0clmpOeLl+5fvRywuKyOiedPL2Ka8hlOcT5k0alzSc8P3+vcHx2TxUVHT3OYpxWWhTAkmnPPzxenoi94TT7foOO0ooiAymyG6SwyyMDxfHBSiC7b4jPPvtMSkEZNTsCCMBgc2ts8/5tUoicC/vRyLV0cy2mF0ukKwAYTdWUG/qmdL06zYAe9umtiGunpbISnmq7mxcvtcIsJxMiyMadovvjW73nXoEabOlBWetrmk9rU8uCNE7gAxLxhgsuP/G/MCvEpORgs7KyebhbF+/J3wxsmvvPUxe47AHnv82w2t4R2tQ0cvppIzQf/oUdCtTTAHKf/ziHS08W+3nyn2qD3q6sNuGqpY9Dz3PIC7Q9uCWeCCSysmS9emZ5ag4UgMHfBYzqRrqZ6eJrnvNWqlwybsY7bZprcrHWmVqG8Vi5oVHmX+3vhXE3k3s89OPLB3X4MF/XA3I3YOKA4P9DsFJSPXHgeValVr9GfrjsGfpvFmGcC4kfuzHN30qm16f5euM9i8WNj11t+uN4edsiiGE4WATufba8Rt0lVUmEkuYFDyS3bpPOQ5774yzMxFduzjfkJh2Xn5bVpGZ2u4S55CNOOGz2u+eDbX4EBDiEdHQP+ebtfPc+/gt7xQyqKErMhlwadRbEqTS++6dG3vlm9j/lOoceVCCy4ZBuvlXd2yluXYTAZY0EPs1NPlyRFpXxytVpk0jPcPAK4aaPmLn/33ouq6SFEnaryYyL1GeUtpxRfpboqYACl/GBwQ5x/0Yp1W/+v30MvfPDjyv+O2/AoyztRbLCQ7+gx7B2SxzZxr9LrXAA+twVgv1nH86zIF99e8YhjEayr7f00Azi+cdEHT93Xt0uHVo1qVipbPCvqMy5cqmLNM9te0r3//WOnzPjm5793HMqBn7JNgfBC5MFWX+n+Rh5bS4/bBma5Pl5rwn3ognxzNHDcZE151/aVYjlH927/d/WyBV/PnPrKhFEPP3DXHQP79unR5YqLOrQ7+6ymZzTwU42aNj2zeeu27TtefuXVvfsPeuCxcS++8f5nP/6+ZtOuwzlBZ+zGe8M78X6xfUPsNLc5kZ6HasX/cRd+8vg7nqnNV4DLP0d9B5LnFGdatvCB2kaunzJtW+g4PafiO2UnMPkzXYVlAVOq5KEGjeodQQ732FrcvwSR+8dIfjrKHvCzSPoV7/SYvFPSMQ0jYH5NLOTh2pbPURr8IfpPxCn66RmawJFhhYm0vHQMR8C/41uSx0f++vIzrKjlFJhkhejEovhvbB3kkJZXGtvNfO5i3dPjWz47NBrlBpQXfF0e2zGs60d5ZZG3m/P0CTvffdWQ+5MLeYLBBP66pVAeaVA1zeM/P157Kw1rYrVqN96VtxZ9589rlQ7CyhsWMHCGnU/VckuUlALrRaOrYdt5xeIJ5uTUNkRUkL2M8B0NQl5R4o+F/csUYG9UaQyYlXcsriHbcTjSpwDbqNA9gIH06UvOW5Z7Xj6/OBVoGy/ZByPt++Kq+5sWHOfPbyxb8D0az0pfeobdksa3Mct0L9rBT2+ryVXiLPBeqP9OjyFdh2vCURveuKYcV43TE0aB9kaFSj1nA6ZrSMPhWgCyl448t1CQS8G3Y9NppmOwXId0W6yP3bNuqUPhu+QouP5FjajR69mAZXJNzKTFcLlGou1Vz19ROuTHLSoA38kx1Hzob667LpbOHBiDN/OJHbNub0y+uc8CeYPa+eMjKe0gq1VoADix9ImOJUPnPgvYg6EqA384xTnY3Ka0tC3nz5eursFLdpUK/JXmOtS6be5xVzZxm5AGHBjXmLPB5T3Nv9+4oR4/dH81MTBXNi5jV63325vBb7Ji/jNSOwbK/mPyDWdQQOYzMeDA5e8Kn3Pv5zvhKsvgEngptivjTtQ2+eQcDix+5qpaBYjb0tig1Eq0GTTtrxxvN88Wv2sq+AWfmuP9Zq95/54O5T3bCrYzn9EOsMG/GL3O1c98v9nwG0WDzVhsf4XBk+80bd7v+i9Hd6vNXT6loDo95x1gTMChRCowVU+nCoUbdntkxqqj4JVtGqbPr8RpX9syDW8f1sdWfTy8c13dm5xTCqLlY2AmTS9aunSJooXUmORJPUdfue11Yz76fVeOj3SzAjqGZmDRpOM8PUzb4NXxdV9MuKl9VY+c1guek3OKf3gla7fpcfvjL8+c/+uf6zbt3PXfzt17d675buJVJWNxej4VF0rUa9/38de/+GPbMV+RxyXKDI/UtJkEZduWZbpHavnI1uztP3/41E3nVtfIk5orcParqD6SRKt6zjUPvzF3xa5TCFC5G759dsCFdUqqsUo9+o0Rq2rLTgNHvv7pvBVbD3rON1BwhlAhB/9wYueKb98ZdeMFdYp5M78F0RlP1SuvCte7/K4pP673SWKZOTlc5XPrvwVTBneoHO8xjfqpQhXqtLio1x0Pj39l+pcLV6zfeeSUIZgjZTlHd234c8nnbz39wI2dzqpZ3DfxWABZRBanHGHZtgNfmb85F95/DHNzcizuELbOefLaZiV9Cp5UJdaFdaFyi1klyldv2KJtx85X9+53650PjHiUV8MfuH/w4AG9u11+QZvmdSqULBQo9tNveEqBSnUsKnH2bW/+vB8+FbIsyzDhqr2Lnr+uaRG+eD6lRI/CD/OPk3YR/IeaviWOVgBSTMZJlKqdRn27A96XdGzmbS/PXj99cNuyfMFTylfo5AchqYVRYQdfmqZRRye9YKOcTOW2dZv463Ffv/B0R4N1b/VtrHorPWTG9wFd+Ecb53lQYOHi7lfq0mcWHvN7jZB3sQHs+2xQCzXzrs+p0kI84IRUUNGyDDW65dPd/Da3mQZw7tz+/0zpXDYzf6VPoyuBmc6PFUTsr7R7YpkJwHa3wWOzDADbJl+keTKpmbgquhX4zFkKGlyKXPL8P+DbGeXCA7z+T3zUuWhG366LRlNxEpMLEH6HE3/nv7zVlYxc5pMBXhMDVj7oNkXMh5ux43YYJm4sIFgU3fHX5LGVAGy+M8KAkRjj2yu9JWoZPS6DbeFARVIKBsIu1OdH5rrY/P4eAiwG+/22dDownwaVzofNDDyT36/xM7GpOWITAJ/9A1w/bOqtWUGZ/qoLLGZje7ECAB+tp53wc/EnC/i9PV9adhoAnUbDgLOcS2o+f3lZm1kADD7/GUSO63DXdNpwj/zjrJiJbvn4VjfCNZgOMJP3H4L2nU+nD5Eyix6GCeaszs+/XykaFR1nhDQBLu1pSFl0+kAXAsylvWVJyb937bE1/HjVGGwcPY0gRac2/LdJycVLpOXTk05lPghvApfh6UZZpxNPtFyOLOwrl0+vKwr9by8sK6wJcNzeJf004p/jZ8GRzdApn15XiR7zdw1lyalH6mnDP8cXrYZtu2Tjjnx60ijrc9H5Apj4htTTBR9nzHSfaC5ZeCjfnoou5aMeRPB85h8l+Rp3tZ81YFueSsOPk5pPv7XkcuTCITG8lfFDdUstW76dDZjMU2l4UD49KaQsRa7rTQg2NmeRkuHnP6lYrznwmpiB3K6kUT69/o6XBLVRlKVk9H23nTtxO/g6xK43C6sak0759J56wWTi5B7YLZRxJyR8mrjW241eBcD0mJgBTFby60mhEttgQZjAHCeMdmKsmlFv48Mt1+W1f1zOGzZn4py2dKF8/Or0j8JwScZi45d2GXOzEIrKP5AKtR706QGfxmU5m2UCk4qQplB+vSq+AzaTAfCNBL7dwC3IUTJcv572rQu3HDSDG+uuxTcu6zNz1gVtedf8+u3XwJRDXCw1GYw325DroGaqfj2PoKqXPfzpFgBg3v6QfEz/9ibXNR8f78J0SNLCO2LJoBqUeXYgpviM76bMObe8uuyYzzauuUY/09HhWY44pXx9tRKWHAR0Inbih/ubkmdTJrkvlWt765TFe/l6dn5zNPA3PV3Fb6/8+r1L7YLtQK7Bcr2zlZOvrenZpCoZW65T9+5btEHnB95eegABUzPwcXFNJnD82arkVp7I50eZvQ4imGuE6Trg5G8v9qrrN8asjKp4zC89XKzOJYMm/7Q9FwGjzQn1ZDr0fPUoOm9T86M3rHcQ1exILDgqZ83UO88v5zuGv4xGPKr+Q+LVK7e57pH3fvkv12+0cX6lZAjwbwMbHiwfSfG+RqTkP3v5CCZY1BPlwoHFUwZ3rO5XDqQqmYZ41P3LF4vXveCGkW//tMFnEPOefcFY+Ez/L/2yOFMErl2uITXfGZdxbwFFN7p/bpMNV53469MxPZqVpMwgOIVPxPnXNtHKNb7g+uGvfrVsR66Xa2ZAWi6UC+f/8NvnR9SNt+62/XhR/vNGlT71fcs6sp+xfbyyXT+/P/qG86ppfhXE3V/JU4VjYF5cq9Dowt73Pffh/LUHLPhOC8OyPWm58Nz0jJhw2d2V3MdZNJ0sVf8B/yj50Z7LbuaWOEyjxDINryg4/u9PbzzQo131oj7yghcgSl4kG73jyw14+JSqftYlve8dP/Wb3zYdtAC/HGeIPKfA/iaAbZPOc1mmRpNep55HgLGk5UN7pDrbkcskGgTjd9Dcb3Bi668fP33HFc0rFfJNb7gJPVVJ/zlMPcR/GlmlajY/v/ttj0+etWjtzhPwUxwrLG+Ok2OvHJdDH3YtGt14TnQqNAWwzIaOl/zopeIST/NzcZlblzdn6lf/9eiWXz596cE+HRuW1/zrPaVDkan4iMWw2ekSleu36XTdXWNemfnjHxsPnPRlHOMScZ7spjye+v3fu3/29eU9/iNybbcOVg6munq+9EJjActyDbGbvCCfpIFXmfv/nf/BM3f17Ni8aomgjBs/wu1UHt+2Ejz07rDiWy9evnbz9p163/7Q+Fc//HrJ2h2HDSAwCedNw4Vgo5RwLe6drH0zepXjsu4R9twzCjBs5NZzfOdLK5Wo5QLACvQQq1Sem8wzLNvvcE7sWLN49isj7+jRvnGVoqEqHnBFUbErZ1OChKEu4eTUYuVrNGzR7tKr+w56cMyLUz9b8Mc//x3OCeQMs03D8KbgvOIx0op0/0zuXJZ7cigRPvVa/gZYMDCM1/OrHTsvCRwWW3wFpmGatn9S6MjOtT/P/fClkUN6X9G2YeWSWrhq6J6soLDSHRV8dJJkrVakVPmqdZq07nBZt94D7nxozLOvffjFjz+v2rjzwHHfdFvQ7OkM3wnUgUXNEU9JGY7MH3G2GvHroKpKRScCBnNoYf524/FOxOw636+t35hPcp4vWLNMrjoB/JV1ZMc/v38/842Jjwy5oXOHFvUqFtPj8hzIKlKsZNlK1euc0ezs8y7qdPV1Awff/8jYiS+/OX3WVz/9unLdZlcihr3Y3BUKN0U6sHhMo5zbxp3B2ld7VIn+3XWHS1dtAUx3dbI+75Zv7ejGzrbvHOQd/A3xF5m2K4g4FeKFpJyju/9dvuj7Lz56e9LTI4cOvuXWfn2vu/barl08qus1Pa91Ve++N/a9sd+ttwy+6+5hDz4ycuS4cRNffOHV19587+NP53w3b/Gvy1ev27ht1/5DR09kG2LX080v+013LlgqxvQLhXi2bf7w9qaKtz2zaE11PuFcYTN05t7Jzvc2VAj4Shap9oFRfIQmn4yy7LieoG155LJhGJxADCERU+QJYXtfotoye3CrwrFoFMg56qyHT8Cy3NOycLeX8reD4b6SxR3fnOArVYZ9RyV1Enyc2OQSff5SzbRCKdNzaB4VNC1MTg7yigUpsBT9kA5+707lrJk26Gx+m0+4Uf4I3fAvXx8GzMQ4Z2v+t/LJCNW4+YPNvq3VhdqUosIzjIqX4EuV1JzXLw4seb5PPYV/Oqnx6HT64iVc5Qm+n7GX+Qqq+ekOhc8d/v0euMrn1RVkbIoTXf5+j614987zfb6kQ1yS400/AUxnL8aZ36YMHhl9V8ZlOgydvSmoATuWifnl97U8bxis+GjYpdW8zFXiU3jQ+HULtgWObAuv5rcTkV9FyUJNe0/48b/gtuwyo/AYC9gXOxe+crt3ItXeevux8fGuyb3Ixd0RFsM4f8pfD9ZbolO81U2TFu1kniSe4e6aueRMGbzhGabtOZTdv743vEezEn5+Y/ZXcrP3bP61U85mAg+Q4kv58D/jzS6VbHbV4zP/PBzQdhS3K8sowuMrjnk5cXLz/Hcf7t6sNMW0cX3FLSw47wPm85K8YzNwqrvPDxUIeKWK5/QfO+P3naZfcFzmNM9O5zGfZJxl+jeEcWLTzx+M6XduDW/7PW6jY7Gs86L2WgA/E4NtYkMT0gsQ5jmua972W864dNCEz1fszPYRGBYvMPPIlJ57bX2ko+ErHnFyx8o5k4dee06NwnFvjlpxH1vl71sH2J6X4z3eZpTwoYKIXalE7Q69hr369crdJ4PfQrZckZmnpPYYWPBLS/BTp/aumffRM0O6t61Zwr89RFWJdXXis188CJiWn4kZYHeR3KYg8ttrWvgO6ahErVZdbh315lfLNx80QzRD5Ss002eijyHoA89YJpd+C+yA+8TOtYtmvzby1q6t65RS/LPsTnix5rjb0GnpAQsQZHJdV7QinzMuqNhVUYOaTC9Svv653W57dNKMH5dv2XcCCBSaphyxmQbeO+Jyl0bYF78P7fh78ZfvPvvIoJ4XNatS0veKK55Gc1KjDnGbl/cAzLR5pnnDxGgS81bwkDsNLsrOKler6YVXDxw24Z0vl/617XBumMInV3B63jH0vloYzxd7GMJ8FCOvPPR54ZEr8kMYZZ7cv/Xv3+d99u7zI27vdWnLepWLhciVc+IxlWoP17v3Z3//gGegfz+3Du+tICSlF1xjXClavt5Z5195w+Dh41/7aO7SvzbvOWaJyDXbK8H8X5q2gpQdSgm9fO137LaQ5GXZh/dsXb9y6fefvT9l3PDBN3a9sPUZVUsXUcM8E8K1upoa+1ca8E2O49+/1Q5+6CeHBudvueat3QCGK0UqXLZagxbnXdrtupvvfWz8y1Nnz13w+5oN2/ceOHIix0L8lZVz4siBXZvX/fnrgu++mPHulOeefPSB22+4+orzWzWqVblM0XD1HbgLGCwaU9ClXI+PDwf5537AsoC3KlFwba+CIaHJZVZVJWzxdeHiZSvXqNe4xTnnXXxlj+tvHnT30BEjn3zmhclvvPvBzM+//mHevJ9/+fnX5cv/+POvv1b//e/69Zu2btmyY9fOXf9tcZRzHOv/+ctRK/9Yvnz5Lz//suCHrz+f+cHUNya/MOHJkSOG3jPo5n59enS74oK2LZvUr1GpdNEsVTRtqnvTbkq6eCGr0nUz9gc2O8sdgGUC350TzrVgSWzyHU7wbcFH8z+empWlFy5WtGiJUqVKlShatGixQlnOkbgnJPnsVZ8G530+P0+aeuG9av9P3P0t0+a2BZlWdOfeByqQU1y/OQEd5/ByVHWVwinZJ6AGHL73FOQdfzoIV3WvYcthPx7j9rfd/GfwGETW93flPRWYqliJvDQVbtkrJ/0Nj4vrP8BkAX/f6g6YhgpQVd62rfA5D369z5WJpuWKRSDAZDqmlf215I9J5bfRGQPf94yh2wps6Ix5aqXit96U8DEpfDkZUb1rXlplAmDe3Gegf9sAMPfKZI9J1TytyDYb+NbqHG9JWQgXb9iHX2mR4DEpmic5V7rdfTM2sjCZz+B/IrH+wcquZE3kZDy9fos0veGFBT69ILkCkSGMi23awIkZXXTHv5rA8eupWqrV6zZ6zhYG33IyhpAuFoDl99fkPklSMmdfKnVW7/Ffr+dKyeDtpw0Qcdn66vlUsBW2oqmKklmE57NvodoX3PnGkj0+vbNxflno3sgsw3XZ9dYVRQu6/HtjtE+bCnl5eLrPe4VF61x618s/bDwFPjVn8G8iMoE+NCyTuS7vdS9JfGlZgRa1HHBhvdKFAv6D82mxKu9MyPlkGvVK5/R8+M3523PAKdub8RTq5dUyTW48Wi9eVsJ10ajAS1V8bjewb9V37z03/Jau7c6oVDhEakfLk3KqiupeUb9UbOEaZ1/z0Os/rT8C777e4nyxbTa/7cSSR1qrBWEuPjLi4vHL4VHm4f9WzZv5ysjbe3RsVt3TL4RvTlXnkntpXzr6ZxQLV2nVZfDEmb9sOx48jQow0X4ULX6bvfq1a6tzScICMhdvxe9a/T7cykX7gB5t1i39/M1x99142dn1yxcOUcrkza2mPbmpuMLRLRT0vzyFKje9qO/wyZ/+tumYj/Cz+GbpGXi/gsk5w+KY9O/Htzfhm09UqUBNqZwMKXbh2IWu1GC52TmGETRev9wjW1f8OGPSY04vEq3qViwSLsEU0I5fupCMWuC/FoUrNTq/x6An3pzz2+ZjdkAPkBb/6iGTNHgavu+fP9+6qYlGXO5TKcBrlaXaNVNW53LVBpzF9vTIbAb1JJhzYNtfi+e8P3nsAwN7XHZus9oVShYKLa00LbjhP4XiO+Tu8C2vFilTo/mFV9/+2Msf/7By60Ff4W+bpuEvHwX9gk/NmZ6x03w3rkdd4rcFhlsQFyzV7Tnp95P8JtP27QfV9AiWQBGSe2TXxlW/fDfzzedGDb39hm4XtWlWr2qZwqqoeAvVmKnE4XerokV3evHK9Vt0cHoXGjHh7c8Wr9q8Pzu4T1o3GSetO0fPRfeb68+uRS/3a14i9LYCvGCpxtUTlh4NrkrOGC83fNJ7boovXD9fR/f998/yxd998eFbk8Y/PnRw/55dLj6vVZO6NaqUL12sUHwc1ULFSpWrVK12k3M6Xtlr4N0jnnrprRlz5v/21+bdh7MRpGxexFu2HSgdJWU7TU9ydtNX425oXpI/Z99SuALETVU6Pfn9dt/xArq7+ufMgkd5axiuLLJshFbmqaP7d23bsHbVbwu/m/PpjPffeX3y88+MHTl86D133DHo5v439e/du881XbsFqp69b7zp5kGD77t/+IjRY8ZPfOn1qR99OvenJX+sXrth6859h0/khhR6tmUFdI4dcNEkpuVMz6HuXTb94c51C/s0EFEg+d6exr/KUqx53xcXeOcgb4SrCRVactq+3UHzScM4948ffhjwkH6uzC8pZ4FXh/+cOapXizKhJjBcQLmJT8GUaXfHm8sOBdQ0Zwgn+OTITztkZ9I+gi7k4LtDHKZfp9WiXfFLvTSB4Vk7f31/ZO82lTw8cKthFLA25UkVzhsw4duN2d6Xjn3KyiOXT9IVWEwHI+kmWeFR+//+ZtKdnRsVJ9/EXEFsoy6eUYnUuezeNxfvZP5V0PkCtXQ9GEnDLyEHc++fX71wz5XNy3mlYnC9jIJXrz4F3CXOvPLuyd+uOxKmoicDS5NjkTR8/1C19v/9w1uP972oYWm/tGz0ZfkFi/9ZeguQtEptrntk6qJNh8MPcpKlB+HI4FNrzQiq9nFs2x9fTH6438VNyqoB4SkFyf3ThEv4ZFVq3uXOCTN/2XoiqJ6Vbx0GMJbiQ5FkAWOR/HvRrBdH3NSpRZVivtfRLRwrkA4vzLvWvg3BtOp882Ovf75s8xF/ucQlqDxCM47F9QwsVPUz07KDzit3/8Y/5r737ND+V55Tt5RC/vKxwCEhlwc3tEdUpMKZHXveOWrKJwv+2nE0WB7avCTz1oUIO0jA0LIwuDqG7ynYIeRu7uGd637+evpzjw7qeUmr2mULh2kGUUkEdA2hB5WPF6/WpH2XG+8aM2n61z+v2X7opCFSvuVTH8wIpXykqkiG1jp1ZOf65Yu+mv7y2Pv6X3VRy/pVSgTnnflEnJJI6NNGDZVwUouVrXFGq/P/1+e2oU+8+Pr02V/P+3XV+i279h85kSs5U8pyTxzet3Pbhr9+m//1rGmvPjt62JC+3Tq2ObNW+eJZIcr3XNEoJByTCiJTFyicUouUKl+5ep0GZ7Y698LLu3bv2fP6fv1uvXXwPXf7qnsG33pL3769el3V9crLLzqvddMGdapXKleqqC6SJ3ZPM0EhGsWbr+FapImJJFO8QtjbtE1Cpj9UJXCUgJoeSoVobVChxJX6f//xfzFAVlA4INI1AAAwcAGdASqwBKACPm00lkekIyIhKLFJmIANiU3cLjnJf8A/AD9BfbvQF4A/QD+efeAf/CeydgD+AfgB+xX929Sf4f+EfgB+gHOAfgB+AHh/pp7H/lMX4B+AF2TLz9//sX+U/2P+B///o+e+6v/Xf2U/uH7L+g7oX6d/aP7X/j/7H+xfyb/432zfOfafnteT/rX+6/yf47/M3+zf8H/Of4z4A/xb+//7z/A/vx9AH8U/mf+0/wf+Z/Zz4yfUP/fv95/4P8L7gP53/eP/f/i/3//+31af47/h/939//kp/gP95/vf7J/jv//9AX9f/x//l7Af93vYB/nH+P/6n5//GZ/8f9n+////+zP+mf7v9rf+R8jv9O/yn/9/3H+/+AD/6e1H/AP+//////7gHrX9A/4N+AH4AftT3+FTEwEu2Al2wEu2AljduQcfZ8thcZbEwEu2Al2wEu2Al2wEu2Al2wEu2Al2wEu2Al2wEu2Al2vxXsZwSF52sY1rJgdZMDrJgdZMDrJgdZMDrJgdZMDrJgdZMDrJgdZMDrJgdNcmir+WwuMtiYCXbAS7YCXbAS7YCXbAS7YCXbAS7YCXbAS7YCXbASrY7dDfgOsF89fy2FxlsTAS7YCXbAS7YCXbAS7YCXbAS7YCXbAS7YCXbAS7YB7DdwFldfZ3F5gASNEBQaHiImKiyvs7i8wAJGiAoNDxETFRZX2dxeYAEjRAUGh4iJiosr7O4vMAesmB1kwOsmB1kwM4D/cwh0MdRnskhDoY6jPZJCHQx1GeySEOhjqM9kkIdDHUZ7JIQ6GOoz2SQh0MdRnskhDoY6jPZJCHRPWwuMtiYCXbAS6c8qThTrWTA6yYHWTA6yYHWTA6yYHWTA6yYHWTA6yYHWTA6yYHWTA6wp5frz+gq/lsLjLYmAl2wEu2Al2wEu2Al2wEu2Al2wEu2Al2wEu2Al2vuPmjzjjl+KB7GtZMDrJgdZMDrJgdZMDrJgdZMDrJgdZMDrJgdZMDrJgdZL89aUrYQTSXk86rM4+aVD++3szyrk37GNayYHWTA6yYHWTA6yYHWTA6yYHWTA6yYHWS+dhDR6v+Jemk1kL7fTyXjHUZ7JIQ6GOoz2SQh0MdRnskhDoY6jPZJCHQx1GeySEOhjqM9kkIdDHUZ7JIQ6GOoz2SWbWMa1kwOsMTdO3SRJ9x7UQ0FF6U1gJBAIIposOVhfR51qBxxZE/sjcW6r4uawCtr8rC+jzrUBjLYmAl2vvzyiPVw7D4kXLFqXLzM5cYNiImKiyvs7i8wAJGiAoNDxETFRZX2dxeYAEjRAUGh4iJiosr7O4vMACRogKDQ8RExUpjaxjWsl+etH1wwYKB4OlnA+mn8tzVY9CHQx1GeySEOhjqM9kkIdDHUZ7JIQ6GOoz2SQh0MdRnskhDoY6jPZJCHQx1GeySEOhjqM9kkIdE9bC4y2Jfo8n+xU/gvaPKlrbf6EjRAUGh4iJiosr7O4vMACRogKDQ8RExUWV9ncXmABI0QFBoeIiYqLK+zuLzAAkaICg0lueVcm/YtEunMuv9XNUJ8RcbvQHSJhdR8ZZmbHT5gASNEBRlmZsdPlt1cbbCDpQaHiJonT5gASNEBQaHiImaZ9AYgOlBoeIiYqLOshI1Dcm/YxrWHuaaU7E2PpqdO0OcB4x8QHKYHWTA6yYGdqhwOvGNayYHWTA6yYHWTA6yYHWTA6yYHWS+kUM86Gxu2dQ5wGLX2zkHUBbCsz1/LYXGWxK1gDxmSb9jGtZMDrJgdZMDrJgdZMDrJgdZMDpXQLOmuf2ptGZzUZrTidVGwuMtiYCXa/RY0i3gl2wEu2Al2wEu2Al2wEu2Al2wEu2Al1c9JRKL8bqSM6lbtPjWHQfjrJgdZMDpr/myuPhybENqbsMN3pglstH6s8Bt4hb1nzoy0W23hZcXcwLiNB0kHrJoGRPnaUOsmB1kwOsl9b22pH0/CHF4LWQQjxeO/UL32HJ6/lsLjLYlawB4q4wZ2MwwqbakgmUDV1+duTEyimnfhTY6snJSGG1zTFsLjLYmAl2vx/KOz1O/+rZ7Nmhbn/UTMQHSg0PERMVFlfZ3F5f/+/mdKZ3iea8nozbaxNN7GGCwadRqLO1g6tqatrYSaksVCOeaMoO64qPzyrk37GNayTFAHnnhqZvseQeXMJ0+YAEiLHhVgptW9QjeoQ6M5Kk+bz1EY6jBy0QgBIFec6L/6OZpWNTcptmnrc6TcrDZoHoHMBzEwEu2AlWx3FtaM+xdQVh66XQi9du5f2wqpd6OG//lbRDo8qZYKou6zkWOFw1vVMfLYUUy67qSrpAi1+Bb76ONPbncWyx2APGZJNVz5vWQOsY1rJfZiD1foU26GOo9ETp6yrK1PxKVnYWoqrmZqg1LbWgc8W9NdsIA6xH7X0/oFe3stYdGMZWnthvrukbN9Lso+gU1rBbcJ3m2m62FFNRjWsmBoNqhvZUULv9/Kiyvs7i49hokMoW2LEHwWfwZtbGAXvuiLPZtLofqbMyqLSjofrHFPyVuZKBPstMzKbuumjHpFNYCCDIjBqvPsOwfjrJgdL1H5RNqSh/o4k4hjmzxjSqteT/93F5fqVBlkWex4Ud06FqIqPRE6evkQdKClhrubKvbO7S8/whv5aqxq5+96r+yr1EIthcZbEwEIDR6sSh/WywQrujanMmdJnZ/p0ePUzzaMTYEJa7YLlZ0lpfg8CWMer8X2YBPvIN6PG8TNMHXJ57f3o1HbDsI7H1suMtiYCXamDDUoK4t8KObtCRogKDQ8RC8PE+NGhC+QFA6MhKGIQZMPGnFSSEOhFIOK6WWo1j01qQt37qHxkZ7qkA3tKUKm2pFr5VarV+/hSrk37GNaauNWhtdoSNEBQaHh++AO/4pr9OaVXcCc1Q67W/GkIdDHUYBBRnkHn1Lzq3GV6FvK6p1s+lymxJEajeRJr5sha014mAl2wEupnxivXVyKFjvgwQE9fkkbTh/bwiP6pRDIdbkN5VyUITs95NxuR3g24TFI6Ee5pYWLVkU+WttBD/VkEm0Wn5JYf8aPOCDp5PSxiakKdZlsTAS7YCEBo4uJmIDpQaHiIepPHVZzGSPKYHWGJu4scxugqcq5N+xjWsmB1kwOsnpbWeVcm/YxrWSheOp4dPzNv5bC3wLrEpDGljGtZMDrDE3Tt0kSfedLWsmB1kwOsmB1kwOsmB1kwOsmB1kwMrrk2AucjRAUGh4iJid4AzC14mAl2wEH+k6NOHOg/FV1jGtZMDrJgdZMDrJgdZMDrJgdZMDrJfYPoPGmhPGtZMDtO4FnIxfpQmB1kwOsS15+MxtYxrWTA6yYHWTA6yYHWTA6yYHSkb1fEPum2Xf1kp+o5QBJU2Pg4qZs5W8Nio7Hn2Mam7xfnlXJv2Ma1kwOsmB1kwOsmB1kwOsmB1iAiGAeNJnN+RhSWRZ7NqinjsBLqhHCmYmC0fLYXGWxMBLtgJdsBLtgJdsBLtgJdsBK2wGd8JheTQBJWmwuMtiV+XZkJGiAfNgL7EI3PyYthcZbEwEu2Al2wEu2Al2wEu2Al2wD4alrvPM4QhsAOGV9ncXmABI0OtrmPWMu+JeVaaTMk26UlPWV9ncXmABI0QFBoeIiYqLK+zuLzAAkaICg0PERMVFlfZ3F5gASNQ3DgtzTos/k7i8v8ZzOWyKdeBqaFz3P2Ohb0t4cAqlxRC+1uzhstm19ncXmAX8/SU/UwAJGsUqLK/sI0QFGWZmx1XMvNz/QOnzAL+fpKfqYAEjXeZ6/liKKM6CV/2EswAJGiAoNCYrTLkOj0K5BliWhtlnmXYxsjrAdrPypzDIzLCVr4ZAqw2NsHGNvUMZbEsySU0VdGlASMoTHtsybbjHOJe1dMzY6fMf2DTipJCHQx1GeySEOhjqM9kkIdDHUZ7JIQ6GOoz2SQh0MdRnskhDoY6jPZJCHQx1GeyRQAD99XgABt78sYiaacfG7AJM+9AAAAAAAAAAAj+rXdVF+jA6dUpsj7jM/M9Gii/cBb6v76Lfd6PIG7+s+0BaNMIr1htrQAAAAAAAAAABugu8Ssdl6RGooZYK1eLb7U+uwAAAAAAAAAAFB4EANafIwOnVLHpjFweJRnoM7CUUzmmVsC2AAAAAAAAAADNPlxJtKJHoXYpgD/+oH8VTo9w4fXXxj0zLEwTSnTF4k6iGs64c9nb0AvuyjU0SRWwGYXkKw+MyFBfdlGpokitgMwvIVh8ZkKC+7KLAAC2juMORRMDsohxeE0ye4fIAZmCaijfUytvC9IKurAvvBD3pVio4+PWsQjPQzxXnGlevrxO1tsTcebhnTkP7B4SgVTRt31/7E3Hm4Z05D+weEoFU0bd9f+xNx5uGdOQ/sHhKBVNG3fX/sTcebhnTkP7B4SgVTRt31/7E3Hm4Z05D+weEoFU0bd9f+xNx5uGbwABZDZlm2/AaUK8HbBoYWfpAfLEEfrwHY2vO1EbPaFBzGnThqEL+YRDUyLnoQKLO4S21o6Xy2fCE93uelDtigAAAAAAAAAAAAAAAAAAAABFaWVVHUqP4jhQLblayhQuU6jmb0h4sjQTjfrFaG8IC1mPzkEqloqAen15IOysp0R0nlzmpA5InTn8hPVcsAdc+Z3cuQz+1vHnON0B9uHUAAAAAAAAAAj1LUj5m6TNfoacCSl0p8OCTgJHNLDUWzNWkUe/spMCfYoQMGqfklwQRyqfV96fdpX16Ag4ZaOFmMhHFlL3gxrs01FeC+3QGU1xgpwPliWAAAAAAAAABQwCxu+27hFOnFIc9dcDN7ztAHnqoHjmQicfJUSg6nR9lo26K5EraR7ylALRcDn5eeAlDifZmcNbqO9qSMT9FkmPiryy48q5Wf23OPRLy2MipXWsvqYFp8Rm15d6u/aV1cmJ+mdVEUqYO13zK56VCLag9BG15Zg3Gnmtge8CJEgdEPwedt32KpMQSDGRRqSK/v9x42kt5+H+KoQ5RWolEj3O+j2gonZM3GBYAAAAAAAADVEw3hPkciH8iXi958kcKIfXabZ48bTD8wszVdUhYtkMoC1FA1jx5pkr5PTABDUvtD3/UoWkRammAMl2BFcpWGJ+tgZBbkRPcuPydeNBCmKAbs3WcsvK5Dhp5IYplRFLCL8JkN/ChOlYbP/OnrNvTXZgY6l+JgDZNJ1ixCRHcuPfoWzZndz16OSUKCc3Q5NiMaGIIlf9aVgJzBZgpNEG4iK+okpdKm4K3VLpDDynZGCPQG5gII3ZS1BZka0PNd2QegojkDfKnTTkpYmKHhz29Kro05CUc7dYIEp3qYr0NkouWdnZ578CWnJSxMUPDnt6VXRpyEo526wQJTvUxXobJRcs7Ozz34EtOSliYoeHPb0qujTkJRzt1ggSnepivQ2Si5Z2dnnvwJaclLExQ8Oe3pVdGnISjnbrBAlO9TFehslFqwDHV6/UfdSWo+JT++6xsou4inY4AAQ3j3fFH/nHLjklfK1zU/nAbCVC1unrTXmz9613YrNOLEQ+Q0hQfdPv6n1BtCbLoeDDBojzmSRRqg2obR5xBY0+vj3bagPb/wt/4pyzlwjPtHvKFMnzE1KAfr2f7f9S1t1haK0u82E8OjN/Xp3Y9Zgx/PbJzHckJR/TqDsBw/dyvqJuxKzbGYbRrOJhLkWpMGyFBdevY9gAAAAAAAAAAAAAAAAEr4Ig4zNLddaL5g+mG2S6GZ0ccbJDd5CSqIVkJ1kjRCQBAPDkH6wsFxM5KMyJJ4A1403IkvTFguZbGYgtrvg7KKkPp9EZ6bmA73y18mSGhZ+dD4bZe0EFBJCScxuU6jmbypZSntCj0wIRAm78Bqi86MwEU1qSTcoUhpTEWbTKWc54CdMIbrXYeL9WhUztFR/bKt+bDbZODbJ7b8kp41w2naDVBgMiunT85bYFdraOdNcGP85bYFdraOdNcGP85bYFdraOdNcGP85bYFdraOdNcGP85bYFdraOdNcGP85bX7AR8Asbvtu4RTpxSHRE7hYbseCBqncqrbBM7omEFl8ZGs7MdRW4qPJJxo6AGxY9CWWICOnJ+yl7r1DZA17BfboDizz0KyB37LNQSTR+IVjy/gcaivDN4ls+kdfovGfu6EHD3CW+aHGIwtbL98xjeDwlTuPCedd3b+Kn4fRj3W/mX3YpqvVbjARHZ8YEnYg6ZdJLaVzZEvN4yFKnQId7L5QrOckXNdZ0Dmj45fLe9cOAEST7abpw8pn35u7dxQOHP7ujpwWfrZMqDeOWBzR8cvlveuHACJJ9tN04eUz783du4lQHiyPNZa3pHz2x7BBCh8kJhMWnTTc7myFpo4TZWVWUPF0HK0WhE8cCox/PTemxVnjyVmmXTLPKvfcBrkpVo7Xsv/jRLcvt7PgEvjUpA5kEbtWvKs6TbIdwOrE19B7ijb0yZ74mPhamyXVj8DrffgUcmYG4M3k6SNoQydg0Qb2lmkiarQazCImqzSRNVmkiarNJE1WaSJqs0kTVZpImqzSRNVmkiarNJE1WaSIcD0jKAAPqC+ZuOFF4gwipIeynF3ZjIt0ONdosjV4u+AmQvCE6spqdCoYMI7VoJHrhfkIsxDOX2S1J1CFEwR/wsBOIsHeYCHWVBlZ5gWQoCYHzE53mCShrtl19s0q6xfUG+7psWS1nMb7Hv05gQ73ZvCth9Xnv1CFMlJeFZ3tIcYqjpz3093neeQi1tdyvM3hWw+rz36hCmSkvCthHCMXWH9Lsztd02LJazmN9j36hCmSkvCthHCMXWIHPHJeFbBQBCLLLK6Zz/t7cXgVVVi9w1TOQ0nlq2MUiSmDRrdvgIkRauqoSAcIIfungDko7L3IIw6dl2/IkjbFXi6ZoHydg3O0xXo/RB0/udfxQfCXAAAALg5dZaLH9h/MM+WW8Xbw+Dwoi7eYNa6D4wPcPtMprIi1J1C+VAAAAAAAAAABDi6+mXHQ9dhpHj7xzNM3HKsLQrhEiThOcs/PKGCqWWZXh8upk+hOXXV4rg/7KxilO/XBYlOSWQcaLIsohUFnBSCzsEeyAjlElNF6T9mKZF5wUSPj9WG6y0AAAgxUAAAAAAHXN56Q+y1fARSAeXLwUEO8wrlyd5BmBg8Zn6qDkpXwcqD8uM8VUghLcqPxFoWDbhM/21/YIoK6grA1GpBI/jK/ORDfGc8KIf6qE9C88UaW6Me2Lft+tP6+xbAvrQfVMhj+8FOoAF3TgAAAAAA5BRMNh+q+HdL6bZwKCGKrF4dE82toH2Pgl2s6cOGOmW9cQEnh9sHWwdYuI+oB6E2lUg5iDuyqK47J2bzBcziPqwq3hAbU+PKmwTsUopP5KT/KIXLPdKY4k/qXigQ/HsmphbwAAn7K/IcNP6HW57vZ/kqpJkSQxkvIrU+u5rp6aaOII/kMeDl2MMC1WP7cDeYFnuwmGMhQQ4Pl+iBXaOeDmF4SP4xwvnPiBPN3p5fQudb79AYTlfE5TTMU4FfMAcp7c4qMMhtTHWX2+8ubPkqJAGQWKutJ79DTvEyKaXQv2k4BJnjqlDGRqG0TmgRo+i0G7aFv10arZ6+SVTmJk2TYCsTCBH3iulMuh7rZiHYOXO+4Z3bHMsdFkf7C0b+s9vDrKT51QjRiRWGTcTPR5vOvzZ2afDdgej0dyZTDYWHXoO5Qd+HOfnYGHF/w2eNec8IHkyX1NZBpXZaA2K54FASgQ+gYGJt4fGbo9JN9jJLLGmd+sSTLGO7xuOnmz6cDlt7r68aFESo6sNq472dOoQtCJmVuYRG9vsfa+lVtNZwOAcFmD+wrITc039e7bZqRcW/2GSYLG9QAB109gfAWBwNvEBq56dtUqLPcUpYUw1B6UlwR4FOxXlwljB6eiWtUoB/E0nZfJf+bWPCsldl+BISZtAvepPo/3g4TvqJrgrK2Wlq2NIYemZUh0Df5/a9nrdGEVw5kphFzUfO7eq+AAQiGoz1422isNWYP4rdqyYL7F0DKEv6ARBH7yMFD9h4Bq6j1hPvBfna1IGVQ1V26f0qqj17joNw7AdqB6h8UtJKKTC3vLc/BATFIPAi6lrZqcF2AigMBfIrR/d6ooBVpdSRY5z72BceJEAF4rRHJK0JV7YDtYdNPo8qCxCMGnr3estCoFgAFjgWWur0SqR3oxtkWEFBeCjbJMx1Hjf71ymabsvqhBmVTuU+VZGUSkn4BeeAQ+l5igrbk2uzqNS1Fxam0FHSj9cxurlKa78AtkmuQiljTKzVSltKdeWBHhssQtAta9iDG6myUGwAZgkHcNFksG/XlGscuauZ9kEIqNcSkXJ5sHpP7+KzJWZoPu5qUKaJuqi4aruS96pTqcPBKuhgGShbQirfZiEcMzMQ1gAAW9NEHDPcZRCcTnZO+GqVNFjji3w4bWhlh/4py2S9LRPVUuxIoj4CAV9oYu6qeRex7hyagnVxmcpSHJFaoJ1EUTGAH5BEX4AQfMCRmLmdJuNT1b0jKqPqUb+4I3f8LLhEo+3H/DsqSPO+TBIhpHdlyC/b3qDK4JqjvLN3aL8AZV9DqwsKbS6Qmli1OYImXtyAhFx6fC8LpAPD0NbBaJ9zfW9+Q/2xgEnW/PziCZa7bDSJgB2F8qZbvp1oWyV8tAOy/v7XEWf5MY1Z0Hha5AaP0C6IWtNhV2/VsCTIcLVItYlehfAuBe/p5T20pPIOpym0+KBBZhEFm+KaKGz7rnkfRJnluBZbSsrMyPDMV56bW+nwVF8hPz766ikrRIbyCBKIlBcRqWw0AnCPqMgMdrE8YmZE4C02hYflTXa8/lJKSZd9wcWOaEAeK9YPfZUffiSB6yyHg6jZjZbCA+YxVXJu+JxczEqtLqbs8RKLXcez7HYGAUBgFfS4bGPuypsgE1Puoq7P32RK6owRIVeNTPb7TYUiYMfPVRepfA01m1WqGJGNiSrt9uObGmENr0Bwe+aORNuZbPnIGF0arRvqm21//xHAqPt94roWkx6eNRVAWdk5K7Q4Qb+nuw8u97kgABZA0bv1Qx2oVgJnlOsa6q+Z6MNS3+YRDHNzVKBtG6zgAKyZ7B8AcsQAEcf/byMwLJpmCbzKiobyQz7OIOV6ADankuVE6rT8pLG1L0/nsPb1fmSwYwEpSpm5Nb+OMcsxerLv9zBM+I0rGQxktGSDnCABachlRBXOz7B9IO70EDEvzgiAboYaWjtlcULuanYjkE0icfV/vDK3LZCjtpVWTVQOWlIrKHt44WFdPYIJcT9hQ1tczAQAY8qwAEWyCRCmnaTn+JgOmzd7s+y/Bu07AI+NL4j40viT+RSHxH7hAvj9uYL0mhKq6gosifNd+XiEXC/aOW6PHJnPp0g97mhDn8vKnnbpEiHuezuY+3WwrZV8BPjx/PfQImmi0zX4UGDWIrgVLKvr7f2aIpf5Mb1yc+n0pomxAF91fjihjiAAB5yH01n5XdeEaN1EVhgwRVBWCK9wARnvuF1bsTx9Uhgs6T/P4PWspW5JiS6zRyi0tKrAbKHlNsi/vp9IoabcLDQ18vdgLiMZnjCjIp5h/Zd2z6xLCow7Prh3q1YdqJoUnR1vLkK5oc7iRC8TlDeG2uPPkz0E9Sqi8EI/uZh1JceKfzNyi9wSyiDaM3sIcbTvmUfaWxGk/yzziboHQC8EB418Pi5oUvisk5es1wZJfWPIEvYsjYFcdwZgjy3y1fMltq+o1b0RzqrmrezfWA2btsDFslILPckbHTRCGV8DelFPaDNtVDl28tl54NgM4H/dz7NRiB66tToqFQ3bmaOYwTUk4Iv+mrJP3kXZtl7LqHNujK/caLSmjMxAh9fCi7c0msHHNHjRV3a9QX63MU0ugQioCI9xIfP7rDRLs5t4Ub+ZqKos/k+9hS1PdyaRPvggDYwRpHC8sYhEBl7hcr/fj+O3K+WO1CGUhZhR59+YdXjmvazKM3NglURQlY1IhKazinJ4iwXTwCaZq98eTIBeBdlFcTFUzqdP0Rjfq/JKSGCVTMo/Hme4arBKGslFopkyI3kmvUSGiv3iMS/YGEirMOJPM3yw+7y8x489clXsq2J6o0kwbJ1WFuMuGqXAnmorKfnYBFyyEiw48yaXG6olvKCpfGeby8v4eNhSOKReJG/hRvpoIGNaDX8G60igQIINgXDCuWRshEC6fMFlvyG0P5YWonWAgcCg6WiQu06rlWLT3Jq2IQMxSuKBJv6kA96Uje3uvFPjRpENeDQ6Y79ml2Wpev2J9wCEQYm0Bxx5dPaQJYYyMv3L1DMYsPY1fkRspQ7WNe3Rc1NdELC5UCObqxYUNVjN9+NUuUagj1IivJSgbmgmysAjWTtHGai102uZulJ7PMno1PlEvYp4xeeheTGDLxcHXlZquhVKmigZH+co0oqepe42C6QF6dFIn0342bEQHGBesaYVm+45b6WEcEj9lBTvTwjMkXR4AsfmLVBwq9nGJDzUEwBL1DMN84I5TNM/p4SBQKOJF7Gad+wZKj8n9JwI5Dq0SFWN9T9exMMSceE4OeQcvINIr3KPL+/bMJuC4DuwUjjRTGbTssbNDq9zFl/V8GUguSMQwHMtLoK+H7btEmF3UsACmFy8nppfwvaCQ4d1NxwmSxlBAEVh7HFRpqH0BUC21vWSdpeQmCQdK2q/8bDXOg5vPGzBcU5sNoZd/0IWl7ql6gQbaWMqteGllsy/gUUeaaxexkF7W7CRsvPeKRB7nwcJ1DmSL0fpANm3EoGP1gzCPe28AKXtCYfkugXrxVLIwymUVOGVh09HU1UA2T5kTr8op0rhvZjI13IZhRuVVzHAMedS2VV4aQbpYqfFX5pmnXN0oTsaeOZ5HI/KT0ihvnPybgrCE2vN/XcZOrEmfHeaQ9oT4RTJ3QeIffj25YtRUpWpUi503xEsowD+UDXC6WzH113GW4UDep7Y1rLcG5+hJVQ6bm6soJWQDvftk1EQODRa2tFkyctDQr/IU/pUA2HnHqhatcwzLpfuUn7vbiF8GW75eFJG2zZ1qN4nDocMAXOtDu+/bcV1D9G49NSn9uI2qSrZ8+WsNgiPDGOFO6Vz7Fa43QcPjzAZ/akyTySIdOG9ApfG4eLfPKyarCqyvrxhZbqUM+4w8j+znigpT+lxqXXom6D3tLD7ff+utIzURAIYZlUa+vmAUdztObrGY8DlxD+e02hMwBqsCzEXaVuruHACRRfYoPtm3OJgzTdchTG/BmgC85CkGJ+8Uapo73LOtOZolD9oPZ2ZbHYqYpcg7nFUwh7VVQSCPNwhk1W32kgu2lD4DQDiOcwZ5pgZME3lc0/vNPmJC0mcEUvV2BDELL/M1qwxWSN1Rar71sYCo3gYpJmqpdm8G7TwAVXmWR0VoNNB2R1toaymvdiHQ7q2cDFc/e8yWbgPRSTVF6+1V9sxL70ufDNSzCIqW2YzKE7dOC0NB3Rprzn5rzJfwbbb4vfo6nLtk2UKxLh4v/5Y0FmXgyVB/aRcrr1OPNfUpgKCG8WIm7Nb7tewyXRokPhFEVzJ04yOCsM3UmcLgLOMzT+PUVzPjtILlJ5Ty9wTtvnD6SxSi9iPJyRWt9jP+3/Ftbxp+uOQJrgOgftIUpSx/03pFHivruIeffs5UWhLgLTsyjNjRsSLrHtzaLY93l87rd2TMAAevxxEd/2etENDms8RuqObg6ZKIOHE54jImCT/yEUyADXodmhQXNrKfd8DTEjfRBIYjl+AZl/okwuFo2bEDljyPM3IRrFfVvDxFAkozYqNQvC0IIh9AwuOvSu9d0pvsGMPeRpzftt43/+nbX8niBpRNYv3OMkxb6y2ZUTTF/Wq5a45JWwMk9lV3zAbBVp6j3emq3mxkE3Ry2n/kIoMxQfeH9CfEsnn/aqzw1N2xqQ62ZIe9gpS0sSykrgkN3UkBv7Zr9flatPafXsA04ttxUIY1alZWcPXBWbRs0xQEZLSNhPq+WzF3gUOoCHHrRTmhGHfozZG/gP6KlZfe943uQNy2OaeMOCO9ars21aOrw3cd8SkO3JKvwW9e0cCZuuTccNRJFqXBtlTZAJYOgp9SPjox01DmPTgh/jyeLtZvwlhyuQ7eIpYpLGIxZwLzsqx/2I/cGc3zF8suiNY5IAepxDEUPK4vbGm8uSczMldjI++wY125lAj9LlJs1tNlCKhGbPikuOuivr3ZYuluOyFrvbPAxQ5b247Z34HuaXxWrnTp5mWtyy6mxDsTaN+II9iGW6T6F7PxUxUDVSLVJt4RDVpfnw+KGjmP6fD4fQuMXZQKxTXr6EcUg9tRKxe6vT1rgAEkmvjQLvuNvM9tmfCKDmGRSINRN1xRfAF/XrqjkFh0jvJlSNWNQCMfE8wX2HPp2sAzY4AAABvBOqI0e9XpGJjzJ+6xD9JLKLwXjxi+0tyK/nUA81cm0DQMAFDmMkJVuIHBLJoOMoZRiRk0ht+O+caJDzfnl59bZvofewGXA5jLb6ul+LTzXMBcETJmErqAIazgRC0nSdI+VtC5t9fIhVCoo6R925dZIL+/Ry9FYw9ETeeQP0nfct1kAm3IpiKCiQWxSZUsqtYLmJIXcrSTHtWPpp6YAAF/VP9ao724HosxycCOjYUMAF2q4+TYRF/glFf8owh3F47stvxwPMtKQZY+deisXHEQxy47h7gGWL1xwAD1L+gDyRokGvFR2b/ZIHIWbOHQEOtfOopwkmB7/ir0TNBniokAFXTfPhglRVLA7+dx7lmgTTEe2qQ37t+e+wDx/xaO0XxiAfdgFlmlxjqh+X9rbmXyeKykn5/MtefZCQZzGaX96YI/N9H07r7QaeUjh7mc2UkVYdDjID3qnwbnbikIdkNWLdP84ojR/XihTVYf7QAPusTTM2Myu7sqZsnAfph5y+ces5TOOv7iNPB7E9PWiinQPCp2Klz80DNJnZ1HxwyYG0nX4Jm3aDRO9tKiKS227qkj53sWPuWbSwOwpGFA5jfHiKZOKjsaEV4qmlcSmJoo2FCGlqHhUBRuVJbtTjxvc4e8XRNEJNiE1XWGcHAy+deTBxBxDkZH8lI7mezsCjvDuBwfLWAJuVia0dLRd13ZYfDzmaNf7SWRHQvVFPR/VnbEzMi5Tr9azY8zToe9mKgxDx4AcOKbNZN83GIR3Tn/EHwl+z76rkJg9aHMWTfILIEFT/tJbxauksHVn4gCFzsuk6mHluJKFUweivUa2MrS04Tg/Bd/xu06BrPQl9VW2tRZTO1Tm5Cb1c0m0vfXdk8fT7dgBLmYvlnw2xSH5jLw41qaWDbB5pHCRuofNcCfNkgpdpe3m50Y3WU7ulUIGaNTBJIi+k8G4CMwSUZWXXv54g3dBDC7xkzT9B4n7M82z3qdKjRXAAA6gqOvEm/NdmADtfUN9sOi0TBJfopaUPQ6G5L3DxZkl98uvzXC51sW8Xx4tyMswjtvxWdqlIUaduG7iXmkQ6AL5XHUmLNIgg1Vmlni5GrO3p/nJJ7pw/RjAPSDouBr79ofa7qZ3WPPv1hpiazlhrdKPotaULOlk8beSttbD4EDvjtckzHQVMBbqD4bxNAiRgBCm/fZ+ffiVugWL5o7dIK3oJ+n+ceByZkM2bMCNnuZXWOmwYUDHlnxNUAAGerwAD6dCDCKkZ4/Trwiiw+Y8J/pAXQBN5zFMrqHiTsLEBCp1EFSuXNjY7fgcOC7hneLpXBbdbbzypjeIAz65rV8gxXvkNBOwXLUlvknu8Bn1fyBku1cmH4Mwis/oa6QVDIWtqU7uE/Qwahrfg6f26PHQYa5y2mtVzHsNSW0zsHGqCqtBTkeveuuSWa4k0EFwPLnGJC0ZxM0fOKQHwcpCnBUmVX+RJNIFNLnPWKobusJxLLKY+0m3pqBvvF6XnRT63qIGWS+PIiviNnFlkWeOgq1gPADuEuHKI4dNWuySQNkxTYyQwAKmHN4NsElYEehcgRCS7b1jkHNZCpPQGStx8jPvfHBlCz0X81qIWPyC+R+BgOolCsPCKMipLK3BIt7z/o8TgAAcsEjgYrs9m1mOMM491AQFy8v4gksvlm9c6kDdFh0sC+We1JPXZULSA1kmNEoRROdRxLDEbMjCcg7P0XMPo6Zj9O9e/Xh+PB/wgvfd8j9Cv2XFHhRsLjodG07jLeMMzCWxesCgOM4ecH0Z7jBNPVJEMqsDgZbBCOzmd4wEzwEhPHZ+4hhrQ4dAZkTlFx/Wo1q9/3L05La9yo6s19jRyIxmFRGXw3GFKeRpzb/XrAIzqBbU4YIEBfSKQ06N32EXdaYOE+lHtpV2n9PjO6dccNFJPOegrEdvauv0D193mZtJe6ZmzKCccwv3Nt/FbMN64x8O8ejqwPDFErGpa5w4NfvrQgeRWsvexvjpPOP5j1G9pD0bSscLAOQqH7Jvjv2txrLE9SA77TXOxqORN5PJL/SIcwLjP3pYQ/66ihLvWpJfRqtteA0PHn/aO9dG+ECKiqU/8AK1odSCVDSiU6u4HCzn8/UeFRiBQDC5c4+fb1iRDlntuCRV3rjvf+I6H1/ACsJofFAtC4OK+hthNIx3/vAFhor/nJfo6PWiCaNmnCDYQaRlTTOHduXwBKVllLOJjYfDJ88rsNblkAnIGuHSYd5cRt3/2ULZQ1f0E3RBS+P1al9jq/6HUBUVVXrSe7RDbCvxihxvmS20W3U87UegFlsQ1G1BfJWTS0rbpvi9IHWF87bRHJ8AAASt8Tl8GZmUgOgBueuWbBA6vWNpXYMUjMhRBvTOVPc2WvrwwKIMtXs+5e4frjcWuEPNzLCtJ2+VBvwS3Ov6K5Ye7Vh218bEBHAAAAM1XfgEPkI0lwiZRKuIvC9sb/+O6UXsVVt0KiqzTktXS7EJHtO0BusS4KnRUiuNRxyT6hwIoq2yy9aT3n94y1TVOR/kN7KyuSoAAAAAAAAABLqonXQDoZ1fWGey/SvyF/7tL97YiQdWxVfiI0YWi+bm/VlFiTkw8lfdkSKGm9ZyHX5Tgf6DJBM00voqlWBkjxxD3h6Rm6EksRqKcm0o14hYV4AFci8NOeG8dRE04Csu8oRBfG9/4OXIsmC8at4JXvCOlQuG1KHWStfujrvYIiw3bdkrO/++/cLhDh4XeTcMyyIVDlFSH0c4QAAAAAAAHswvoiBNgn0YMamWpIkT7/+2j/uq6IkCa08oi2Lqqqf8BD0642I5BWIWIZKdkq1E0vMWKTKZkERhhUlGGNZh7MvmaJMJX9K6VVC4J+1DJGz9OjHFIFjb8bmfdlMqOpVbuyfkajIi00/lyhMGkeSyVn4wB9sZET3uSzNpOh2VINXmvv3adVYTKy3BKKep3BPkeZQAATBdBTbKUibraaPsNcbn6H51dFh+OUOUNCrI4Vuuvlh9G3zMUlAdbZNmGAbwC7T8aKtXQVQ/mtV+9qzFN6vKYi7JVCmXwinjJ5CNxwNHaFrmyYZndMgAAAAAPfxWyk2NhT7VVAf6Sv50ZSp9Yo6hZKvaEmXE2m4leFpFnlQc2YGvW6AbfEL5ivAB8wwmyY7M/Ugcons+18QIaHRpPlQGZXbd146wz6wUdP92H/DCZvKchAAAAAAAAAGRWeW/V7i/j1ao/XbhzqSMAb8dMD3AXopYwqjVvY54VnplAreazAoC9Wcc5TZvU0THHVWmTHcwQNSCTVC3lWbXYOOzqbGKn8+YdlxYHWIZlQ/NCXVgURt/aaXjdNU9alusO1ZdHIQDK4EymsKzSpd8pWT9J6GcVoHlxMdwhjkGBI3ktqhVSSrvib8KW49s2xoyXmWYngT77X3WXmJdsP2URlQ67rZLgPxPLNe+TaYlbMwSeTyVyv7d1PzYszQrKfWhiAqJyZ1RhzcEfcwfa+QgDTc6w0OMVwFc/4bltM4HLgLPCdIsU/UFEhfPjeFaGtVOP0K2JczIOAiffDdp1hMwFP4dWLI+HuHE0yc3yOJZV6kvp/Cbq/pZQGglDK/R8TOW89xEBq8jvOY/a0Pdcw+jmtQe2kjuaOhzxYvu4wninvH8KWAsDE7IB16jE00G/XmBPoAAAAABJqvGmRF9DqmahKxFbEdojEuuY7AFwACmwDjYUXq6ZlE1SbBagxV4LR3cXhEKuYQlYkbhV9M3O3J0id05sVE7l6jM3x5lB76jyzTXoOzCf94UQgiyyaadXfdtMbCcxg3LnXFsAAAAAACVRwYVrxIISrJgzKqDJxmKZ86PiFJWvHGCPZgaVNdNei9c9fmyw07lkHxXMTl9I0Yjc3QHGBwd9CeUa5ZnAkSIkAAAAAAM7nYd3nP3sv1t/B6PcEKyLQ2v4SWBPZd+CBOkEuQhvOuJJLagUZrKpNJYNKfdiUf7PRjNPSScIxFft2RlVLRC2LRngHu/XEv82NA71C9fUJQ5c6jhXCOxi/YdE+ZpfmsxA+9j+9x7A3Mg8iYJs52xtM/Rd5gAPT2xbHRT+mPlE/zQCMDCkEgCi7JsP7vrn1A5HPo7e+X6JtexeGeTheh9eFhw2NSq/VGOcvImmIqQtwdJ2AvGqcF/QRkowoZtTguB8oNBro9NBUaYc8xHK+OBZ7/1P47pKD3Z1HWaJAAjUqkCR/xCVXshRNa7PN1ytItkTThXwBsavIR7xue/2qbSpbEw0psAyIQ7EQnGf5b7/m6E5K++dgmI4o3adgjBlkqtJGIcKNE7yyqTW6MD74RHUztIH+HOE1AAAAAABuZaZ8s/Bs3XxmR3SeEpwv6pghwS97X99vwn2q8t53D692t1cs4hMHKGB+6sXb3ejO6nCTMUIh1ax5I0AAVefOMIg7Ohbr40341ZvYDEGCPAGCGEP2/O0R93+FIbPvXJLeCNL/a2CqNlDIMFJoo70ncBm8quEvj7jLFWUbGIbble4AKMqnZ1z1HkuZXT7n0DV0CvFcKHd+CilKbHIXXfrrpoq9JjIZnbpRp6mmZvRDIrM80yTLIj0rrq3pEMvZMVr8w7DBiVIaExLvgK9WdMpxSZ8gjacaxrBhHg0HIyhCjwYwYL+kTcnejQzVJ7TOLtSg5d+iRb+8+vB0ONEHktKp2Jk1lvWkR139LQiicmngX1nf1/2TSejU0GHPlViPa46GO1x0MdrjoY7XHQx2uOhjtcdDHa46GO1x0MdrjoMg5QUZisBsB4TEbz94DO6B4mnsrJcepi8L/rXgUstF9u/WMyqB8iLnJx0qjiPhH3pbq/2JSFxmOgfCF287MmGC+6WRFDGzQv9/W5oa/T4gRjyOqvYiURCwiidzgDntscHKEisqbJ349h3Ki9KmJnKADJkXKxyK3F0D5c1JIL1doUwJKH3ZCn8Hww7bCw1TBzT4TqhHBG6Yf/Mual2I8oRO2y4ggS0Ah50/qg+Xja9ONtAHrk5VuKTJsqPSqMiOsYPrEqewoUmZOykREJQIcrDc1iZ6OoBId7oAK+3deKSJZ2pM7YfupbJg9nZasLuDTQkKCiKsZOsMui56bpC8KLPTgSmbh5yPomxrijAhJBAfBj2MA9u+tvn6zEDy9+C5i9jz1NxyghrRB88PG/rRgrtTd3R9Upe2OEq7hwPdgCVLV3osX20G50XPVWHiAHZNlDVjWTCH75PXYBfv/F6CYjVyc4FPiwGD+r3siSVsfUJEauTnAp8WAwf1e9kSStj6hIjVyc4FPiwGD+r3siSVsfUJEauTnAp8WAwf1e9kR5RZvCPAu+4bJzge6YDcs1mJ8ZcEvHkLvdQ0MWpHyjE8B/w32icad8v+Uu0BawtjwITpUPlukG5L18wmGmWNa/LEHQFHRtDF6WaGs0uAEFswIfQMf+fdC3jg5ICv1J/TP54Hl6Ucu+IqrPAdDPDAa6Qz+gXFxnthJF0H2oc261QDXhYe0qmh2gOCa3AcajSHkGqmFuigomSmX3tV7rPUlfAPhyvaJb3xXIgyrCWzBi5c8jco4HklDgHEBV9zL2cefjETvaDAqJvr12aWcZ46CCSrFHShPq3wPyIjf433YL+4MTwh83ljYFJXsUBYyhrE0ZcgicSmLOrFcBhH+/2Ayk4J+J8a9Vvx2d+Z2D5xG98g+ut8L+DON/TMDicpPae9CnQYK5CVqoDgOJ/N+Rb/ZCFK10qtdxGP8aFtNsGS96qkgAAAAAAAAAAAAAAAACv4Oz7KvCR2fFWnXjYZShVsZc/YybbSPRX+vQEZxNtOKuhz+sciQ5Qn5dk5frB/ZV7Wqf7dVoCZwJtL98OiIhkAOwMB5TsbvSYAQpqnM/8I5z+DdDAJP1XYus+b5r8jgp13S4/gE7YS2c7t+oYqhNN5Vz9uSBd4oASI/ehKfdpHatY9ytRIlQyW3o1ijn8xOJ20O4kJR3TAHGt7SIZuzWYw4mX2/Ty3fXvmIiO0AA43GWeTbxsrVOqXfaSVjzGEQPkA4Xjc9jusipy+97yuR/BDsTuMOCElP+MH+ja5hLw7E7jK75C6HYncZXfIXQ7E7jK75C6HYncZXfIXQ7E7jK75C6HYncZXfIXQ7E7jK75C6HYncZXaQAAAEVYSUa6AAAARXhpZgAASUkqAAgAAAAGABIBAwABAAAAAQAAABoBBQABAAAAVgAAABsBBQABAAAAXgAAACgBAwABAAAAAgAAABMCAwABAAAAAQAAAGmHBAABAAAAZgAAAAAAAABIAAAAAQAAAEgAAAABAAAABgAAkAcABAAAADAyMTABkQcABAAAAAECAwAAoAcABAAAADAxMDABoAMAAQAAAP//AAACoAQAAQAAALAEAAADoAQAAQAAAKACAAAAAAAA;fontStyle=1;align=center;" parent="1" vertex="1">
          <mxGeometry x="324.28" y="-130" width="71.43" height="40" as="geometry" />
        </mxCell>
        <mxCell id="ffUYFbKQlvKIQQluMXO9-20" value="" style="shape=image;verticalLabelPosition=bottom;labelBackgroundColor=default;verticalAlign=middle;aspect=fixed;imageAspect=0;image=data:image/webp,UklGRjqrAABXRUJQVlA4WAoAAAAYAAAArwQAnwIAQUxQSIB0AAAB/yckSPD/eGtEpO7hAdu2RVfy/7smFt3djYCEgAIKKjYvEooSBiCYgC2iYBCioGAiYiuIRdiITWMhCIgg0kh3r7Um7nPbZu6J+555nvWw1ny2T0T/XdG2VVM7Rw/p4uiobnr4pMSV+n//8f/+4//9x//7jwICqGrCCopjSFhRl8tJTVZhJdqSlqTaTrPwdyFSklPQ6DlgCmlJKgxELronqBaV2sPExqwklZeqxxztQdITVIZ1jnagPCnJKe1HWAaGJac0jd6CaWGdRskpPAqTWbiKtMQUbnBgYnqCCpfBZjZ2lEhOVfxqDcYc6+VJKU2hWtlgMPB0cgpl9sJ2VouTUzW/im7hNhyunJha1LWw4Gj/S0pZif5wYeLJ5NSG+fxqflLKotL3MOFsOFielIQUvnHgLh1ITUhhDgcTg0lLSOELD95ITGEOBwu/JKkaCuSc95cjJRmFxS7AGNqSmozC7zxM3JyQ2kBrOMB0m4ZITL1nza8+ITURZS+7lwMsLKNk1JZqJ8Fc2NhdKgm1o0rNwYPBaJCMwiWweVi4LAm1QaO+MBl8gkpC4SGY4GDgEdKTUJjsWcHEpCTUSqXvvCsTHyaiKqqq62BxgIWfElBeFKp8BLYXKykJZW8DxnjY2Fo0CeVzAEwfHCxLSvIJL/qA4XhlUhJRrZr6ILtWAupFoJI7YfvAaEhKMsqnF3YzUhNPWwbD9AHD2QkoTAvAuaQmoWrV+6IdqUmoRgJ90ZrUBNUWMLDmyafVrACYjRJOUKjULti+yK1HSsLJ3tn17YfsmoknTIYJXxytmHSqV6//62uHjW3Fkk6+L3DIDxZWK0mnUF9y7b5YlHSyF9nib2cmZpOWfNo7AK8lnfBBgJ0ZGEt6oqmSapUjPvZEVD/4Gt3l6P6w0THh9BrQr7CYvwXZdUhJQFX68q+mWjTh5DvInnSa2qpCdbPh6AE+pyaZfOo0BgYCMSzBBIVK7+ZCDtjz0gQTdLrf3R5ER6skmZwLbwrWuWG/J5j0O4L05NO8CwttdPVA3JZcgk53htATTZ3gK1RsawjdxubClFzSRzl6CPv0xJJdpdqnYLMgu4MBiSVo9AGMYJ0huy4pSSXqyJmDkGzq4+JXWAgETIxIKtl1upnbJ9iOFgmlUBUqvwe2i6TUS0AqfcjtE6gMPEp6QsmtNyzGwtitJqQmk9wq7OfcQth/JCWh5DaDcwvWTQwkLZnkdj1MZ2swbOwtm0haqVT5YDg3mHgxmaQTzYOJMDpjOIvURJLbeNdTOP2bhBJ1g83C6Ra6JJHsGtU6AissrUgm1fiin3lPoewDkkn6ZNdTKFhYpyeSPN3rvv8TVr+dtAQSdQezQ7pZ+CcriWQ+2+BCCKn3Tx7pGlXb44YQVv8zifT6T6GVnhDChdydtMQR0bcuhXabS2ryiD4Lb04kNRevENfLIRjC6QYmkZY4ondgsNBkY0cpUpJGNBlmaHKbM72B9KQRPeuhsPt8RWrSKLRJsATIxok6pCaMaJqI2dWHJIvcNKJPPKGFDvGbZFEIOhX6QYxsHK5GaqKISv4KA+HJfQGoD+mJIqqzToxguKPmThRRh0Oel3/C/9ZqPUG0XVHpesAUIhtmswSRrhI9AlguiXjqlyDypBO9BdsWIc/r1QkiKjMfJhMguLSAkkOeNDprq7e6l0B9+q1lSU0KhaFQH4P/SQGzhVNnJoXcXOk3FjAFyQb+lxgKQafCnzjhixLDgAQR1f3LCUOQmIUHkkJbFZUuP8q/+iNEJsYmhUJTie71hCFonkBKYqhy6huAJUwmJpKiJISo4mKYtgR6jhJCukZtdvKVU0XpeYcSQmH0s2GAidMLCSHSiJ4WD58L7cWEEOlU9AtYtjDZNsYlhqjBWj4MQWJ4JPY/pGhaQqJy6v+OeSunir1ajXtIjTWpGndShZIQ4d8nHAYYRzeTFmsXd7/KPd/Z24e0RETlVCnUO8YCjM99nnnv3MOw78yipAOVXwTTFicT7ErS41xUltVh/J8WgDfLJB/qT5z9Hx++MOV0jClxLkUvm/QvXLXqUiI96RDG9RYMMGEycLQt6XF1KdHt7W0ArGyYj6ukKUmIFkyl0L7mMSSV27/z2zsB2GYO8NOZlHwIv5DbgqkU2l4/dqS4ArHwZa9td/c3bcvC4dudvZIPo3JY7YQhhTZWIz1mLqqzX7tnN/MujBnAzKqkqAmHyqkaXXyEr5wqTmvKxYtU13/Dh5d7XWDZ2N6Dc006hH87F4YowaE/SpIes/xnmYHf5QLMcQGD6zq5JKnJBleuPP05wJJDi4rGqPSdy39e8OY+AKbFZ4BNYPWFrmviIYzCbjMQEogZ+F4nLU7+6zz4p+tiui6MwTZhjXIrTyQfqBYfPiTQlxQX0pyjVzvPygZst7CMMzHHdWEzrvJE4mHr+QdhQA7NIFJj47/GQ3/75j9512NDEhB7uQ1nDQAMMAlkYppDcTFdNP0EYPH5T68Qxuc1iNQEhCs9BVhSyMKrRGo8qk2UvPV3X/+8q4UDfTnX5EMY+iwnfBlkW7HogIcrwa8/bgdg+/gH411nVCZVTUJQteUwmBSy8aRDcQi744wcP/8esizs7cW5JiC2tt3jDV+8ifhHSYmYFJ1I7bUIgGHz/n1dp5d3W3ROQoR/ve2GL4fudwRZ5D5KDVnnDdv/nCzsvjoZ4aoSjQJMKWQBg0iNvHC/2hM73bADTXBcPyzL1UxNQvzkNNi2LLqJtKhN9V86Fmjy1vU6eB3nmoQIv/g8fj5yUqgX6RGbznwzBzACZTL/luJnVZwwkxFUey0MOWSCdSM9WlPr923A5E2Brsdvdl2TEdT2gBu+HDIuJT1S01kzAX7I8CHOCD/UTETU9SK3xdAepjw62T46UhxTs/cBFs7EDNhDOddkxE/eA5hyyMCRlqRHWM+ryVQWyuQehmXjz7NIUZMS9CyYJYv2NomK3KOt+aodKhyAr5r6nJKQcCWNlBmwbFm0vV5UwswJp8xTJ/xMIX7tv8vdg0tIhF96Cf+TUmhDjYhIVUi/fw9geExhfu3jUqQriYkRZW2EAVn0V0XSoyrev3EDYNihTJw3k+vTMClBFxxxf1IS/VGK9Ih+pN2CQFPQa4qrmnFVUxMS9SeuA0wpBIcWFyEtmh+p+iZgWtzJhfQ2RUtMuCpEwwBLGv2kkhbJXuqDh8FMuK4hvR3rzf1agqL+hC2NvldIi2Svy/6Cp93BsN6W1iZNSUiQxn1wGYcggZiBbygCUhWq9K73R0J7e9YVpokJ0ubAZNJoDpEaheutB2BbnCmstxO93NNJTPxkqZ9hyKPPI5BnGlGLhd69QntbUd/xlpygamthQBp94lAEro/ZnuGWhvf2hup4S05Qk10wwGTRTIfku7b8DTABJvC/gTGQSEtQUPujMukjh+S7Pso8vZGFD2NjC8dbgoK6WDDl0XTppCrUgnNlDGHJtvF1CcdbgoJ6wEuyhuYg3fUuy3EVIRN42vGWpKA+gCWP3omAyn4qJIUZYMC8MUFRfcJNT/WXSm/KlWjcMV6+E6YtQszA1paOa5KCbpVKrxIpsr2Ng3/1jHAtAn5fJkkRBqk0BLDl0WvyqfICriK9AFkMUxxZnaig+7k3qyGJ3pZMikod93jGVCMS/tBERRik0HCJZGCaZNKI7gdfmSw0ueFfQ6qSqDA/BlsifSSZdMqaDlgiBIf2nOOEkaigEfIIBmZLzjDqVHsVTFuImIGVVZMVpNED0og59IVk0qj9QRhMlOZkJS3objCJ9LVcUhTqx4chXEFfS1Z8CYJbpdIiRSa5RzgasMTItvGi85PJCuoJSKTlRUiTS6/z42sTG7bkSCIlWUGXApY8WldGKmmkfAaTiZEF3ElqwoJaZ8ukbVUlU4lFfHvOYnSDE0ayIrR6B7mGa6SQiX11SZfbDMRqGBCmLqQnKkilMhthSCG4dLyZZKrwj/uTyRJSiJbIIwtmO8lUZaMM6upQwkJ9II9soJtkqrpV8JQ46p60II3Gw2CSiNm4hXSpZ1RugwzqkbQgnQbCYpBEJh6XXN+r2J/CZAPXJi+ondT6qS9Lrk2vLZZBvZMWpFLFnbDk0SyJdd+5A5wjTMzGIIeSFqEvhCGPFpJkfbI4mRhJGiUtQnhFZoWvDSWkkk5DuUHVSMjWJi08Xe+EIIksnGgk+Qev5lqZEG+6S0laeKp7QlYIsBk6S/7BZoZgcZxLK7ISFzrRUpiSPDET90klhQqthSlIFvZUS2B4eobzJCmEV+WmwVR6X8YPnkd64oKuhM2k0U9EilRPQ2A6ZySYThySuCCFyu2FBVmhbyolVdeoJWALe3rH2SNxoU+HISsEGM1kJ8KWC3sysUIjJXFBV8OS5MYs3CiXdBorwdOpBqQlLtyKb3XcZHmaJFeoadQOEPPk6rcnLjyRThOkuZlYQrLzjCuF3Qx8lbzwpNJZXOJLjqdjtUmVK4CHwRAkG0eqJzHwDUzI8nQd6XLzt9WPwWZCYBb6JS/cNOrs7CPHzcDrpEk+o2nCuok5jjl5oZZJ2gcW1hUiRS5d6JpF/zdonMSo8nW9NDeG8yTrCi2SsM+TpCcw9BWydANjSY9V/pYxG7tLkZK80Hu52+X81u9EJF23BHUTdycwdIWWSKuiipakxevvA0ffWDh54U2l82EzSW7jSY+fPiSBoWs03fUtJcT1hUmRLIAvgC2sby9CCQy3aschRWc2Okl2cw7yPQmhjE5k6He6jfhJ2WembFKoxnEI6gwnapOSwFgthSVnH+MMUmUL4IeF87cmZpOWwPDdHJCiG3hafpZRWwdLUDfR24OkxeDeTTmedpchRbYAvkSC791lEhn272DK2T5Euq7RK6J2R/+QtAQGVT4CWwIsbIhAohXZ4p6QIAYlMuz/c98BkqEPkq6r1BE2EwTQnNTEBXR6xLHL2L6pcAQCeAIMiCkbWwoRJTD2/NSL+L0N/atw9QwLC0lJYizrJWxx9G3FIiiPq3ECTBAm3k5k+Kx4CLa4buBx0qPpRhGiPh9NZNRSbWRCwhacqEmKfIyDCYiu7klkoKOMUE1Mi0CgKfSDjNUtiYywusNiwrqFy6MQaEW3wRZHn0QGekqAjX90ikBvkAsGYQxMZOBGCWGZeJq0CM6nEywJ5/NAIgM3CIPvO0yNALfBlLAalchAV1iisLBGiWruOxBfvZvI2K29jOL4SaRFgakS8rcWlpKSwEAzBvFVtyig0tcSYGNn8Uyz0nHBQL16hmNVoomBv8GS0bRzy8yqXQgpPFLyxR3+hMUE9eURnc4qGcjEKtbrRQqLqOKliuaHe1BpNkwxmHgnGmGmr4ctA59mVCuFntm6abuI2rZj164fa+d/Lxo9KlrAZeAB0qNAkS0yYGNvOVIyKCpzAhLUeNLzv1cdRIfdZ6IXaXEFM9GXtAwKNY7AsgVVLp4hLf/bufhO2EKwcQGpMQUcfENqBoWaJ8DE+TjSQf63NgumEICm0SBrgxQwmI1IzSwxKh8cGl0HkzER2A2iKdtS/oIlDofwAmmZJZ7MB4dCpXfDFkJ2rYjK4pe5kOH5UEVSMko85Tjng2tvwQQTQE7tSKDSjzAlDXN5BOlJC6jc0JFFgGiGjazRhzCZHG17cVIyTOSXD0NSAAytI8JL7krO5uGkJy2gUV8RK7NxSSTQ6V53JUfbV5aUhAWICm2EHR4m+nFxL6puxKQNzTtpAY3uF9EMjIgEKrVwhaAk7XhNUhIWUKjUrvC7MBNvRgKFSu+BzWRtfo+0pIVFp1EwEBYWFpMS8egmZQxi5HzSEhZQqNze8JqN7UWjq03GIEv7hShjxDgH+eTaUAENrGk0Qbk7AtKWwaQnLEBUeDMssLCR78aIPHZwnGXBxpGqpCQsoNOtMMPjxYg8ltojcTHcAZQmLVZEK10tpMdfozkN1Wf8uJIm99uVtIQFNLoGJgsHhuM1SImugWdZmoWtxUlJWKwUmg8ztHZ1RBsu4hp4luc0hbSEBVQ6B4yFE2wmXoko9pX4D7Y0MO71SC1h4azRJPcXwq3WqhGdx1Q3UIlO6wuRkqyAQqV3wQ4TFRnf/3NEJXGWY5Xo9CzpyQqQTjeF3MxMDI0k+ilU/qCPVd6U7zNF5LfvEgrfkRpZjz+Q6rRaoYQFVGoFhNmFMRytSkp0XwYKMp2eIj3jw3gO+em7PAkjpHZzRPGv8CZ5Vo98bkNasgJEykrXKQzm8tZoxv4uUzOxgihhAY3ack4hrCdrRmJVqSlDCKv4tMcTFiudngjjxPgZEkb3daAkO51FarICRPQnzBCLhR9JifLzQEl1WkqUsIBG57gCiwWmuGCe4SxRdYfPINfpHtITFiudHnWdAmNkZCNu0fiqrzLB9dKjJiwsRD+F8MNsrNcj7FJRttMniQuoVPNI8PuLzNl8ZVTaIAla8AleS1rCYqVTL1jBP2ViZlTpLXUtLEjVLGwvSUrmhqfz5y0avQ4jWMPJGlEFcoNsDQYmkp6wgEJZawOFG4OJRyMTX8ska8xxbEJqsgJOXDsbrp8gz1uKRPthHeTu8llmiXz1fltZUN36/hFFQpVmRbBLZ9ISFiCF5gb6YRZ+IYoIdU/J/gULq4iSFlCp/A5YCNBsXExahDVfZTvdTVrCAqRTB4D5RkwGfpo5KfELnsH+ZXLIv/djgvkuEc47TqMLArsok/RhMJIWIIVmwgjUpkcVDXWaINvJxv5ypCQvUGwDTLBYTNtEIe1vWJCsjSI9aQEnxrWyYIP5atH1Vq9Re9lONg5UICUTwzOhkZ8+uCNHuvm/DFSLlKhOYQyMCLTEBUilt7nqqjGZF9NimJCrbStKyQsopP7BBR4HTaX6p2ALLyGq8Scu4ES6mgdhwU8zuI/gEJXTLTCF/YSoxp+8AOl0CWDDVztVlxSKyvixBD/B1fjV0wMoiqqFUmpm89EKFEVVw/IqA17u9U2OMX4QWtGNu2an3J8y8RFpmT0c8ag7MVvw2eceWIYhH1XNYZYor9zgMtlFpXe4AHy03AakRiZyr4At0clZHalMSoYOxY3LPrdL2drn/O/am+4a8dSk11973bFNnvDE8Nt7Xd6qeknPUWpa+r894scrtVy9lud37nPbg0++8KKjXn399ZeeHvVA/67t65XxHJnDq8w1APoNBny1adHFRY0muk4yPd9CWiaGOER3j3ys2rL7/ZO++GX9vlyEVKd2/Dn7qX4tS3GJlciivSKu4iVNJJxjDHhFlVr3uHviB/PW7TcRUhl7//rqhds7VOCfL5LSG6pPJpY7CJUyHkmrUrX9sOCjMZwTmebwdQVMeYuDHzLnVWACrdK5Nz3//cZjvn+6mCGU7b0Ge+aPu7w8d9QxvUnik2eL7S2seP3WuPCmCV/9dcQ3XxKGWZaXVwd/nXxNdU7YKZFcv4xH6dSRC8BHm0NqdFpz0/0paRqMM0jNtDCBtKjje/kOd7+3+rCPeDRMy7a5NyKYj/I5DNs9LsbF+7m313HvK1U+ypcOo8pUKO+oCuUrV69WvWqpOAmGEmVKh1VlnJN0VcWSUfGqwvl3T1t90p9Xls1zJzSvbDjqxKKHm8nh1RldruzarVvXK7s2dnBu98beONy1Z8MMZhkMi3kXZuNy0qI7g3tcjUkCTDxMWgaGKLfVv27SLwc8Z2CaXvEoeGvwMd8CkD2vf6kIDF/l7N0fQh08xqvjp06ePLH/s2oxWVR6+Ni+/WHVgaPceR7Co1K5pnp4df0rvx6Eq2w34cYzSx6v2LKhNVy2Cw7VBT6qKd0M4DbS3OOZCuRmLh9hQaPnfQJgiLZGlkJzJPphFhaRkuHCrySmQZ/XV+Z6ortlB4YnerZuvDdNALsnNXHOQ5V6zpsgQy2JTX72P0hQ15Am98FS/dpJK3K8vGLyecUsl1fHP7zIjdgid1vlOd//CcPEsm++rkYTcRK7i3Cf3wp2jttceeYSwBe+i4kbomOQSpX3y/spxpBdh5TMFip3lGU7PbvchKM8CRO/6C4/2tsfnEOkK9Kg0Xjk2mEU81V2bkyq/ylU/oDIV2ThzxBGQ/G73K94vsjF438/ETmvwDssulr86TIXmM4dwBMwDfQhTadnYNjo5CBjCaDwKm7hYOHfQhHmafnBSUpa+HeBMi9Id2l092f7PfE9ILpH4mAbAGY2JnnnrtK5ED5TBhMvkxYL1M8R5ZqDzYWluVTuNXVrLHgF18G0gZ+vIJFGBZRCdA9wFWUpugsT3zp8KLYNpp3BrNw7v5ZPeozBwDDSIzyD1xwneXg3U4W3sOacUb9ZACw3vvvcCxHHegbzpTKkKjK/9pTwtbTxb1Z8ZuEAMWXia1KlZD9rD/7mCADbiAevvN6/bEACJ63TfUB30pz1WBiA1ZToOpiw8L8MBqTTeczzlyJjNg5WJCW6+F6I6wQ2LEKNbiTzgkT/zUetBABvib6r4mEAdvYiWaev0cswxU/FRoc4WDXqBovJ+Igs4ryqcvM3p7gHi80QJ15ZFnIfceK2EK5xoNNTYId34Fk3Z2r+Dc6SySx9YTN+gYEXItXauofOJN1CdmNSM0x4KxtVuuMX90gNy29bfGK9AXxcinRJuFxGH75cY61xwM0wRWGhpwD4gq0yvWe5+5u+LrF6uvzaiDQlfA8O6O0BJt6J3XQW8PolwBUcMpiNo71vMDr+rGakRihxh8MAk7NY7l9FmSa4A7tg2iEApuUT32NmsE1s7yDLV/EdEqwWVsfjKf8IDEEIDr/ALS1r/fo+zoXB82SJ39MldyCRGhIPAjd4cW2JbAz9ETkVz8p4QApN98g3Bn6kyhGqedKcTIzNPKGQeu1i1yVo/xg63kMkY9HoPZjCYAxnkxqDh/xk0Rwvs7G1qIArUYcv+Cx7nJllAs85FygchgE3cngS6Eiz3NvvI2rp7JbxgH7yLpImNydy29U+DlvKwkx8moFa+v0D2KYNT3yPa6S3gBeJVAnghgwlfvPFoklulWbAZKJn943IdbpwLsAMziXOvLItzNVIC7u6zoHm7IY27jg4TMdvMyvjAalUfC2/uBHhn6xIcwU3uxqTAAtLiTJLKPRCuPxnTH19LGNRqOIhKdbfYsG1xbAgpkS+wYFCTwO2mQq8YgaWFiUtrLNnN9aK1NXAWo0aG57dMhs/Nfa6Ag6OzcAjpEcpcT/jjl9c2diUlWFhoigUqmqBj/FxV1ykny1jo0qfS7CG+TIAkU3xI6oiWoXKnoSRIrxCLv4oQmqosTGimwOdHgMak5vMu5+oFnBpxgOHU61zYcG9aWycqElqhKh8yHWSgYMVSMksUeEAbC7Gp8bykYRF47t+gqAy8SBpkTOt2nFRpjGYAi/1q6thpQivmLMsVIJ5pVDlLz4qwR1Ag59fduv0T5/qph5e+LgYEWU+Sxe4As7VPL1MR9mKvBwcrpJZghT6gSuoSpnlOVLFr2adUxAGs7Aw8ptPpTaiZ8dsbCwkIMuncGnPlFlmCXEpM2uX+XZYzGO8SHARj7BSFoZjNTJM6PSwG+dTZrEwmHQZc+ezmATpUT/qu0+jnhJ8fkGq2IRHkTKLgTEh7h1FVQMOwLOflil11fOkp+TFwp/RPmkbOyQDx2tmmFCprcvtlFlsoJ3whdBoqIwNJoaQFjUeginhz08tPMerHwdLmQXMxlWkZ5YNM/Odt3KPoIei5KhO49zDl+BcMfOClIHYp9BiYkNRUuTPxSrsREWjxmuiK/7LS4j9qZlCvLJwoEpkVznDadTGtWbXj5CjChXf7u4ijJ3FiDItSJp9eupEegNvSJDcf0ixnqhOSsTO38EUPbMckf7xNBoDk6UUr74kJaPUVFKWcAtMfEVqlFp/CZst/E2ZJ26UF+cZuPaoAhqnkpwf45+ll4leCo3GSrgQzMQA0iKOK+tgMUF9rRqLTzjhMMafVbYdDa8g90vpZEp+Sv7NG01cF20e/3dYYOIZECXDhEJ1skUjLgMX0z2dWQQckW36tDUsM1e1RhdvfEuCEGKRD1VaoarHRHlm4gMRjilUajdsGbyyPH1ZRM8rGzvLkJJhLtV2wuQ5WipCjmrUBRYTxiTSMi+Iq59hhQXjFN95hVfZOUf3bN+2a8/uPUctn2OR2Tweg4EHSNSg/wNbGDYOVYpUcqjUHrbwDX4nadHUpmXezissP1blHt27dcOGTdu37z5o+ByMYTHI5NWEDHMXh4lNjsHiODqZtCij/k8wIYrBmSd0ehpG6PhumaYNTh3954fpE+7t1bFVo5qVyxQvXrpMmTKVG5xzWc87xn+8/BAg8V0iR4Zgd0lShL8Phyl+9Kbb+nCkz/WBwj4Z2pIqdNx3OxDn1aE1c94cc3v3do1qVS5brFChIsVLlK5Qp9UlPe94+pMVXE9HhjReeeaRm2ku7W1YHEvbR3gDa3S5WBaEO6s2pGZckDR3z5DxHa46vvrDR/q0rSLE7fIXDF+Q4xokRXoYGEGaIK6AJX4GJj6MGM8KimJmY5eYMFeppZsmE+DVkT+nDevRvKLQmVe4ZOSCXMDiDFJ4xeVnMs3lKjh2WFipRBr3l8ASvH3/K55peXlWAhSqdBg2C9WtDqx10x+4tLpfo8Oapqoq192ywimuh2P+vOoNXQf/l/lEbx7h/5ZL7JBi3VM6ypSOSl8LrpiJb0Wfx/q/oXllrp16T8cqnvPjGMOxysM7z3BD+FNqOPRPwLQl8Yr7cgsZ5zLA5ScMjIwwj685x24yJnT7fk5qxglSaIGj+SdObAA5y6f0bczzWHx0IYrq9ryj3rgWkOLIYOJmYe09GTtb6BatJlw0Z7qV2cVrn/jzijuI3BWv9T1DLq+o5zL3HMHkDMya0zLMwO5xbz4GuwWp0cX90kJ/+DD+eztkntC59mldtsKbONn0Xr86/L3kxHZZV0F33B+zYUhZLPwm4SUdSxwm3o4QCtUQZRmz0FkY/XleuYrn1ebpA+pFwSu69bh7AkyGtqkQUea5PO7e3yYWR3rob8GEAHC8OimZJ1S6BLZfTipn8Yh2hT3xXXrCnlpukLFwBU6tSY288S0b24pFab9Y8LwYwzHR3qsVapDr+2DJXTKibRGeV4r0eEa158GSsDBmuT3xZJyL6hafusu9pEeHriKPdM8IITJPKFR2H2w+dXL4qzvqeeN7FCqLii+QsTAYwsMfUekLIWscRl+g0b2iWyz8LuHgV8DiXY5/M7hBlLzSiV4KvYSel2mG+UbQGzCYjZN1I+OpQmX3hn/kMr6XiwwUpNL3yAZw5NM+lfiuR6MsO6Uf3EVCpmqdFovGt16OEu+KwjP4O+HKHjkADnxyY7WIeeWe3zPuVWbivDpUnpRMdPkIBtfphRJd0nAuTJEeOnWiTBQa3Q1kfzOgist3TYm6KCJrBUxI6qlCXl3/eN6Fv8MSRV8JuBrY+3HPCnHglaLQuzAk8Mriml7OQJ1oLrcMjMxJp5Gh+3fim53QMlIQFX5wUC2/CB/1UucobEhIkw0nLfrGt2ycT2pUHCt/UNQZtvhMahWq8laP0nHhlXPgy2HKuIfec5CJLtoiGDYOVyM1qnjWA1ZY2NhThpQMFRQ6wke0Qx8JtUyZhXmkCN59D0oIFIZQf60RtzXGbGzQZcWSuPBKoyZuaaOknTPRwItyw8z5NCqo1AIIA7+ONDJVhBqKbKy7LGE29pcVW1RqakOGsF0Z7VtAMShT1+LEK53GuLyS8m9uZrqU/ReGhRtJjyj2Vz4MO1S2w1OTOvPCcxLzLnFCE7e2avR5yD9CW2Myjb7JMEXZdX+qsUuh4v9xNUdkvPqdiSqdqu9ALvZH9uJ+ke0hARN3O/rpEJwTfUNCIsXEA6TFofGtEaRFxLGloj5ttCc15eLqMCm8esdBhro0OohsfBzVvab8EwoMFpYT0ekRVGoOMHFMFYRK54HJsC4hJbIhstmCtDf1CmgVqnxEWGMWVmSwcxlodcox9o4qHbYGVoh7xM25XEJapoZUXL6CKS7ifo7DCLQYN/C+SC5Lh8C9w32kqhRMDE8T5hVsHK1MSsa6XGADe8tFZFwbCjC4hECmgVppCxr1Ea9mamN3aVJkjAMkniVJGt0FUwxcD/ipB+5lLEHN04hTxrpcCRuzokHhrbBDkIVdzk9k4oj25QixK8InySQ1viXe2kxUSSjRVbfUTA2vhSUKkxtcSOa69IGNOyJwUqjiwWC47YSgh7NPxoaU1GbBFISUwfmV2CHFejyi1qhWwWKCnf7Ety9g8YSsKAzc70S+DHa5HshuTFo0/8KHcOP+kjmtwi3isLh2lKNvfIvrsCaiRmyY+EvW8pEKA6OEwfUCkLkqjW4AlmmkRPJVZwLJxLosUk6noFITBlGYuIt04RFoycHMCKwadRZ/afGl2DJLyohPRK/yGy4yXOPrpEo/2IdgsiCyYbVwb5DTi4Ai76yaGXjMRQwa39pblhT5GA1TNMnZK8bMivhdTRPvO8hsl2sYBpAuO0kwG2YQMQs3u+UFGdwqNbVPhBNlBp4kXfjYvxTX3PLUq+RfWJW+gcnEe5ROzXzQCzAhik+c3TLcpRPQSPaNXGQbbBZUuYd7Wfg0C5rbugfEVjKg0W0wmYQGJt4Kd2Ej/QOB8aNlSU30gym8+tJBprtciFWyH7oXhKGvHaFw+oVrYAmvnhCGQnXlNL61tUjsJihg4rWUTQu3AhPGVw4y3qUDniVdagR7DkYgrS4i8+6I25xzPT0WuP1lcTPQzagszQAZkNJfkDCYLX8WOxrdAVNaG4Ep+SqQKOY6yISXy0iTad/krHzJxH9VUu62dfZVw0cyTc2QoFClQ7Ajh07DJOwM7srG6oUbxo0/MlWfiFkbTwdAWdRltcQbWeMn3eRPxxpHGUKUMw7UK7e+dsgTb8ycu+iXX35Z8u0nb425vUvj0t7mljIgEBXaFAOo1IxJsFpYo0RSf110QDSpeyP9BItJmEhPJrzc+qA89qrcYCT9yWibSqRwXWdqja4b+9WGIwih7D2/T7m5mco55LGIrqkYGRBXy0Wskc0CWaVGFpgYq1K4SrRGH8HEaQAc1nYpL+8Iz3dfNvUhC+ziFCIui1l/wPvrTc8D3jBM07Rc5fyAYVr84fzz2tVl3KNUMgFI6AlMDsQb34KwMtzxQkr/908UN6UsdHoFBpNgyYxVIanDKQDzI3RKEfLIvXoPLzG4+9E0uQGNgYUZRxQctXd6tyxXrmY00OhtmBJWkqZhGLdJC2j0hihgNSI1ZfEEzAwMnsn6p2rkutjRfcgE65IypKpEl36a7TcTGSYypChu04bRdV1DBgOdnoXBZFji0fiW1USy9FglvOXv1E2xa3S/g8zJwg9yRUn1mD/f1X3IvjxVyD27yxcC4CbxxpFAeoJ3sICc91q4qcEMBk9JgbRpGIpf2/tIk8msejkQSypyw4FIXQzKjFaK6i8ftZIVa9Zr0rRGtKVVEQ/rz0sGsjumCikq1ZwF5GYbpmnZTji2ZwCJoed/7EpR2wDYrKZEeuaCx6U4S3rpnrPGpxVSjfpI2JLKGJjpQFH96jEVrdH6qiETPpi/Zg8D9n/RpyilpPoVFpiXdrdIGSK68TjCKpsb4SYYC+VgAvaUqkRqmsOzqQqNHpKH6BrfCvqUVBLxilhKkfGzP0nhhlQyGIviUxczq8a51498b8k2H1Gx9tWrK6dqUmAATJ7caLSuZupQ0RnAgX/nf/DciFuu6XJJhw4dOl7avf99Y6fPW8f/lMUPsTGk4egQxzFDwT3yEH3jW9IH9/Sn8Ja/FEph515SkKf7rXzezS98t+Gk5xZxsefLu1vwWbOUjPald8J2wcAMLCmZQvJnyOu9W1fRwl2Kyh1ufmHRUS5ac7uHm/7k0hYOlzIS3BEX9IbFIHuMyjKGXyR2Dm+SlsrIPCyqp4alVrfLo7NXHfEOmzc7xw1p5Uv/4+pnOcGn8Ke/4KSRbeJTNYVuV9V3mI1OvtxV7iH4XP3Kl05YCcCywhlsA2yo45ixQqGKhyVYpc4VTaMbJby0mNLonVlA9STnqncePmtdtrdYyDQMG8DBz4acyQvSlGWESi0Y+GJ1i2EKpdbdKvAKtaJ6dm3+5CaXS2EMgAl8X5X0DASDxTHGw6w4NL5luhMSj0etL8ZgNCAlhdEnM4Cv+CvUbOAbK/l8p8WVYFsmHLXx9e4xCjfqaYG5ZAL3kYT7IfVeZcy6aoHrIexOhy4nVck4cJc8SGt8Ky6v7ihrYElocyuF0TczgMLnPYu2GzprE/P6ZYzxLvYfT3QoFBRuCu/jlTqXOVIn/aSJHX8X/BRu5MXMjfMY5hxbxuFFHmLS+FZRqS8tCsF0h6udyrglA4DKcV0/a/Ds/7hLzfkFA+9iLX6wUZpo6kClqodhgwvjD/cn05FyWXPtRth2iIW5SYXXnCXDwH3yEJPGty6SxHWNbhXdYuHq1MadUpAHhlvnpmn/cjeB4X3FhdkGA+yfhzXmhCh36VMfn3D7WMB7KkfpylB4CmCGWmwTXzlLHg9FUTx/kei6VpiGwZCI6EegxX0+EUn42IGc4d2mHq90jlf35NkB+Qzkssj5Y5Zmw+fTZ/A2roWD34af6TPcyzQAnf+7iBnAA+7dnL6UTtT9OIwQWRnukv2kk5rnwjtTgXD/k/wIS1Y91Xg0viWtsW9upnxMzneiSg1ehTmmz8TxVV4FlctXVr5++hZum096zpv/3DS+JTmKd0kP5ooHHDfbxJYLnPsovT19dGr4T8gFuVigkJqGMDGOUNyUiB580+qlqjY869xLu/UZeOdDT7zw1gr3kkhCPBrfAlqQKq+ZJDFB9ERsHyuKqoXkVbWGZ513affrb71nxLiX3/nVfSDkwVA5TtcdMvcoANu0PO/ecSbTBo69979CXpf0gU9hwAQ+KOF4S3dKp1LLwi3MWeY6wiuPgxr0Jn6xivXOubzXnaMnfzR38cpNe48a8FU2wOIBjZ6SYGUmhpEmp7cgwVPgxt7DR8cY86p45YbtOt1w39gpM79dumpLIK8YkOdaFI4nzR9emOOb+QTgOtguT1bcV41zSS+ihyvfNJBzC+ctDS5Ffgu/TMvLoPjEdqXcmR373D1+2tzlWw+ZwYKGa1TRMEzu1SkJK4lTjpM0DlNp/xlIGm9W7HilVmh2yfX3TZj+3crtR+wwvDKDeCU47P08yKXRsN+YX+7TJxbbJpD7UUfXJd0II42amzAYljUWqD6Rdq5TqX9hhrijGZg7sFMtT4LiuVOLndFt2Bs/rDlg+8dyk1MW16CGbytAAOJj0ddLe9da0uQwheCbbooRr4qe0W342z+tPcRk8AquykvBMabevYssAN6vsRRg2vNMA/euSzuySCFlNbKBCeTxlhaN9Y7ADrfY6EJ63gK/CoF1ez0/7z9vMs42Tb7NH2GhKGk3WY1vCcPEQNJkdcYohgfictsoPK9q9Zjw43bvJbMk8CpvheLyt8KtP3HZT4shjGnL3aVTL/8pMRoYWHO+cwTptOeOHuGyRgwW9lchNf0gBjmFKr3eWJ3NR3YuqodIh8QenWAx8QvsP8Yxwc9rIWvgxzHgVcUer6w46eWVFYpXeTl48ade5v10VNw2XxMzgM13FnEOT0lb0zXEeC06Uyr3SIBQi4GvSckz4HmqNr7/26Oe1nzsoKieMiAqsTMuAw5R1ghvWa/H5V+2+nd+dYj3G8yrOCCv8N/g8bVcWRlDgMnlkAnsdE16WjI5bC+3HyvaUcpS3D55gcNxt1lMPY+A4h5vtcELLO5+dhNWnrRVCkKj92EKg/9MDVHXIDPxVuS3P3fYFQZ8nwvAioxXed5uqsOarJ7fGYDNFewHR1xmwh5X0jFR2lJL8bhCetrlts41QRlKs7GvPCnpBtGZlC6fHQ/6wyh10VtOoK8KQ6MhMJmkYT5G+mS56P1DoXgVq1UeEHa1R/71mzJ1MFnAvKbpzKTSpT+0JM/TNN0af4GFUIuBF0lLN4gqxpe7ezUA0+d2jidkdqrvsUabiVRFq6175hIecfaq2IBffXJX8KgMYsWXg5312vHwnGHM9TbCE076MsTClLqjRgzHagazCalpBtHE+OoTDwKW6elSLb6QOy5vYfgM2ji6b9XALCyOktxrWPaxHYDtv388V2nedPHnfm0Eh6Tjl/CtBKe1JeRlifHLGDHrlCMUs2G4pS/pBBMigE5UdcIxX/9pABrdLsEKE4+SJpqFgM0EeTQmuhvGPd6Sw/cE8CrjWKnOBbvsJ5e94Tnj0p7GlJU59OmoxE67DWbYp1N2PVLSOBz2lBx31H34gkuepAcoVMfbWWGUyTKNJorabVxIanQyQH1gVwCvMo6V6tz8ly/waRo4LNk42oiyMoB9da+gyKrVfsCr8fncEQqV2wc7FMCNWC9FUPtk/OAeZP//PDEeQLoAKbQQlrgV2cLDh/xTONQdJSga5V6+K//y51UGstKJ2szxmoQeVF3yclJU36ZCSjXpfN8rP204CkwtHidtKsywEW5TYUovkGxqs9AnxqcT6PSQhA3C3Ymp1ETwajITMyKyqwo1+MSHVxkJXG7W/RCwOJPYVX2P9Dw/PKXK2deN+vD3PTY4tfQsqdyP7K0SxjeOmZ6hE40HTD7GpwYkz9xJUtX6aCd/MjASuNfu3tyADgUyDouiUdbYbE95mYRZruS94fnc6WUadRr0wtd/HwGvrJxcHL6D+AdHvKxhJ0ybnqEo1HKFe6juyaQMZKoVEqyiU+FRaU4sR6OsqFT7e7/vKZKJrNzrdMW/cjhjY1/ZvLkUv3SjSwc9/+nyvbZXVBjuy60G8F4VCi2+Ip2ROQtfApN2wbHkYeaJ8SmGGDW+ZaETaZFNFZpZ+DkiITDwuE9CODNZaUQvyXqOMGTXzOtWihrQUmSF5p1vf+aTP/aa4JXl/bxTXFrl78uJ9NjdAiMcCPzDlXahU5HPAZOL8amGGDW+ZQpVEdaoOyyxAzcxWv5T1L1uXD8CPLMyk5VO1X+TlklnJkZRlpIniceAkjGiEnU6XP/oOz+sPQif8AxveNwtbJkwHlVi+Ja5Sh1hM4H5lqZb6FT/7wjLql0Oe5TtVe6hiGK05OdW1r+wOYiOuSG6NiGimcqqThUWRunq8CocsyQg3VKDPchlsjjDgF5unfq8RTzqquIrH9tcO3TS7N935Hgjiiclx+0b0CrGnDOcmBJHOVXtOELjq7S70unyYzAAJj2S25Zfo5x2kByzweQ7S5iGYaTziNbWCYe6uXAEQqDVDj7fLvtpYtsOrzhmheMVy1Msmju/XUMaYxhs4PmSRKqmpH/p6F/JVC1X/8IbR7zy1Z+7s31uL9Mvyxl47d2H+fZe0e0lpV2UsJFuQ1aaddaptzxvnrjutnlnI1hZ2UcP7tu9e/v27duOu4skyG18K7rW41U6261CKjy6W+l0QQ4MebxybNxgxsLIajvn+MEDe3bt/m/7tqPubZSXQKGSWzyckbYw7BpZx9OAddrNagb3TqWXadih533PfzR/3T6f5zt354Vpgi2wgcTni8f2XSOVPocZNlZk1yElnUKn6wA5hRt8Us60vLLu6H9rf5//5fRXxg8f0rf7xW1bNK5bvWK5UqWKFilSpNLvsCS0wyw5zu2SYv2JFKEyTvG5NcmmiyyY0njFLNPnrLP3bVi59NuZbzz7+D039bi03VlN6teoVKFMyVLFihQtuwhWnjIPFI3eRK5EgqeAO+fzG6pyh80JnnQnHNUQ05coXat1p77Dnp+xaP1BA4HpuNDiEQF7LTk7GleZDQSHO2++n+N0gWdIk05ijLT5bcaG76c80PO8BhWKqQLPkAnyxk0aq8a3cLxa2EWheYJ2hqNVSZFMVwCmNF7xD9N9y95/pO8VrWuXKiTAq7EwWB4ChWrleBLTMg22AeDo/CcurehlBhecklZkY5hOK7PK1GnT5ZZHJs1e8Pfuk/AXj94mbcGYjGtu2Tg0iCs5jC8egSkyYdr0CZ16ySCX17zLoZ+e6NrAV8JxN46uO7eOo3wGCazTeHGMkY7rPIGKp84EpnwnBBPfS6d2UsiNHxyvsn+bdH2Lsr7XIQyvFPdknoSZl0Cjrn5FB3I9cHH5yLJpD/yvcRm/21vj2KSkbB5TDzF2IrVUjSbtr7p99GufLv1nf67vpbO9/QOESscJu06LoqqX5Mhya1hZwAw8SHrahE7nMZfE2WiZAP599aoK/EmLPW45jIsbFKp0WII1/CBtNeoPUxT3kSZXBNTYz5GEJwuAXe9dX8dzuLoQs1yMdpCHOKt0voPgRVZRh8GXydr7Vnwx6aHe59UuScEPGU3jHzFxHZoA9xQLU3hXpHyt5hdedcvwZ6d+/cv6vcdt38sVNNJa+RcbMIE1lxHpKTruHhNPp8+VStUOulFemI2u6eCbl+tcs1x+hbAxQlxGoGVjY6GwxzwLplDc5L8rj1SOZ62EIUoe07EZ3bk6y/5lQJEjrapVPtyJYHe3TNyCR+XsWPHlG2Pv6nlB02rFwrDPK9e8SuWUIkf5jopP18PdGlklqzU6++Jrb3towlufLly9eX8O/JVtedNwIuJRWrkqjMcU0pQUHTciM/FyOrX8zN3MEmL8X3dX5OK7Im8c3fIgufEtJnzLoR2poThURnCe+MzCH7I5PpvjlYR8xfbhVSTzaow4vkqvUKml6XiMtF4ct6vhywv7xK6/lsz94OUn7htw9UWtG9epXLpw/DJrpas1OKtj9353P/7cO5/PX75h3wkj4HLwfy+HEY4RX1obmFPfjVoUd1wnsHo3bUKjCcgVj/Im8Hc/N8Jz1zJloVDdHAlRzsRjpIVvhFbscMeS3Gv6gAyyGLbeViyAV3nwSqN2B+FWHWGRyhLvr4SqucNOHd69Zd2y+XM//eDtyRPHDL/3tr7XdL3i0gs7tD27RdMz6teqVrly5fKuKl2qdIAqVbp8+YqVq9aq27jF2e07durRb/CwMc+//v5n3y9dtXm3Z2gCQXlMLv0WWBgWi2vpvc1W9vTbK9bOg2CExrR0CY1r7FMsynMJlNyhxP9fEk/Eq/EtCwtJCYXXY1WpXqWzABuCvIIBvFDCj1fxWqXZpdJswDIZE/m5KGpGe+v4MtFb0MjJPnnyxGFHHdq7J1DtPXTo+MlTOblW2GN285eG6SMZfYVjLC4ed1Y+Iv/Ehp9ev/dcIlVNibvgIZgIi7fS5krfIBoCc499aUPiLmOqQ6NhEjYwnKgZaim8yccej3rFv8AU5RUMbD0vxJM6D3bm7tauS31HEBIbxeD3BpXleUvBDBhcgMw0lidj6SMYffOXsVJ+KTnLG/G2//zBqL7nVsvyMigl8KKA8+tpBaIpCUM0yjMbb3Fp5DQAlZq7cU0UJq4nLeTcjoVgYgppMq/ovRJ4ZeKnMh4fsld5D0hxm4v/8DgAK9YdgICBhVZ2eBXmEMFiekGCw7P3r5g94ZZL6hf1skaLdKSCEfxThrS+m0r13T2YGJctPEFhrmG8douw8S15JQAaPQ1TTLha6CIRCpXfLyp1GQxMJ+6iZgAr4u/Z6rd+fRiAbXiCzRMVcy+wHZDlZPvXfjPp3i5N3QqAqfrmwJ+wQl4jA/eSnh7ACWzBWUsYEIzy7oErCkWCJ8Ux2gPZjW8J3502toSa9/jKOA3fSKOJorpLnxOplDHA81dHpWvf3gzPJi4NlZeJR14+mqbPvZ7932+zJgzqdGZ5782thgsvFeRUlSOwQ4unG0hLg1CpBcCEo/yHPEVikYd4Nb7F+O9BI/vyyv04IQrVOC6qw8SvLuUdiNM4cQq3H/XtbrjKcoVI3rIrg8+fEIZfdTUcXv/TO4/fcG7dYhTwVlPqVmu5EDYLCRuXkpoGodG7MCEW5S38Xdi9gDFfxa3xLdOd5qrc/weY5I8/o9Ezoklh2DhRhzTKQxC3cXiV7DDss628ILFdkZL203jMr1zMv5bHkU2LZzx9d/ezKmb5pG1jHZ7EKDPU8SnSo3oagWhFKvFqnzpRCqwkT+pLFBaWkBJc/0LYfqQKKfJ4XWovbEFeWejr8CrOyAtmdlKk0VUjP1l7wrfRBMtb6p5OpaNXPBqm321o7l87792xN/+vaeUs8ivETz35GEHPCczC3ypR+oNGI4WTKCbecKJ8ZBgbBWIxDUPGcKoWKVJnhsm4t5flTsdHmFfzSKVIkdeN81bxzkZHrdnxlnGfrtrvVxnUvxGFNJXX9C0UC8ht4sT2FV+/9kj/ixuX8YnjioSEXCpuKR36Ec/47+uSBi06l6uT9P2t0sVuCpXcKW7lAw0zW1Qx3EqaxDNfBEuMV1wTRlp0GYVRed2KfIu5PYdQrukVtz31weJNxwPfWParwp4exKNP0b3pf9Md37ZszqsjB3ZqWa0YBcrHdNtMh4mhpKU/qHSxcKm5t/Za7J3j1vgWglsoVek7B1ITgkTCnb1KnvpEDOvV5y291PhcxKxqra6++7kZi//Za8JH2RZX+zSgbnsKSUZvub2nDj98lHVw0x9fvfrIgE7NqxfxF/26VPmYwjOPFxrPYjqBjJbYw1++Vj5xPp71VKNBH3EwG//qQU1uOdxhwtP4lVtUKmeKYingnKfs6t9ejFam/nlX3/3U1O9Xbjtkhn130E9sgsWwJIzZvGgMTMEBuQc2/frFa6MHX9X+jPKFA1Ko6UA8Rj46RmZjg07p0FldL5qlsvAreVXaqKeqUOXDvlahp1TgVHWYmGS7R1SyyUwjgtnY5TYRFWPLV8HIW1J5AQKncKWG53YdMPyF975btn7PCTMEgy3+xR3TIzr5tJ+MgVF75GGI14jMUC9CWsd3rln82Zvj77vhf+fUr6CTjFRcmtN7h45/XPG4llYg8rYwEwM/MKJUtUjoHVp4dMma/6eUkDfTwljMWpObFmuUeDz9IEVbEQ1uoC+rRJVGba+4bsijz0/7fN4f67buO2GHfkx5pZ7By1CvHPXKQs8heWQrQqmcA1vXLP3qvRceu/OG/53bpHJxh8shEnHpRzxK/aQYIWMePzuHtIKoJqHFf2CUSL85hTzEr/GtgN4BFap+HEwIFhZItV/u9yKSWAXlVPGSF0pMLvkUfDzFylVv2Kpj1+tve+DxZ16Z9sm3i5av27L7wJGTBoNslXvi0J4ta5yOWt6f8syjd/e/+rJ2TWpXKBZ4lpoW3Bpt2qamNphQqOkD4wXwniCYjZ0lXEuKBBTBZ2sQvGD7y5Hic3lvFpc995ImVZAZgoDRkJQoMdJBRvLdsRTF0zlB6LyfWqh42Sq1z2h+dvvLuvfud+tdDz46dsKk16d+PHvWZ1/PmfuTq+bO+XT2R+9PfePlCU7zXLf369nlorYtGtasWCJLCZkl1rnmUdO0bBQrJQ8FxkuA9IJovq8HYOI7UiklVrFsfKsTaX6tN8dp4r0qfQqTSfhIRxmHJcYtu2taTErZ+ZyvRzIqeRarqNLR0L4ZTtUhJf1BoSpHRWt9ucN90yLFGJgSvEQjSx6SEugELxSqejQie0TPFmZiNqmRYqRES2by9WZ8m4DnE2YBynNU/CGJ9JKRV0Gnx0Lrng9pkv6gUhs3Pyf+gT1SaCV9BFrCq2USO+Th7RJ9HoINwYs5gbT4r/JllEIVD4TXGc6ilHGuIwsRjaWdWbg87hgVWW79T1iiYMitR4q0sXPnyrWfI+HZcjfp+ViIvFYTQoHBxEeOnhYxCiaEwHetFW/L6IigOSw3IX61+5Pm11liNPaoni0mbox49Vi+EEJ3Uyyw3WxManrEG8JxHsdrkpKCkDc3VeEN03lodIOYnXEJMU3mtbxHeE8L10SMxyU453MgggarGAzuQwSkR8wWhY1j1aJHXC1ZG2D7QXCkvSp9Kmw/VVvu6gmYwuicLwmNS1qEJBsHK5KSFqHQj7AgiMOVUwVxbHyLf+NSxp+vLOxb0bLG2iYwvpT8SAv9El43MYh0SosgWhZ7jBbH6OjQWULjWybuJI37kFfi9oGkScUsmBBFx/xI6PSACC10zGkG40JD+VsU7j92UUPeKqLGt8Qxg1RuJL6CdunPApW+EYaFy/IhoVKDnJB2Bht2C1LTJtYKw3aHwJCW4FzHD/hTEh9VpEK1T0EsBchPhlUqvnUQby+P5ktBoR9C6ozBwDDHLc+Ahe6kpSv0Fge/QaM7Re2W20hWvGBicP4jdHooJMGl7x23tAn1H9jCh/xg3DHaH9JHoCXDOsTt13m+cAcXe0qTIhffCcPAhHxHaNQaYKHAYOFIDVLTJ+gv0RVMzIgYo+Qhqsa3xPE+ZdEZptcuNLoKufheGCa+JTXe+DLfBQoVWRdSZ26MvNJxS6NYKsGyTqVI8SyM2EKjO8Rh4x9d9XslOy7to2k0Wxg2thePvC3Y/CaoNANGeE+POZSeENF/bGAw6keYrVb4eQpLQkwb34LVhOhXQbuFtap0+fyahAI7nEtqlPgBFvKXLDo96JpZSPrc8ZRyOCUJQl+0KbYvDasK3QObyWrHJp6Nb3E1ulpB2D6GNOmvTAoDJh6PUPrr1Mv9hyLjgZJh0RVuzAtHJjYUJzW94iV+FcuP2uSe6VMAQ2xXpLuNb4njdbdlCsEkmH0mqfKfkoaEDwoVYY6BBjDYyGygalqmFcIZJ2CBIQRg4XB90ii94m5xURNhyxA6lZgDm4EhTgGFGzmIuMBaKWrn6xRHM5Rv4bI4LSJe0SRwlLFA8WyrmZVJ7VFiPczQZJ/nxPo0iyvF2zNGVKPVVVRquREGi/WKSFQGgsvPLcgWkqUMJm4TuqoCbStK4NUX0fBKo2qLYTmUqUDhOuop0vKO1zeOJiVzIlrghhACDDZwjUPpFSo1c6+YsJZTX368dC//IBsGd1KyVnFtfAtM8NSZjSOVSYlhhTOHWe3lL+5xXnWYe7QwZCTguuapM/DjrQA+z6R+kGaEJxt3OpSu8FRYKFR6t3ic53rx0+UnUIp+CDf1y1FsvZBKHYT/RmBgFhPjSlSTj/0bljivIihtdC//i15eZSDgbo6agxdmc/fqt5Qx6YpCLwkQVwM93YI8lc7FEymXkC47xl+62TsVwViviApJaHzL59zj1DmlSp+7O4ovgylLthxouRy25eVVhlHvi7s1O39+0r3opoH1xUnNnPTxbhQJS8Md7qVfaPS8jDhv4b9SMq+pqlLhl8B5Y4g7NJoibpXwB2J0ExUSho2cM0mXmhCmkfB6yzxWDlMKD/nLveKW+2Q7eQZpmRKpNBJWGGIcPU4qpWVcLw4wGPjCuegSv57KlRv8EigSLTFtfEv8gpqS0uIhB7gMCQ+XjcWlnZN75Tss83rLPKCqpA7ZDFgmc5WFmygrc/rBB2GHJAsYQSqlY6jUWIJEY4wrXiJNlqnebL8ESkSruE3DENEPqSv0fFKkPFx+ziJdlqnym15eZSDQibqtc/3zbDHxI6mZE90N2w5NdzjcS3eIclTaDIxbdCmm0mNOwQpwlRZQ/BrfkiVxPvbJ0sh/01oc7rK0OGVJ4VWRoYf8E8KZhbOiUq0v4TOVbdd+QcbkptNtYCHJBK51mJf+ILZByjK/Kmli0VN1zqz4sD2AyfgoH90qgmkYRqhb6BQNNBru8krK8m9jUgV5pTtnMWir1zXzgHt5+x3jn7sMLiz8QkrGZB4IhCI3rp+62Ins6RtdYDFJy4GuJGBQ3NOqOnybX4xPkZVClY+IW6N+xTp0bTkGJmnJvlmMV06ML3vvOnhnwp+BQCP1vaA72XDfCM2MflKlu0MRc1hoYEMjh3dpGwqV3iNF0jDABD5t5maclBA84Q6l9avHEPQ9BaLwEtkItKKiaAeK+bubeZexmMC3LbgK4SFSwdyhNJ24z4dXmQh0Kv9LEFeYhR6kZUj1vUaAhSPbxA+lwj9q0si4HYQGC6LROzDlZNpg27DfaMndwO4InDyDguLFZsOHfwP8vphDJKsIG9+KEDaOViElqgj8OAzIWWwTbNo53BXiecUP5oUTc9XvXOBeeT6TlZFAp4bbPZ/LwRdXZEJwI9M42OHIBCaTy7m0txophCvcughyFmYC+PnOGoFHXubSsYtM9+x4U2SIuPGtyPS3SIvwDW8mi1fcM2jRbfUDj7x4h8fmH4efj4wEGtXeAyOILcxE30wIqvuGhhWG3Ghu3+4eVxrEw0J3V+EtXNGTLAMDTv488cZ2tUsXK1qifP32N4z7fi/g9z93OEQ0L3u5Q9qOCIxF2eWQQj/ChFReGb9Pua1jw0olSpSu0qjDwBe+3+HPqwwFChVeE2buoiamp3lnRXNH36bE/gFDb3N/toWa7f6GVqQqlOqoly0D94tAo/FupkperLd4+XDq4I5tuw/nwlW2YYWYDYPc3aK+KR6GGZnvhT5uUY2MWT6vco/u2X3gmMHzindhQMYClaZyFMzEnHrpWlMCBt4ca+iU9XlIMoEZxdynTMqjYa4M3CkChepmQ2KEdSO3ZfgUVdlm1JNSMzDSg6gb34pCj3z0MoU3y/w/lKsObpq2P6+8D5bMBRpdBTMEb9zI/g2l3auu+u1btGHnu8Y+1rucE9vjTBX/CNF+FOPnpXsnpYNnjEqNTBm4jTTBYf9zhy7TwVE+s2wUPWLGuAJHJgtxG4GWeGcUxaK9G5+AEQGvmMsqSbxi7vsbefxK/xeWe+nDLG9Q2tyouPt6n6u1L7t3yvz/+AT+oWGOwIovNf8PBsACb2ST4ZfGrrd0gKZMBvoLQaW2biyO71yELMAGi5Ml3PQvIwCLvMROoWpHYceYVzZ3o+fp0Oi+kM8hxk2vphipaezCe/+u98l0lmx02ZCXfth8CpziBioPzCkRU1mvaNTplMswFubrAIzhHi9pAe1gC8NCV9LEDv1DV4trlDdwbDdsSEAMG9+SNbXoiEc0H19emcj5ByyPXxXaxN1NYZdt3dzXONKWfPS5JbJqXdD3iZnLdlk+Mx+zPKl628CmprGUWs4p3wqYIcgEVp1Hsb9Z5Y5CXRg2zidVDPVzYmrkHihbarcBWCwD8rkfN8KWDobo53StULkDbno1ro+WE21KHYLN8nBo1Cv8/yjMvfD4poP7rFLTSn7T9+2JkvUvvnn09IWbTsInLcftC+Zz6QzkXEuKGj9u0dOAFUC8VGa8a7rANRIANBOMWTo9hVzED4x7Bi8oTboryITq1Ud/4V+FGcUliX5cqxoN4hL88Xy0bOZ7a8zbMQMmE7hnLAv4tkch9wC1FC4K8ozi2/e0S9Vte839L3+xcrcB+M+Bk/cbIqkVP9mlU8lv+F4HgvdaepbLyvSBW2GK45R4cy36atcphmHYmEqU5VaSYjGxiPTVweTrX8RB1vwcT17ZJuaXpsI0FWZeDiq6HTYTe/7awMbnLirK1VBIJa+KwslGLaDmVvGqLa4YMOrtb1ftyUaoWW+K/Pv1eal4LRo13wSDBRDcm/fAnZxr2oBOj8EQhYwZfGvUksUiVxXm2fU4V8Ax0UGMd1Oo1C7YssFNkViLGiqdmRNHXlkM77rJFW5UY3k3VDqTcQwVM1gAts0cdHYZz7FqbnCxnQyBKxyDWK0Wq9q8Y58Hnn3/+5XbA2eLaMn575lLcO24OEbpLeeqXGfAAFjwl4t5vSJ3VJRGVpNgQhgbC0uQtndzddvi5c3A8V7OjeZpO1XcOaUa32JucyjxeEL153gVN28YRqR6SkPzclwCi4nf1zZfk273wudvaFXR75j9JkehRCAT/WcxoIaRukUq1m11+fX3PPn6Z0v++u+47XcV3HScT46TSbvJYABPx+YDY+num4puNoMF/QiWnue4ppt7apawlGAWlpIi4fCncMVA8fK2tA5p3kkFCGBkLNBHOhCX199UejluvLJNbL2AuNexqU428kIIvksLQIaD54Y7tOrLibdd2bJK0XCF8GJKcJJfSpEyleu3PL/LjfeMfvnDr5es2X6Ay2n65jYNP/EYTdxk+KsDkR4LKvdNQP1Kxj9z99zmMFGh1FURDX0UMPGBBKngXMzPuJfwY+SK8T53QLH/YDNhxKDxLdkNbsUj+a8QfYJcxIdXMICPfeoD6W6XQ3n4qg1sKc8f5irb9zWPE1uWfTv9+RG39byiXfP6VUsXUqTK5iKlK9dudFa7S7pff+t9j4576Z1Pf/xtzZa9wXM9ZDY300PLp1SMRR89J1dw4mfkbKLLdvNh+P/DhuNjy3D53HSDYtthi/LDwFMyOKGS8iN/reMRJsOOTg4Dvaf0AywmvFsqNb7F4DtH6Ohv0O/5llbi4prrPoZ9r2VetJI8s0WZ4obZXIFVwOHkHN23Zc3ypfPmfvbRO5NfeG78UyMfG+ajHhwxctT4cc++8NIb0z7+7OsfFv365/r/9h05GZLTtuX3LWhEZWNUjofuy4o4GJ1oDLgwAt7tN1+pkdp7CX4GAlGYuIU0OZF+Ft+uSgxivAG8WIK0gLaexVcxaHyLSd1nY6EYla5+zvMqHgnhuQ1IVQJGX5PXQP5YL5lk1jHX3fbM8NmyI7sDbMsyuUP3neyvoHCMxw238a5izrWOKsOo6FTtJzC3tpe/CR80dovk0lSRqC0MC5eRJinST4J7e7IYmH5p48Z0P9wkAynU+BYDN42KGC2vxoJXzLSxpy+RHlgYmKfXU42QmQwB0+u1TEEVNInfKKRiXBL02PZwbfcujoZD1PUgnx/zDQdftHN/JE3dUUNgCgNWI1JlRfqBuXzjpBE/pvbfHfRIUelcx1l4txRqfMvRtxUnhWK03GrzvIrYhNfL+r2M5/PnSJ7+nvUvMBxepvan6Ek1w6lZnUtQBNBJf5HzFmCa2ZbvrSBN4RVhMBs7ikuTNyo1XgY+yAh9HB5TlvyTTd6JTQjXU41B41tMbuesepwKAhyJ9oswr2TUYJrTjkgP06VjHg6Vmhgw886Fwc61AeOjeqTI5g61WePtgo554r313lmUzt5DV2gJLBfx+EQCXFwdfhzMDIj1cpvDO/lsFQojhbR1YTUWgUVgtuZM1oViUsehLJNXw46C98Ai8jH/IjfXEG7Ugnl6u1udkEcamaMs7i+Kf545r7D8G/4xzxPaL96/1pjzkcao3AFxZxPPkSZT5FCNaXBjvVwHt5TC5fXup+u4pYshP7wAz85AFbhb1CPQkiWZcvCIV4+Tr0rPnQJMSzavwNznMBZ2cZ/DYafHE07xyAuXS0/w+fs8bi9mmyYctfXtLlnS73aFzlgCLvHr88DdNrqWa0pv6fXzYMtpdUvy06LltFzAMmU5cHGXY/bKQaXc/0LCDk852527v2EGqlN4Mh7Q6WmcMiWpHKzSYhmpqcaY/wCbf7zIiyEWcHL6eXyvkWFwM3KssFdubp4I0qn+UvCGPGubN1ysefmKIuQKONmuQ3I4VxeWAeC3/sVcU9prT03cp/TvG8LH2nrPbobjYFjcQ0POk+nQjM4U/p9bhervQmh1A2lxaXxMnlpTU56Ukc6rojf/BsfBtLh/tkQfLLwLNo6u4ZpC177dibCKmwZB3rjQ/Qe9+fs8KPPpDffQ1/c3dyOrpsmOaNTwB87VW/KaO/sSn3if3lafwhRliY3dpSSXE/FtsBXu+sF+cJtMm2NGmDNymWQZFoDcb26uyHFJJLvcY8BAR914fZC68ZL4MPaeD6aIqbfffee9jz/+aMYb/bPimihS3ORp24kb4SjTtPlNIXnlfXtl79Qrs4SewwpV6X7NddeHUpcVykP7w6r49GFv/j7P2cbcQ1g1uWsF4lyieITkwLThKS3DPyMbEKXHp2fRbY4lfrN88KQ1yl7xwgpPzzumafq8+cDZXL+mYcON71/cU1ec10qaiX6xVe6FL3T5q2s5VvGcClS25a39veGtLqXdQ1Wi5FVe6Vhp5HafYty8Ypsn87l1xi1NuGigq1Hc3825MMFsV96emPE/zW3oNT0++c4FE98STbm2j9yre9VTP2zN9p6DZZoGp0z+nXwc+33c5WVISqVghZ/Xf5h3XGMkpOSpmN8Huuuv+d1fbfXcDJbJc8r/4y9Z/864u2WWlKe5InDp8lClOIwsNmAxAyw+rZxXbDv4w0PnFuVjixJNEuZxC4YNm4v8y4fWpJSrlBr1nG2FYeOCyJIyiidGFql96ZCJs//YkQ1/dWrtxw9fUpWTDlrelQSJ8PFSpGmvZ75dtTewiCB7x7LZj1/dWPfEkExpKI0uH5s/ud6NQp5i3LTs17HZnmzQoQVPdvJkPtWokroXrABMvuD13wltQz5w03mtLxu7o63mpGg+hWHFare+ot9D416cPPnlp4be2KG2wvMtE4nvqjcClDzj4p4D73184rgnHnvk3usubVWnuFeWqhnWSPsVIr3Tq+v5hLKVZn/GW2TDp2YO/DTm8opBmc8IKk+Uew3INVyXXW9eliXoP129ZC0KMxb/uiuqHu7Roemqz7YMZFNoWSia9c5kuEiOQ9tHl57y/PVk8W0cp8F9ueQcX1K6Y+5jl5TzZJe46BqVa/+9jgnAzvevLklEafYu1ugeCXYzwuEyh21yjSv7cpt9VDKiPBRX8qVzKqpmgjOP/H3NqyYuOeIpkeRSeGDpbJvt/VPnxJ9v3dq6eOTbyBUfZ34LV217s0sp//xnXmJnQHNnlU+sVL5IpPJlD81am+3zf7lts/QSHEPA/8/mprljrqzuLZ5QIr7sRKPgqPUvX1qEc0ntx25sx5fHLCynfGPlny5S61z52MxVR7x5F8O0PLuy1A4P3L7eZlZz/v189NVnFIpTSeml23DqpxHnaLxLeq4VMxImRJXBT9Mtv3mTt5C8cvsBL3777zGfNAFX185mqZfOYz5pOW+h0ME/PhzRpb7uSY3GRaZlDd/xxY01eKGbvssS1kmwM7T12POdvfqklLSqba57dPrPm47Dq2zLMLwSM9ZCk8Gn7rFh2uDVkTWfjbmuVTnPnz3xSn4Vra1z1zuNSxGNesCSYP/ba8qf9ur772/hqmd3v+/5TxZvOOCf1eGFmGn5C00WD/Foe87I5yRObJ7/zohe51RRPEIhhjnFtJX7jNUE4QH4fVGQfO5dfbN6eoUGHXrdM+7NL3/dcPBUoEjkSrX8m18OaH85OBUY/A6XbXsbdfbPTOXs/vPr1x6/sV31wl5xoMf2D2h3W5qn1mDCOgNr5mPPBw8usKpKVtnazTt0H/jAuDdn/bhi455jhlgMdYUg99JWkPIK0+DobR3asuK7D56/r2e7eiV9ssaZTlUZzR0dJZiw/gMplN+uFC6dF1y8VKhMldpntrmoa5+BQx58fNwLr037+NM5Pyz8ZcW6rbsPHD1lQVzZpw7t+veP+V9Mf3ns0IFd29WvWMQ3xaLpqRFe+tfPtCCse4bxm3+v+DE3iAoxNat4uWp1m5zV5vzLuvbse+tdDz72uK96+N47bupzVaeO7Vo2rVuxmBZ4yOGqa2c0+gfiOrOxq1R+9iqaUTn4t0iiKkoUeV2BnvMzIP1sCdth4CVBvWBBgnokoB6oPCI1jFDNwPClo0vw3dTxnQxSujuaP3HdxMzEEClUYhsscd1G+wSR/jIMSNC/TxBRR3cfYd3C/0hLBkGlUjLcYOFXosTQ9jmcm7h+ZRJFj3SWkhK2/0BKMoiy6CquSheSUqHodIENW5xgYFpCyC2LzjoJS4r5aHVSkkFUfz9MMBn6UNKTQVtb7ZVDZkLoJxSdOuVIIW7WW0mg7SrRAMghcKMRTQJ5o/GA5ZIEt4X57QkI9TTlXqg+H7YthSwcq0Vq/vk2XT1dCZP6HuWnhy9OzELPfHM3hSsbLta4o34aYmrwmRuGSzI8jcsvD0F1Y9eZ936yFUtIOd24HSo8mQ3L8SaJ5uST+3B7Zq09bKkF4DTjjTfndqg65oDj6nqTQ38XIzU/3OS4X/zxKQBmNiaSdlphOuv1Y/y0aOSQid3VSMsHD8eJjj0WAzAst6+8EqScRlCNhQwwub0k0clmpOeLl+5fvRywuKyOiedPL2Ka8hlOcT5k0alzSc8P3+vcHx2TxUVHT3OYpxWWhTAkmnPPzxenoi94TT7foOO0ooiAymyG6SwyyMDxfHBSiC7b4jPPvtMSkEZNTsCCMBgc2ts8/5tUoicC/vRyLV0cy2mF0ukKwAYTdWUG/qmdL06zYAe9umtiGunpbISnmq7mxcvtcIsJxMiyMadovvjW73nXoEabOlBWetrmk9rU8uCNE7gAxLxhgsuP/G/MCvEpORgs7KyebhbF+/J3wxsmvvPUxe47AHnv82w2t4R2tQ0cvppIzQf/oUdCtTTAHKf/ziHS08W+3nyn2qD3q6sNuGqpY9Dz3PIC7Q9uCWeCCSysmS9emZ5ag4UgMHfBYzqRrqZ6eJrnvNWqlwybsY7bZprcrHWmVqG8Vi5oVHmX+3vhXE3k3s89OPLB3X4MF/XA3I3YOKA4P9DsFJSPXHgeValVr9GfrjsGfpvFmGcC4kfuzHN30qm16f5euM9i8WNj11t+uN4edsiiGE4WATufba8Rt0lVUmEkuYFDyS3bpPOQ5774yzMxFduzjfkJh2Xn5bVpGZ2u4S55CNOOGz2u+eDbX4EBDiEdHQP+ebtfPc+/gt7xQyqKErMhlwadRbEqTS++6dG3vlm9j/lOoceVCCy4ZBuvlXd2yluXYTAZY0EPs1NPlyRFpXxytVpk0jPcPAK4aaPmLn/33ouq6SFEnaryYyL1GeUtpxRfpboqYACl/GBwQ5x/0Yp1W/+v30MvfPDjyv+O2/AoyztRbLCQ7+gx7B2SxzZxr9LrXAA+twVgv1nH86zIF99e8YhjEayr7f00Azi+cdEHT93Xt0uHVo1qVipbPCvqMy5cqmLNM9te0r3//WOnzPjm5793HMqBn7JNgfBC5MFWX+n+Rh5bS4/bBma5Pl5rwn3ognxzNHDcZE151/aVYjlH927/d/WyBV/PnPrKhFEPP3DXHQP79unR5YqLOrQ7+6ymZzTwU42aNj2zeeu27TtefuXVvfsPeuCxcS++8f5nP/6+ZtOuwzlBZ+zGe8M78X6xfUPsNLc5kZ6HasX/cRd+8vg7nqnNV4DLP0d9B5LnFGdatvCB2kaunzJtW+g4PafiO2UnMPkzXYVlAVOq5KEGjeodQQ732FrcvwSR+8dIfjrKHvCzSPoV7/SYvFPSMQ0jYH5NLOTh2pbPURr8IfpPxCn66RmawJFhhYm0vHQMR8C/41uSx0f++vIzrKjlFJhkhejEovhvbB3kkJZXGtvNfO5i3dPjWz47NBrlBpQXfF0e2zGs60d5ZZG3m/P0CTvffdWQ+5MLeYLBBP66pVAeaVA1zeM/P157Kw1rYrVqN96VtxZ9589rlQ7CyhsWMHCGnU/VckuUlALrRaOrYdt5xeIJ5uTUNkRUkL2M8B0NQl5R4o+F/csUYG9UaQyYlXcsriHbcTjSpwDbqNA9gIH06UvOW5Z7Xj6/OBVoGy/ZByPt++Kq+5sWHOfPbyxb8D0az0pfeobdksa3Mct0L9rBT2+ryVXiLPBeqP9OjyFdh2vCURveuKYcV43TE0aB9kaFSj1nA6ZrSMPhWgCyl448t1CQS8G3Y9NppmOwXId0W6yP3bNuqUPhu+QouP5FjajR69mAZXJNzKTFcLlGou1Vz19ROuTHLSoA38kx1Hzob667LpbOHBiDN/OJHbNub0y+uc8CeYPa+eMjKe0gq1VoADix9ImOJUPnPgvYg6EqA384xTnY3Ka0tC3nz5eursFLdpUK/JXmOtS6be5xVzZxm5AGHBjXmLPB5T3Nv9+4oR4/dH81MTBXNi5jV63325vBb7Ji/jNSOwbK/mPyDWdQQOYzMeDA5e8Kn3Pv5zvhKsvgEngptivjTtQ2+eQcDix+5qpaBYjb0tig1Eq0GTTtrxxvN88Wv2sq+AWfmuP9Zq95/54O5T3bCrYzn9EOsMG/GL3O1c98v9nwG0WDzVhsf4XBk+80bd7v+i9Hd6vNXT6loDo95x1gTMChRCowVU+nCoUbdntkxqqj4JVtGqbPr8RpX9syDW8f1sdWfTy8c13dm5xTCqLlY2AmTS9aunSJooXUmORJPUdfue11Yz76fVeOj3SzAjqGZmDRpOM8PUzb4NXxdV9MuKl9VY+c1guek3OKf3gla7fpcfvjL8+c/+uf6zbt3PXfzt17d675buJVJWNxej4VF0rUa9/38de/+GPbMV+RxyXKDI/UtJkEZduWZbpHavnI1uztP3/41E3nVtfIk5orcParqD6SRKt6zjUPvzF3xa5TCFC5G759dsCFdUqqsUo9+o0Rq2rLTgNHvv7pvBVbD3rON1BwhlAhB/9wYueKb98ZdeMFdYp5M78F0RlP1SuvCte7/K4pP673SWKZOTlc5XPrvwVTBneoHO8xjfqpQhXqtLio1x0Pj39l+pcLV6zfeeSUIZgjZTlHd234c8nnbz39wI2dzqpZ3DfxWABZRBanHGHZtgNfmb85F95/DHNzcizuELbOefLaZiV9Cp5UJdaFdaFyi1klyldv2KJtx85X9+53650PjHiUV8MfuH/w4AG9u11+QZvmdSqULBQo9tNveEqBSnUsKnH2bW/+vB8+FbIsyzDhqr2Lnr+uaRG+eD6lRI/CD/OPk3YR/IeaviWOVgBSTMZJlKqdRn27A96XdGzmbS/PXj99cNuyfMFTylfo5AchqYVRYQdfmqZRRye9YKOcTOW2dZv463Ffv/B0R4N1b/VtrHorPWTG9wFd+Ecb53lQYOHi7lfq0mcWHvN7jZB3sQHs+2xQCzXzrs+p0kI84IRUUNGyDDW65dPd/Da3mQZw7tz+/0zpXDYzf6VPoyuBmc6PFUTsr7R7YpkJwHa3wWOzDADbJl+keTKpmbgquhX4zFkKGlyKXPL8P+DbGeXCA7z+T3zUuWhG366LRlNxEpMLEH6HE3/nv7zVlYxc5pMBXhMDVj7oNkXMh5ux43YYJm4sIFgU3fHX5LGVAGy+M8KAkRjj2yu9JWoZPS6DbeFARVIKBsIu1OdH5rrY/P4eAiwG+/22dDownwaVzofNDDyT36/xM7GpOWITAJ/9A1w/bOqtWUGZ/qoLLGZje7ECAB+tp53wc/EnC/i9PV9adhoAnUbDgLOcS2o+f3lZm1kADD7/GUSO63DXdNpwj/zjrJiJbvn4VjfCNZgOMJP3H4L2nU+nD5Eyix6GCeaszs+/XykaFR1nhDQBLu1pSFl0+kAXAsylvWVJyb937bE1/HjVGGwcPY0gRac2/LdJycVLpOXTk05lPghvApfh6UZZpxNPtFyOLOwrl0+vKwr9by8sK6wJcNzeJf004p/jZ8GRzdApn15XiR7zdw1lyalH6mnDP8cXrYZtu2Tjjnx60ijrc9H5Apj4htTTBR9nzHSfaC5ZeCjfnoou5aMeRPB85h8l+Rp3tZ81YFueSsOPk5pPv7XkcuTCITG8lfFDdUstW76dDZjMU2l4UD49KaQsRa7rTQg2NmeRkuHnP6lYrznwmpiB3K6kUT69/o6XBLVRlKVk9H23nTtxO/g6xK43C6sak0759J56wWTi5B7YLZRxJyR8mrjW241eBcD0mJgBTFby60mhEttgQZjAHCeMdmKsmlFv48Mt1+W1f1zOGzZn4py2dKF8/Or0j8JwScZi45d2GXOzEIrKP5AKtR706QGfxmU5m2UCk4qQplB+vSq+AzaTAfCNBL7dwC3IUTJcv572rQu3HDSDG+uuxTcu6zNz1gVtedf8+u3XwJRDXCw1GYw325DroGaqfj2PoKqXPfzpFgBg3v6QfEz/9ibXNR8f78J0SNLCO2LJoBqUeXYgpviM76bMObe8uuyYzzauuUY/09HhWY44pXx9tRKWHAR0Inbih/ubkmdTJrkvlWt765TFe/l6dn5zNPA3PV3Fb6/8+r1L7YLtQK7Bcr2zlZOvrenZpCoZW65T9+5btEHnB95eegABUzPwcXFNJnD82arkVp7I50eZvQ4imGuE6Trg5G8v9qrrN8asjKp4zC89XKzOJYMm/7Q9FwGjzQn1ZDr0fPUoOm9T86M3rHcQ1exILDgqZ83UO88v5zuGv4xGPKr+Q+LVK7e57pH3fvkv12+0cX6lZAjwbwMbHiwfSfG+RqTkP3v5CCZY1BPlwoHFUwZ3rO5XDqQqmYZ41P3LF4vXveCGkW//tMFnEPOefcFY+Ez/L/2yOFMErl2uITXfGZdxbwFFN7p/bpMNV53469MxPZqVpMwgOIVPxPnXNtHKNb7g+uGvfrVsR66Xa2ZAWi6UC+f/8NvnR9SNt+62/XhR/vNGlT71fcs6sp+xfbyyXT+/P/qG86ppfhXE3V/JU4VjYF5cq9Dowt73Pffh/LUHLPhOC8OyPWm58Nz0jJhw2d2V3MdZNJ0sVf8B/yj50Z7LbuaWOEyjxDINryg4/u9PbzzQo131oj7yghcgSl4kG73jyw14+JSqftYlve8dP/Wb3zYdtAC/HGeIPKfA/iaAbZPOc1mmRpNep55HgLGk5UN7pDrbkcskGgTjd9Dcb3Bi668fP33HFc0rFfJNb7gJPVVJ/zlMPcR/GlmlajY/v/ttj0+etWjtzhPwUxwrLG+Ok2OvHJdDH3YtGt14TnQqNAWwzIaOl/zopeIST/NzcZlblzdn6lf/9eiWXz596cE+HRuW1/zrPaVDkan4iMWw2ekSleu36XTdXWNemfnjHxsPnPRlHOMScZ7spjye+v3fu3/29eU9/iNybbcOVg6munq+9EJjActyDbGbvCCfpIFXmfv/nf/BM3f17Ni8aomgjBs/wu1UHt+2Ejz07rDiWy9evnbz9p163/7Q+Fc//HrJ2h2HDSAwCedNw4Vgo5RwLe6drH0zepXjsu4R9twzCjBs5NZzfOdLK5Wo5QLACvQQq1Sem8wzLNvvcE7sWLN49isj7+jRvnGVoqEqHnBFUbErZ1OChKEu4eTUYuVrNGzR7tKr+w56cMyLUz9b8Mc//x3OCeQMs03D8KbgvOIx0op0/0zuXJZ7cigRPvVa/gZYMDCM1/OrHTsvCRwWW3wFpmGatn9S6MjOtT/P/fClkUN6X9G2YeWSWrhq6J6soLDSHRV8dJJkrVakVPmqdZq07nBZt94D7nxozLOvffjFjz+v2rjzwHHfdFvQ7OkM3wnUgUXNEU9JGY7MH3G2GvHroKpKRScCBnNoYf524/FOxOw636+t35hPcp4vWLNMrjoB/JV1ZMc/v38/842Jjwy5oXOHFvUqFtPj8hzIKlKsZNlK1euc0ezs8y7qdPV1Awff/8jYiS+/OX3WVz/9unLdZlcihr3Y3BUKN0U6sHhMo5zbxp3B2ld7VIn+3XWHS1dtAUx3dbI+75Zv7ejGzrbvHOQd/A3xF5m2K4g4FeKFpJyju/9dvuj7Lz56e9LTI4cOvuXWfn2vu/barl08qus1Pa91Ve++N/a9sd+ttwy+6+5hDz4ycuS4cRNffOHV19587+NP53w3b/Gvy1ev27ht1/5DR09kG2LX080v+013LlgqxvQLhXi2bf7w9qaKtz2zaE11PuFcYTN05t7Jzvc2VAj4Shap9oFRfIQmn4yy7LieoG155LJhGJxADCERU+QJYXtfotoye3CrwrFoFMg56qyHT8Cy3NOycLeX8reD4b6SxR3fnOArVYZ9RyV1Enyc2OQSff5SzbRCKdNzaB4VNC1MTg7yigUpsBT9kA5+707lrJk26Gx+m0+4Uf4I3fAvXx8GzMQ4Z2v+t/LJCNW4+YPNvq3VhdqUosIzjIqX4EuV1JzXLw4seb5PPYV/Oqnx6HT64iVc5Qm+n7GX+Qqq+ekOhc8d/v0euMrn1RVkbIoTXf5+j614987zfb6kQ1yS400/AUxnL8aZ36YMHhl9V8ZlOgydvSmoATuWifnl97U8bxis+GjYpdW8zFXiU3jQ+HULtgWObAuv5rcTkV9FyUJNe0/48b/gtuwyo/AYC9gXOxe+crt3ItXeevux8fGuyb3Ixd0RFsM4f8pfD9ZbolO81U2TFu1kniSe4e6aueRMGbzhGabtOZTdv743vEezEn5+Y/ZXcrP3bP61U85mAg+Q4kv58D/jzS6VbHbV4zP/PBzQdhS3K8sowuMrjnk5cXLz/Hcf7t6sNMW0cX3FLSw47wPm85K8YzNwqrvPDxUIeKWK5/QfO+P3naZfcFzmNM9O5zGfZJxl+jeEcWLTzx+M6XduDW/7PW6jY7Gs86L2WgA/E4NtYkMT0gsQ5jmua972W864dNCEz1fszPYRGBYvMPPIlJ57bX2ko+ErHnFyx8o5k4dee06NwnFvjlpxH1vl71sH2J6X4z3eZpTwoYKIXalE7Q69hr369crdJ4PfQrZckZmnpPYYWPBLS/BTp/aumffRM0O6t61Zwr89RFWJdXXis188CJiWn4kZYHeR3KYg8ttrWvgO6ahErVZdbh315lfLNx80QzRD5Ss002eijyHoA89YJpd+C+yA+8TOtYtmvzby1q6t65RS/LPsTnix5rjb0GnpAQsQZHJdV7QinzMuqNhVUYOaTC9Svv653W57dNKMH5dv2XcCCBSaphyxmQbeO+Jyl0bYF78P7fh78ZfvPvvIoJ4XNatS0veKK55Gc1KjDnGbl/cAzLR5pnnDxGgS81bwkDsNLsrOKler6YVXDxw24Z0vl/617XBumMInV3B63jH0vloYzxd7GMJ8FCOvPPR54ZEr8kMYZZ7cv/Xv3+d99u7zI27vdWnLepWLhciVc+IxlWoP17v3Z3//gGegfz+3Du+tICSlF1xjXClavt5Z5195w+Dh41/7aO7SvzbvOWaJyDXbK8H8X5q2gpQdSgm9fO137LaQ5GXZh/dsXb9y6fefvT9l3PDBN3a9sPUZVUsXUcM8E8K1upoa+1ca8E2O49+/1Q5+6CeHBudvueat3QCGK0UqXLZagxbnXdrtupvvfWz8y1Nnz13w+5oN2/ceOHIix0L8lZVz4siBXZvX/fnrgu++mPHulOeefPSB22+4+orzWzWqVblM0XD1HbgLGCwaU9ClXI+PDwf5537AsoC3KlFwba+CIaHJZVZVJWzxdeHiZSvXqNe4xTnnXXxlj+tvHnT30BEjn3zmhclvvPvBzM+//mHevJ9/+fnX5cv/+POvv1b//e/69Zu2btmyY9fOXf9tcZRzHOv/+ctRK/9Yvnz5Lz//suCHrz+f+cHUNya/MOHJkSOG3jPo5n59enS74oK2LZvUr1GpdNEsVTRtqnvTbkq6eCGr0nUz9gc2O8sdgGUC350TzrVgSWzyHU7wbcFH8z+empWlFy5WtGiJUqVKlShatGixQlnOkbgnJPnsVZ8G530+P0+aeuG9av9P3P0t0+a2BZlWdOfeByqQU1y/OQEd5/ByVHWVwinZJ6AGHL73FOQdfzoIV3WvYcthPx7j9rfd/GfwGETW93flPRWYqliJvDQVbtkrJ/0Nj4vrP8BkAX/f6g6YhgpQVd62rfA5D369z5WJpuWKRSDAZDqmlf215I9J5bfRGQPf94yh2wps6Ix5aqXit96U8DEpfDkZUb1rXlplAmDe3Gegf9sAMPfKZI9J1TytyDYb+NbqHG9JWQgXb9iHX2mR4DEpmic5V7rdfTM2sjCZz+B/IrH+wcquZE3kZDy9fos0veGFBT69ILkCkSGMi23awIkZXXTHv5rA8eupWqrV6zZ6zhYG33IyhpAuFoDl99fkPklSMmdfKnVW7/Ffr+dKyeDtpw0Qcdn66vlUsBW2oqmKklmE57NvodoX3PnGkj0+vbNxflno3sgsw3XZ9dYVRQu6/HtjtE+bCnl5eLrPe4VF61x618s/bDwFPjVn8G8iMoE+NCyTuS7vdS9JfGlZgRa1HHBhvdKFAv6D82mxKu9MyPlkGvVK5/R8+M3523PAKdub8RTq5dUyTW48Wi9eVsJ10ajAS1V8bjewb9V37z03/Jau7c6oVDhEakfLk3KqiupeUb9UbOEaZ1/z0Os/rT8C777e4nyxbTa/7cSSR1qrBWEuPjLi4vHL4VHm4f9WzZv5ysjbe3RsVt3TL4RvTlXnkntpXzr6ZxQLV2nVZfDEmb9sOx48jQow0X4ULX6bvfq1a6tzScICMhdvxe9a/T7cykX7gB5t1i39/M1x99142dn1yxcOUcrkza2mPbmpuMLRLRT0vzyFKje9qO/wyZ/+tumYj/Cz+GbpGXi/gsk5w+KY9O/Htzfhm09UqUBNqZwMKXbh2IWu1GC52TmGETRev9wjW1f8OGPSY04vEq3qViwSLsEU0I5fupCMWuC/FoUrNTq/x6An3pzz2+ZjdkAPkBb/6iGTNHgavu+fP9+6qYlGXO5TKcBrlaXaNVNW53LVBpzF9vTIbAb1JJhzYNtfi+e8P3nsAwN7XHZus9oVShYKLa00LbjhP4XiO+Tu8C2vFilTo/mFV9/+2Msf/7By60Ff4W+bpuEvHwX9gk/NmZ6x03w3rkdd4rcFhlsQFyzV7Tnp95P8JtP27QfV9AiWQBGSe2TXxlW/fDfzzedGDb39hm4XtWlWr2qZwqqoeAvVmKnE4XerokV3evHK9Vt0cHoXGjHh7c8Wr9q8Pzu4T1o3GSetO0fPRfeb68+uRS/3a14i9LYCvGCpxtUTlh4NrkrOGC83fNJ7boovXD9fR/f998/yxd998eFbk8Y/PnRw/55dLj6vVZO6NaqUL12sUHwc1ULFSpWrVK12k3M6Xtlr4N0jnnrprRlz5v/21+bdh7MRpGxexFu2HSgdJWU7TU9ydtNX425oXpI/Z99SuALETVU6Pfn9dt/xArq7+ufMgkd5axiuLLJshFbmqaP7d23bsHbVbwu/m/PpjPffeX3y88+MHTl86D133DHo5v439e/du881XbsFqp69b7zp5kGD77t/+IjRY8ZPfOn1qR99OvenJX+sXrth6859h0/khhR6tmUFdI4dcNEkpuVMz6HuXTb94c51C/s0EFEg+d6exr/KUqx53xcXeOcgb4SrCRVactq+3UHzScM4948ffhjwkH6uzC8pZ4FXh/+cOapXizKhJjBcQLmJT8GUaXfHm8sOBdQ0Zwgn+OTITztkZ9I+gi7k4LtDHKZfp9WiXfFLvTSB4Vk7f31/ZO82lTw8cKthFLA25UkVzhsw4duN2d6Xjn3KyiOXT9IVWEwHI+kmWeFR+//+ZtKdnRsVJ9/EXEFsoy6eUYnUuezeNxfvZP5V0PkCtXQ9GEnDLyEHc++fX71wz5XNy3mlYnC9jIJXrz4F3CXOvPLuyd+uOxKmoicDS5NjkTR8/1C19v/9w1uP972oYWm/tGz0ZfkFi/9ZeguQtEptrntk6qJNh8MPcpKlB+HI4FNrzQiq9nFs2x9fTH6438VNyqoB4SkFyf3ThEv4ZFVq3uXOCTN/2XoiqJ6Vbx0GMJbiQ5FkAWOR/HvRrBdH3NSpRZVivtfRLRwrkA4vzLvWvg3BtOp882Ovf75s8xF/ucQlqDxCM47F9QwsVPUz07KDzit3/8Y/5r737ND+V55Tt5RC/vKxwCEhlwc3tEdUpMKZHXveOWrKJwv+2nE0WB7avCTz1oUIO0jA0LIwuDqG7ynYIeRu7uGd637+evpzjw7qeUmr2mULh2kGUUkEdA2hB5WPF6/WpH2XG+8aM2n61z+v2X7opCFSvuVTH8wIpXykqkiG1jp1ZOf65Yu+mv7y2Pv6X3VRy/pVSgTnnflEnJJI6NNGDZVwUouVrXFGq/P/1+e2oU+8+Pr02V/P+3XV+i279h85kSs5U8pyTxzet3Pbhr9+m//1rGmvPjt62JC+3Tq2ObNW+eJZIcr3XNEoJByTCiJTFyicUouUKl+5ep0GZ7Y698LLu3bv2fP6fv1uvXXwPXf7qnsG33pL3769el3V9crLLzqvddMGdapXKleqqC6SJ3ZPM0EhGsWbr+FapImJJFO8QtjbtE1Cpj9UJXCUgJoeSoVobVChxJX6f//xfzFAVlA4INI1AAAwcAGdASqwBKACPm00lkekIyIhKLFJmIANiU3cLjnJf8A/AD9BfbvQF4A/QD+efeAf/CeydgD+AfgB+xX929Sf4f+EfgB+gHOAfgB+AHh/pp7H/lMX4B+AF2TLz9//sX+U/2P+B///o+e+6v/Xf2U/uH7L+g7oX6d/aP7X/j/7H+xfyb/432zfOfafnteT/rX+6/yf47/M3+zf8H/Of4z4A/xb+//7z/A/vx9AH8U/mf+0/wf+Z/Zz4yfUP/fv95/4P8L7gP53/eP/f/i/3//+31af47/h/939//kp/gP95/vf7J/jv//9AX9f/x//l7Af93vYB/nH+P/6n5//GZ/8f9n+////+zP+mf7v9rf+R8jv9O/yn/9/3H+/+AD/6e1H/AP+//////7gHrX9A/4N+AH4AftT3+FTEwEu2Al2wEu2AljduQcfZ8thcZbEwEu2Al2wEu2Al2wEu2Al2wEu2Al2wEu2Al2wEu2Al2vxXsZwSF52sY1rJgdZMDrJgdZMDrJgdZMDrJgdZMDrJgdZMDrJgdZMDrJgdNcmir+WwuMtiYCXbAS7YCXbAS7YCXbAS7YCXbAS7YCXbAS7YCXbASrY7dDfgOsF89fy2FxlsTAS7YCXbAS7YCXbAS7YCXbAS7YCXbAS7YCXbAS7YB7DdwFldfZ3F5gASNEBQaHiImKiyvs7i8wAJGiAoNDxETFRZX2dxeYAEjRAUGh4iJiosr7O4vMAesmB1kwOsmB1kwM4D/cwh0MdRnskhDoY6jPZJCHQx1GeySEOhjqM9kkIdDHUZ7JIQ6GOoz2SQh0MdRnskhDoY6jPZJCHRPWwuMtiYCXbAS6c8qThTrWTA6yYHWTA6yYHWTA6yYHWTA6yYHWTA6yYHWTA6yYHWTA6wp5frz+gq/lsLjLYmAl2wEu2Al2wEu2Al2wEu2Al2wEu2Al2wEu2Al2vuPmjzjjl+KB7GtZMDrJgdZMDrJgdZMDrJgdZMDrJgdZMDrJgdZMDrJgdZL89aUrYQTSXk86rM4+aVD++3szyrk37GNayYHWTA6yYHWTA6yYHWTA6yYHWTA6yYHWS+dhDR6v+Jemk1kL7fTyXjHUZ7JIQ6GOoz2SQh0MdRnskhDoY6jPZJCHQx1GeySEOhjqM9kkIdDHUZ7JIQ6GOoz2SWbWMa1kwOsMTdO3SRJ9x7UQ0FF6U1gJBAIIposOVhfR51qBxxZE/sjcW6r4uawCtr8rC+jzrUBjLYmAl2vvzyiPVw7D4kXLFqXLzM5cYNiImKiyvs7i8wAJGiAoNDxETFRZX2dxeYAEjRAUGh4iJiosr7O4vMACRogKDQ8RExUpjaxjWsl+etH1wwYKB4OlnA+mn8tzVY9CHQx1GeySEOhjqM9kkIdDHUZ7JIQ6GOoz2SQh0MdRnskhDoY6jPZJCHQx1GeySEOhjqM9kkIdE9bC4y2Jfo8n+xU/gvaPKlrbf6EjRAUGh4iJiosr7O4vMACRogKDQ8RExUWV9ncXmABI0QFBoeIiYqLK+zuLzAAkaICg0lueVcm/YtEunMuv9XNUJ8RcbvQHSJhdR8ZZmbHT5gASNEBRlmZsdPlt1cbbCDpQaHiJonT5gASNEBQaHiImaZ9AYgOlBoeIiYqLOshI1Dcm/YxrWHuaaU7E2PpqdO0OcB4x8QHKYHWTA6yYGdqhwOvGNayYHWTA6yYHWTA6yYHWTA6yYHWS+kUM86Gxu2dQ5wGLX2zkHUBbCsz1/LYXGWxK1gDxmSb9jGtZMDrJgdZMDrJgdZMDrJgdZMDpXQLOmuf2ptGZzUZrTidVGwuMtiYCXa/RY0i3gl2wEu2Al2wEu2Al2wEu2Al2wEu2Al1c9JRKL8bqSM6lbtPjWHQfjrJgdZMDpr/myuPhybENqbsMN3pglstH6s8Bt4hb1nzoy0W23hZcXcwLiNB0kHrJoGRPnaUOsmB1kwOsl9b22pH0/CHF4LWQQjxeO/UL32HJ6/lsLjLYlawB4q4wZ2MwwqbakgmUDV1+duTEyimnfhTY6snJSGG1zTFsLjLYmAl2vx/KOz1O/+rZ7Nmhbn/UTMQHSg0PERMVFlfZ3F5f/+/mdKZ3iea8nozbaxNN7GGCwadRqLO1g6tqatrYSaksVCOeaMoO64qPzyrk37GNayTFAHnnhqZvseQeXMJ0+YAEiLHhVgptW9QjeoQ6M5Kk+bz1EY6jBy0QgBIFec6L/6OZpWNTcptmnrc6TcrDZoHoHMBzEwEu2AlWx3FtaM+xdQVh66XQi9du5f2wqpd6OG//lbRDo8qZYKou6zkWOFw1vVMfLYUUy67qSrpAi1+Bb76ONPbncWyx2APGZJNVz5vWQOsY1rJfZiD1foU26GOo9ETp6yrK1PxKVnYWoqrmZqg1LbWgc8W9NdsIA6xH7X0/oFe3stYdGMZWnthvrukbN9Lso+gU1rBbcJ3m2m62FFNRjWsmBoNqhvZUULv9/Kiyvs7i49hokMoW2LEHwWfwZtbGAXvuiLPZtLofqbMyqLSjofrHFPyVuZKBPstMzKbuumjHpFNYCCDIjBqvPsOwfjrJgdL1H5RNqSh/o4k4hjmzxjSqteT/93F5fqVBlkWex4Ud06FqIqPRE6evkQdKClhrubKvbO7S8/whv5aqxq5+96r+yr1EIthcZbEwEIDR6sSh/WywQrujanMmdJnZ/p0ePUzzaMTYEJa7YLlZ0lpfg8CWMer8X2YBPvIN6PG8TNMHXJ57f3o1HbDsI7H1suMtiYCXamDDUoK4t8KObtCRogKDQ8RC8PE+NGhC+QFA6MhKGIQZMPGnFSSEOhFIOK6WWo1j01qQt37qHxkZ7qkA3tKUKm2pFr5VarV+/hSrk37GNaauNWhtdoSNEBQaHh++AO/4pr9OaVXcCc1Q67W/GkIdDHUYBBRnkHn1Lzq3GV6FvK6p1s+lymxJEajeRJr5sha014mAl2wEupnxivXVyKFjvgwQE9fkkbTh/bwiP6pRDIdbkN5VyUITs95NxuR3g24TFI6Ee5pYWLVkU+WttBD/VkEm0Wn5JYf8aPOCDp5PSxiakKdZlsTAS7YCEBo4uJmIDpQaHiIepPHVZzGSPKYHWGJu4scxugqcq5N+xjWsmB1kwOsnpbWeVcm/YxrWSheOp4dPzNv5bC3wLrEpDGljGtZMDrDE3Tt0kSfedLWsmB1kwOsmB1kwOsmB1kwOsmB1kwMrrk2AucjRAUGh4iJid4AzC14mAl2wEH+k6NOHOg/FV1jGtZMDrJgdZMDrJgdZMDrJgdZMDrJfYPoPGmhPGtZMDtO4FnIxfpQmB1kwOsS15+MxtYxrWTA6yYHWTA6yYHWTA6yYHSkb1fEPum2Xf1kp+o5QBJU2Pg4qZs5W8Nio7Hn2Mam7xfnlXJv2Ma1kwOsmB1kwOsmB1kwOsmB1iAiGAeNJnN+RhSWRZ7NqinjsBLqhHCmYmC0fLYXGWxMBLtgJdsBLtgJdsBLtgJdsBK2wGd8JheTQBJWmwuMtiV+XZkJGiAfNgL7EI3PyYthcZbEwEu2Al2wEu2Al2wEu2Al2wD4alrvPM4QhsAOGV9ncXmABI0OtrmPWMu+JeVaaTMk26UlPWV9ncXmABI0QFBoeIiYqLK+zuLzAAkaICg0PERMVFlfZ3F5gASNQ3DgtzTos/k7i8v8ZzOWyKdeBqaFz3P2Ohb0t4cAqlxRC+1uzhstm19ncXmAX8/SU/UwAJGsUqLK/sI0QFGWZmx1XMvNz/QOnzAL+fpKfqYAEjXeZ6/liKKM6CV/2EswAJGiAoNCYrTLkOj0K5BliWhtlnmXYxsjrAdrPypzDIzLCVr4ZAqw2NsHGNvUMZbEsySU0VdGlASMoTHtsybbjHOJe1dMzY6fMf2DTipJCHQx1GeySEOhjqM9kkIdDHUZ7JIQ6GOoz2SQh0MdRnskhDoY6jPZJCHQx1GeyRQAD99XgABt78sYiaacfG7AJM+9AAAAAAAAAAAj+rXdVF+jA6dUpsj7jM/M9Gii/cBb6v76Lfd6PIG7+s+0BaNMIr1htrQAAAAAAAAAABugu8Ssdl6RGooZYK1eLb7U+uwAAAAAAAAAAFB4EANafIwOnVLHpjFweJRnoM7CUUzmmVsC2AAAAAAAAAADNPlxJtKJHoXYpgD/+oH8VTo9w4fXXxj0zLEwTSnTF4k6iGs64c9nb0AvuyjU0SRWwGYXkKw+MyFBfdlGpokitgMwvIVh8ZkKC+7KLAAC2juMORRMDsohxeE0ye4fIAZmCaijfUytvC9IKurAvvBD3pVio4+PWsQjPQzxXnGlevrxO1tsTcebhnTkP7B4SgVTRt31/7E3Hm4Z05D+weEoFU0bd9f+xNx5uGdOQ/sHhKBVNG3fX/sTcebhnTkP7B4SgVTRt31/7E3Hm4Z05D+weEoFU0bd9f+xNx5uGbwABZDZlm2/AaUK8HbBoYWfpAfLEEfrwHY2vO1EbPaFBzGnThqEL+YRDUyLnoQKLO4S21o6Xy2fCE93uelDtigAAAAAAAAAAAAAAAAAAAABFaWVVHUqP4jhQLblayhQuU6jmb0h4sjQTjfrFaG8IC1mPzkEqloqAen15IOysp0R0nlzmpA5InTn8hPVcsAdc+Z3cuQz+1vHnON0B9uHUAAAAAAAAAAj1LUj5m6TNfoacCSl0p8OCTgJHNLDUWzNWkUe/spMCfYoQMGqfklwQRyqfV96fdpX16Ag4ZaOFmMhHFlL3gxrs01FeC+3QGU1xgpwPliWAAAAAAAAABQwCxu+27hFOnFIc9dcDN7ztAHnqoHjmQicfJUSg6nR9lo26K5EraR7ylALRcDn5eeAlDifZmcNbqO9qSMT9FkmPiryy48q5Wf23OPRLy2MipXWsvqYFp8Rm15d6u/aV1cmJ+mdVEUqYO13zK56VCLag9BG15Zg3Gnmtge8CJEgdEPwedt32KpMQSDGRRqSK/v9x42kt5+H+KoQ5RWolEj3O+j2gonZM3GBYAAAAAAAADVEw3hPkciH8iXi958kcKIfXabZ48bTD8wszVdUhYtkMoC1FA1jx5pkr5PTABDUvtD3/UoWkRammAMl2BFcpWGJ+tgZBbkRPcuPydeNBCmKAbs3WcsvK5Dhp5IYplRFLCL8JkN/ChOlYbP/OnrNvTXZgY6l+JgDZNJ1ixCRHcuPfoWzZndz16OSUKCc3Q5NiMaGIIlf9aVgJzBZgpNEG4iK+okpdKm4K3VLpDDynZGCPQG5gII3ZS1BZka0PNd2QegojkDfKnTTkpYmKHhz29Kro05CUc7dYIEp3qYr0NkouWdnZ578CWnJSxMUPDnt6VXRpyEo526wQJTvUxXobJRcs7Ozz34EtOSliYoeHPb0qujTkJRzt1ggSnepivQ2Si5Z2dnnvwJaclLExQ8Oe3pVdGnISjnbrBAlO9TFehslFqwDHV6/UfdSWo+JT++6xsou4inY4AAQ3j3fFH/nHLjklfK1zU/nAbCVC1unrTXmz9613YrNOLEQ+Q0hQfdPv6n1BtCbLoeDDBojzmSRRqg2obR5xBY0+vj3bagPb/wt/4pyzlwjPtHvKFMnzE1KAfr2f7f9S1t1haK0u82E8OjN/Xp3Y9Zgx/PbJzHckJR/TqDsBw/dyvqJuxKzbGYbRrOJhLkWpMGyFBdevY9gAAAAAAAAAAAAAAAAEr4Ig4zNLddaL5g+mG2S6GZ0ccbJDd5CSqIVkJ1kjRCQBAPDkH6wsFxM5KMyJJ4A1403IkvTFguZbGYgtrvg7KKkPp9EZ6bmA73y18mSGhZ+dD4bZe0EFBJCScxuU6jmbypZSntCj0wIRAm78Bqi86MwEU1qSTcoUhpTEWbTKWc54CdMIbrXYeL9WhUztFR/bKt+bDbZODbJ7b8kp41w2naDVBgMiunT85bYFdraOdNcGP85bYFdraOdNcGP85bYFdraOdNcGP85bYFdraOdNcGP85bYFdraOdNcGP85bX7AR8Asbvtu4RTpxSHRE7hYbseCBqncqrbBM7omEFl8ZGs7MdRW4qPJJxo6AGxY9CWWICOnJ+yl7r1DZA17BfboDizz0KyB37LNQSTR+IVjy/gcaivDN4ls+kdfovGfu6EHD3CW+aHGIwtbL98xjeDwlTuPCedd3b+Kn4fRj3W/mX3YpqvVbjARHZ8YEnYg6ZdJLaVzZEvN4yFKnQId7L5QrOckXNdZ0Dmj45fLe9cOAEST7abpw8pn35u7dxQOHP7ujpwWfrZMqDeOWBzR8cvlveuHACJJ9tN04eUz783du4lQHiyPNZa3pHz2x7BBCh8kJhMWnTTc7myFpo4TZWVWUPF0HK0WhE8cCox/PTemxVnjyVmmXTLPKvfcBrkpVo7Xsv/jRLcvt7PgEvjUpA5kEbtWvKs6TbIdwOrE19B7ijb0yZ74mPhamyXVj8DrffgUcmYG4M3k6SNoQydg0Qb2lmkiarQazCImqzSRNVmkiarNJE1WaSJqs0kTVZpImqzSRNVmkiarNJE1WaSIcD0jKAAPqC+ZuOFF4gwipIeynF3ZjIt0ONdosjV4u+AmQvCE6spqdCoYMI7VoJHrhfkIsxDOX2S1J1CFEwR/wsBOIsHeYCHWVBlZ5gWQoCYHzE53mCShrtl19s0q6xfUG+7psWS1nMb7Hv05gQ73ZvCth9Xnv1CFMlJeFZ3tIcYqjpz3093neeQi1tdyvM3hWw+rz36hCmSkvCthHCMXWH9Lsztd02LJazmN9j36hCmSkvCthHCMXWIHPHJeFbBQBCLLLK6Zz/t7cXgVVVi9w1TOQ0nlq2MUiSmDRrdvgIkRauqoSAcIIfungDko7L3IIw6dl2/IkjbFXi6ZoHydg3O0xXo/RB0/udfxQfCXAAAALg5dZaLH9h/MM+WW8Xbw+Dwoi7eYNa6D4wPcPtMprIi1J1C+VAAAAAAAAAABDi6+mXHQ9dhpHj7xzNM3HKsLQrhEiThOcs/PKGCqWWZXh8upk+hOXXV4rg/7KxilO/XBYlOSWQcaLIsohUFnBSCzsEeyAjlElNF6T9mKZF5wUSPj9WG6y0AAAgxUAAAAAAHXN56Q+y1fARSAeXLwUEO8wrlyd5BmBg8Zn6qDkpXwcqD8uM8VUghLcqPxFoWDbhM/21/YIoK6grA1GpBI/jK/ORDfGc8KIf6qE9C88UaW6Me2Lft+tP6+xbAvrQfVMhj+8FOoAF3TgAAAAAA5BRMNh+q+HdL6bZwKCGKrF4dE82toH2Pgl2s6cOGOmW9cQEnh9sHWwdYuI+oB6E2lUg5iDuyqK47J2bzBcziPqwq3hAbU+PKmwTsUopP5KT/KIXLPdKY4k/qXigQ/HsmphbwAAn7K/IcNP6HW57vZ/kqpJkSQxkvIrU+u5rp6aaOII/kMeDl2MMC1WP7cDeYFnuwmGMhQQ4Pl+iBXaOeDmF4SP4xwvnPiBPN3p5fQudb79AYTlfE5TTMU4FfMAcp7c4qMMhtTHWX2+8ubPkqJAGQWKutJ79DTvEyKaXQv2k4BJnjqlDGRqG0TmgRo+i0G7aFv10arZ6+SVTmJk2TYCsTCBH3iulMuh7rZiHYOXO+4Z3bHMsdFkf7C0b+s9vDrKT51QjRiRWGTcTPR5vOvzZ2afDdgej0dyZTDYWHXoO5Qd+HOfnYGHF/w2eNec8IHkyX1NZBpXZaA2K54FASgQ+gYGJt4fGbo9JN9jJLLGmd+sSTLGO7xuOnmz6cDlt7r68aFESo6sNq472dOoQtCJmVuYRG9vsfa+lVtNZwOAcFmD+wrITc039e7bZqRcW/2GSYLG9QAB109gfAWBwNvEBq56dtUqLPcUpYUw1B6UlwR4FOxXlwljB6eiWtUoB/E0nZfJf+bWPCsldl+BISZtAvepPo/3g4TvqJrgrK2Wlq2NIYemZUh0Df5/a9nrdGEVw5kphFzUfO7eq+AAQiGoz1422isNWYP4rdqyYL7F0DKEv6ARBH7yMFD9h4Bq6j1hPvBfna1IGVQ1V26f0qqj17joNw7AdqB6h8UtJKKTC3vLc/BATFIPAi6lrZqcF2AigMBfIrR/d6ooBVpdSRY5z72BceJEAF4rRHJK0JV7YDtYdNPo8qCxCMGnr3estCoFgAFjgWWur0SqR3oxtkWEFBeCjbJMx1Hjf71ymabsvqhBmVTuU+VZGUSkn4BeeAQ+l5igrbk2uzqNS1Fxam0FHSj9cxurlKa78AtkmuQiljTKzVSltKdeWBHhssQtAta9iDG6myUGwAZgkHcNFksG/XlGscuauZ9kEIqNcSkXJ5sHpP7+KzJWZoPu5qUKaJuqi4aruS96pTqcPBKuhgGShbQirfZiEcMzMQ1gAAW9NEHDPcZRCcTnZO+GqVNFjji3w4bWhlh/4py2S9LRPVUuxIoj4CAV9oYu6qeRex7hyagnVxmcpSHJFaoJ1EUTGAH5BEX4AQfMCRmLmdJuNT1b0jKqPqUb+4I3f8LLhEo+3H/DsqSPO+TBIhpHdlyC/b3qDK4JqjvLN3aL8AZV9DqwsKbS6Qmli1OYImXtyAhFx6fC8LpAPD0NbBaJ9zfW9+Q/2xgEnW/PziCZa7bDSJgB2F8qZbvp1oWyV8tAOy/v7XEWf5MY1Z0Hha5AaP0C6IWtNhV2/VsCTIcLVItYlehfAuBe/p5T20pPIOpym0+KBBZhEFm+KaKGz7rnkfRJnluBZbSsrMyPDMV56bW+nwVF8hPz766ikrRIbyCBKIlBcRqWw0AnCPqMgMdrE8YmZE4C02hYflTXa8/lJKSZd9wcWOaEAeK9YPfZUffiSB6yyHg6jZjZbCA+YxVXJu+JxczEqtLqbs8RKLXcez7HYGAUBgFfS4bGPuypsgE1Puoq7P32RK6owRIVeNTPb7TYUiYMfPVRepfA01m1WqGJGNiSrt9uObGmENr0Bwe+aORNuZbPnIGF0arRvqm21//xHAqPt94roWkx6eNRVAWdk5K7Q4Qb+nuw8u97kgABZA0bv1Qx2oVgJnlOsa6q+Z6MNS3+YRDHNzVKBtG6zgAKyZ7B8AcsQAEcf/byMwLJpmCbzKiobyQz7OIOV6ADankuVE6rT8pLG1L0/nsPb1fmSwYwEpSpm5Nb+OMcsxerLv9zBM+I0rGQxktGSDnCABachlRBXOz7B9IO70EDEvzgiAboYaWjtlcULuanYjkE0icfV/vDK3LZCjtpVWTVQOWlIrKHt44WFdPYIJcT9hQ1tczAQAY8qwAEWyCRCmnaTn+JgOmzd7s+y/Bu07AI+NL4j40viT+RSHxH7hAvj9uYL0mhKq6gosifNd+XiEXC/aOW6PHJnPp0g97mhDn8vKnnbpEiHuezuY+3WwrZV8BPjx/PfQImmi0zX4UGDWIrgVLKvr7f2aIpf5Mb1yc+n0pomxAF91fjihjiAAB5yH01n5XdeEaN1EVhgwRVBWCK9wARnvuF1bsTx9Uhgs6T/P4PWspW5JiS6zRyi0tKrAbKHlNsi/vp9IoabcLDQ18vdgLiMZnjCjIp5h/Zd2z6xLCow7Prh3q1YdqJoUnR1vLkK5oc7iRC8TlDeG2uPPkz0E9Sqi8EI/uZh1JceKfzNyi9wSyiDaM3sIcbTvmUfaWxGk/yzziboHQC8EB418Pi5oUvisk5es1wZJfWPIEvYsjYFcdwZgjy3y1fMltq+o1b0RzqrmrezfWA2btsDFslILPckbHTRCGV8DelFPaDNtVDl28tl54NgM4H/dz7NRiB66tToqFQ3bmaOYwTUk4Iv+mrJP3kXZtl7LqHNujK/caLSmjMxAh9fCi7c0msHHNHjRV3a9QX63MU0ugQioCI9xIfP7rDRLs5t4Ub+ZqKos/k+9hS1PdyaRPvggDYwRpHC8sYhEBl7hcr/fj+O3K+WO1CGUhZhR59+YdXjmvazKM3NglURQlY1IhKazinJ4iwXTwCaZq98eTIBeBdlFcTFUzqdP0Rjfq/JKSGCVTMo/Hme4arBKGslFopkyI3kmvUSGiv3iMS/YGEirMOJPM3yw+7y8x489clXsq2J6o0kwbJ1WFuMuGqXAnmorKfnYBFyyEiw48yaXG6olvKCpfGeby8v4eNhSOKReJG/hRvpoIGNaDX8G60igQIINgXDCuWRshEC6fMFlvyG0P5YWonWAgcCg6WiQu06rlWLT3Jq2IQMxSuKBJv6kA96Uje3uvFPjRpENeDQ6Y79ml2Wpev2J9wCEQYm0Bxx5dPaQJYYyMv3L1DMYsPY1fkRspQ7WNe3Rc1NdELC5UCObqxYUNVjN9+NUuUagj1IivJSgbmgmysAjWTtHGai102uZulJ7PMno1PlEvYp4xeeheTGDLxcHXlZquhVKmigZH+co0oqepe42C6QF6dFIn0342bEQHGBesaYVm+45b6WEcEj9lBTvTwjMkXR4AsfmLVBwq9nGJDzUEwBL1DMN84I5TNM/p4SBQKOJF7Gad+wZKj8n9JwI5Dq0SFWN9T9exMMSceE4OeQcvINIr3KPL+/bMJuC4DuwUjjRTGbTssbNDq9zFl/V8GUguSMQwHMtLoK+H7btEmF3UsACmFy8nppfwvaCQ4d1NxwmSxlBAEVh7HFRpqH0BUC21vWSdpeQmCQdK2q/8bDXOg5vPGzBcU5sNoZd/0IWl7ql6gQbaWMqteGllsy/gUUeaaxexkF7W7CRsvPeKRB7nwcJ1DmSL0fpANm3EoGP1gzCPe28AKXtCYfkugXrxVLIwymUVOGVh09HU1UA2T5kTr8op0rhvZjI13IZhRuVVzHAMedS2VV4aQbpYqfFX5pmnXN0oTsaeOZ5HI/KT0ihvnPybgrCE2vN/XcZOrEmfHeaQ9oT4RTJ3QeIffj25YtRUpWpUi503xEsowD+UDXC6WzH113GW4UDep7Y1rLcG5+hJVQ6bm6soJWQDvftk1EQODRa2tFkyctDQr/IU/pUA2HnHqhatcwzLpfuUn7vbiF8GW75eFJG2zZ1qN4nDocMAXOtDu+/bcV1D9G49NSn9uI2qSrZ8+WsNgiPDGOFO6Vz7Fa43QcPjzAZ/akyTySIdOG9ApfG4eLfPKyarCqyvrxhZbqUM+4w8j+znigpT+lxqXXom6D3tLD7ff+utIzURAIYZlUa+vmAUdztObrGY8DlxD+e02hMwBqsCzEXaVuruHACRRfYoPtm3OJgzTdchTG/BmgC85CkGJ+8Uapo73LOtOZolD9oPZ2ZbHYqYpcg7nFUwh7VVQSCPNwhk1W32kgu2lD4DQDiOcwZ5pgZME3lc0/vNPmJC0mcEUvV2BDELL/M1qwxWSN1Rar71sYCo3gYpJmqpdm8G7TwAVXmWR0VoNNB2R1toaymvdiHQ7q2cDFc/e8yWbgPRSTVF6+1V9sxL70ufDNSzCIqW2YzKE7dOC0NB3Rprzn5rzJfwbbb4vfo6nLtk2UKxLh4v/5Y0FmXgyVB/aRcrr1OPNfUpgKCG8WIm7Nb7tewyXRokPhFEVzJ04yOCsM3UmcLgLOMzT+PUVzPjtILlJ5Ty9wTtvnD6SxSi9iPJyRWt9jP+3/Ftbxp+uOQJrgOgftIUpSx/03pFHivruIeffs5UWhLgLTsyjNjRsSLrHtzaLY93l87rd2TMAAevxxEd/2etENDms8RuqObg6ZKIOHE54jImCT/yEUyADXodmhQXNrKfd8DTEjfRBIYjl+AZl/okwuFo2bEDljyPM3IRrFfVvDxFAkozYqNQvC0IIh9AwuOvSu9d0pvsGMPeRpzftt43/+nbX8niBpRNYv3OMkxb6y2ZUTTF/Wq5a45JWwMk9lV3zAbBVp6j3emq3mxkE3Ry2n/kIoMxQfeH9CfEsnn/aqzw1N2xqQ62ZIe9gpS0sSykrgkN3UkBv7Zr9flatPafXsA04ttxUIY1alZWcPXBWbRs0xQEZLSNhPq+WzF3gUOoCHHrRTmhGHfozZG/gP6KlZfe943uQNy2OaeMOCO9ars21aOrw3cd8SkO3JKvwW9e0cCZuuTccNRJFqXBtlTZAJYOgp9SPjox01DmPTgh/jyeLtZvwlhyuQ7eIpYpLGIxZwLzsqx/2I/cGc3zF8suiNY5IAepxDEUPK4vbGm8uSczMldjI++wY125lAj9LlJs1tNlCKhGbPikuOuivr3ZYuluOyFrvbPAxQ5b247Z34HuaXxWrnTp5mWtyy6mxDsTaN+II9iGW6T6F7PxUxUDVSLVJt4RDVpfnw+KGjmP6fD4fQuMXZQKxTXr6EcUg9tRKxe6vT1rgAEkmvjQLvuNvM9tmfCKDmGRSINRN1xRfAF/XrqjkFh0jvJlSNWNQCMfE8wX2HPp2sAzY4AAABvBOqI0e9XpGJjzJ+6xD9JLKLwXjxi+0tyK/nUA81cm0DQMAFDmMkJVuIHBLJoOMoZRiRk0ht+O+caJDzfnl59bZvofewGXA5jLb6ul+LTzXMBcETJmErqAIazgRC0nSdI+VtC5t9fIhVCoo6R925dZIL+/Ry9FYw9ETeeQP0nfct1kAm3IpiKCiQWxSZUsqtYLmJIXcrSTHtWPpp6YAAF/VP9ao724HosxycCOjYUMAF2q4+TYRF/glFf8owh3F47stvxwPMtKQZY+deisXHEQxy47h7gGWL1xwAD1L+gDyRokGvFR2b/ZIHIWbOHQEOtfOopwkmB7/ir0TNBniokAFXTfPhglRVLA7+dx7lmgTTEe2qQ37t+e+wDx/xaO0XxiAfdgFlmlxjqh+X9rbmXyeKykn5/MtefZCQZzGaX96YI/N9H07r7QaeUjh7mc2UkVYdDjID3qnwbnbikIdkNWLdP84ojR/XihTVYf7QAPusTTM2Myu7sqZsnAfph5y+ces5TOOv7iNPB7E9PWiinQPCp2Klz80DNJnZ1HxwyYG0nX4Jm3aDRO9tKiKS227qkj53sWPuWbSwOwpGFA5jfHiKZOKjsaEV4qmlcSmJoo2FCGlqHhUBRuVJbtTjxvc4e8XRNEJNiE1XWGcHAy+deTBxBxDkZH8lI7mezsCjvDuBwfLWAJuVia0dLRd13ZYfDzmaNf7SWRHQvVFPR/VnbEzMi5Tr9azY8zToe9mKgxDx4AcOKbNZN83GIR3Tn/EHwl+z76rkJg9aHMWTfILIEFT/tJbxauksHVn4gCFzsuk6mHluJKFUweivUa2MrS04Tg/Bd/xu06BrPQl9VW2tRZTO1Tm5Cb1c0m0vfXdk8fT7dgBLmYvlnw2xSH5jLw41qaWDbB5pHCRuofNcCfNkgpdpe3m50Y3WU7ulUIGaNTBJIi+k8G4CMwSUZWXXv54g3dBDC7xkzT9B4n7M82z3qdKjRXAAA6gqOvEm/NdmADtfUN9sOi0TBJfopaUPQ6G5L3DxZkl98uvzXC51sW8Xx4tyMswjtvxWdqlIUaduG7iXmkQ6AL5XHUmLNIgg1Vmlni5GrO3p/nJJ7pw/RjAPSDouBr79ofa7qZ3WPPv1hpiazlhrdKPotaULOlk8beSttbD4EDvjtckzHQVMBbqD4bxNAiRgBCm/fZ+ffiVugWL5o7dIK3oJ+n+ceByZkM2bMCNnuZXWOmwYUDHlnxNUAAGerwAD6dCDCKkZ4/Trwiiw+Y8J/pAXQBN5zFMrqHiTsLEBCp1EFSuXNjY7fgcOC7hneLpXBbdbbzypjeIAz65rV8gxXvkNBOwXLUlvknu8Bn1fyBku1cmH4Mwis/oa6QVDIWtqU7uE/Qwahrfg6f26PHQYa5y2mtVzHsNSW0zsHGqCqtBTkeveuuSWa4k0EFwPLnGJC0ZxM0fOKQHwcpCnBUmVX+RJNIFNLnPWKobusJxLLKY+0m3pqBvvF6XnRT63qIGWS+PIiviNnFlkWeOgq1gPADuEuHKI4dNWuySQNkxTYyQwAKmHN4NsElYEehcgRCS7b1jkHNZCpPQGStx8jPvfHBlCz0X81qIWPyC+R+BgOolCsPCKMipLK3BIt7z/o8TgAAcsEjgYrs9m1mOMM491AQFy8v4gksvlm9c6kDdFh0sC+We1JPXZULSA1kmNEoRROdRxLDEbMjCcg7P0XMPo6Zj9O9e/Xh+PB/wgvfd8j9Cv2XFHhRsLjodG07jLeMMzCWxesCgOM4ecH0Z7jBNPVJEMqsDgZbBCOzmd4wEzwEhPHZ+4hhrQ4dAZkTlFx/Wo1q9/3L05La9yo6s19jRyIxmFRGXw3GFKeRpzb/XrAIzqBbU4YIEBfSKQ06N32EXdaYOE+lHtpV2n9PjO6dccNFJPOegrEdvauv0D193mZtJe6ZmzKCccwv3Nt/FbMN64x8O8ejqwPDFErGpa5w4NfvrQgeRWsvexvjpPOP5j1G9pD0bSscLAOQqH7Jvjv2txrLE9SA77TXOxqORN5PJL/SIcwLjP3pYQ/66ihLvWpJfRqtteA0PHn/aO9dG+ECKiqU/8AK1odSCVDSiU6u4HCzn8/UeFRiBQDC5c4+fb1iRDlntuCRV3rjvf+I6H1/ACsJofFAtC4OK+hthNIx3/vAFhor/nJfo6PWiCaNmnCDYQaRlTTOHduXwBKVllLOJjYfDJ88rsNblkAnIGuHSYd5cRt3/2ULZQ1f0E3RBS+P1al9jq/6HUBUVVXrSe7RDbCvxihxvmS20W3U87UegFlsQ1G1BfJWTS0rbpvi9IHWF87bRHJ8AAASt8Tl8GZmUgOgBueuWbBA6vWNpXYMUjMhRBvTOVPc2WvrwwKIMtXs+5e4frjcWuEPNzLCtJ2+VBvwS3Ov6K5Ye7Vh218bEBHAAAAM1XfgEPkI0lwiZRKuIvC9sb/+O6UXsVVt0KiqzTktXS7EJHtO0BusS4KnRUiuNRxyT6hwIoq2yy9aT3n94y1TVOR/kN7KyuSoAAAAAAAAABLqonXQDoZ1fWGey/SvyF/7tL97YiQdWxVfiI0YWi+bm/VlFiTkw8lfdkSKGm9ZyHX5Tgf6DJBM00voqlWBkjxxD3h6Rm6EksRqKcm0o14hYV4AFci8NOeG8dRE04Csu8oRBfG9/4OXIsmC8at4JXvCOlQuG1KHWStfujrvYIiw3bdkrO/++/cLhDh4XeTcMyyIVDlFSH0c4QAAAAAAAHswvoiBNgn0YMamWpIkT7/+2j/uq6IkCa08oi2Lqqqf8BD0642I5BWIWIZKdkq1E0vMWKTKZkERhhUlGGNZh7MvmaJMJX9K6VVC4J+1DJGz9OjHFIFjb8bmfdlMqOpVbuyfkajIi00/lyhMGkeSyVn4wB9sZET3uSzNpOh2VINXmvv3adVYTKy3BKKep3BPkeZQAATBdBTbKUibraaPsNcbn6H51dFh+OUOUNCrI4Vuuvlh9G3zMUlAdbZNmGAbwC7T8aKtXQVQ/mtV+9qzFN6vKYi7JVCmXwinjJ5CNxwNHaFrmyYZndMgAAAAAPfxWyk2NhT7VVAf6Sv50ZSp9Yo6hZKvaEmXE2m4leFpFnlQc2YGvW6AbfEL5ivAB8wwmyY7M/Ugcons+18QIaHRpPlQGZXbd146wz6wUdP92H/DCZvKchAAAAAAAAAGRWeW/V7i/j1ao/XbhzqSMAb8dMD3AXopYwqjVvY54VnplAreazAoC9Wcc5TZvU0THHVWmTHcwQNSCTVC3lWbXYOOzqbGKn8+YdlxYHWIZlQ/NCXVgURt/aaXjdNU9alusO1ZdHIQDK4EymsKzSpd8pWT9J6GcVoHlxMdwhjkGBI3ktqhVSSrvib8KW49s2xoyXmWYngT77X3WXmJdsP2URlQ67rZLgPxPLNe+TaYlbMwSeTyVyv7d1PzYszQrKfWhiAqJyZ1RhzcEfcwfa+QgDTc6w0OMVwFc/4bltM4HLgLPCdIsU/UFEhfPjeFaGtVOP0K2JczIOAiffDdp1hMwFP4dWLI+HuHE0yc3yOJZV6kvp/Cbq/pZQGglDK/R8TOW89xEBq8jvOY/a0Pdcw+jmtQe2kjuaOhzxYvu4wninvH8KWAsDE7IB16jE00G/XmBPoAAAAABJqvGmRF9DqmahKxFbEdojEuuY7AFwACmwDjYUXq6ZlE1SbBagxV4LR3cXhEKuYQlYkbhV9M3O3J0id05sVE7l6jM3x5lB76jyzTXoOzCf94UQgiyyaadXfdtMbCcxg3LnXFsAAAAAACVRwYVrxIISrJgzKqDJxmKZ86PiFJWvHGCPZgaVNdNei9c9fmyw07lkHxXMTl9I0Yjc3QHGBwd9CeUa5ZnAkSIkAAAAAAM7nYd3nP3sv1t/B6PcEKyLQ2v4SWBPZd+CBOkEuQhvOuJJLagUZrKpNJYNKfdiUf7PRjNPSScIxFft2RlVLRC2LRngHu/XEv82NA71C9fUJQ5c6jhXCOxi/YdE+ZpfmsxA+9j+9x7A3Mg8iYJs52xtM/Rd5gAPT2xbHRT+mPlE/zQCMDCkEgCi7JsP7vrn1A5HPo7e+X6JtexeGeTheh9eFhw2NSq/VGOcvImmIqQtwdJ2AvGqcF/QRkowoZtTguB8oNBro9NBUaYc8xHK+OBZ7/1P47pKD3Z1HWaJAAjUqkCR/xCVXshRNa7PN1ytItkTThXwBsavIR7xue/2qbSpbEw0psAyIQ7EQnGf5b7/m6E5K++dgmI4o3adgjBlkqtJGIcKNE7yyqTW6MD74RHUztIH+HOE1AAAAAABuZaZ8s/Bs3XxmR3SeEpwv6pghwS97X99vwn2q8t53D692t1cs4hMHKGB+6sXb3ejO6nCTMUIh1ax5I0AAVefOMIg7Ohbr40341ZvYDEGCPAGCGEP2/O0R93+FIbPvXJLeCNL/a2CqNlDIMFJoo70ncBm8quEvj7jLFWUbGIbble4AKMqnZ1z1HkuZXT7n0DV0CvFcKHd+CilKbHIXXfrrpoq9JjIZnbpRp6mmZvRDIrM80yTLIj0rrq3pEMvZMVr8w7DBiVIaExLvgK9WdMpxSZ8gjacaxrBhHg0HIyhCjwYwYL+kTcnejQzVJ7TOLtSg5d+iRb+8+vB0ONEHktKp2Jk1lvWkR139LQiicmngX1nf1/2TSejU0GHPlViPa46GO1x0MdrjoY7XHQx2uOhjtcdDHa46GO1x0MdrjoMg5QUZisBsB4TEbz94DO6B4mnsrJcepi8L/rXgUstF9u/WMyqB8iLnJx0qjiPhH3pbq/2JSFxmOgfCF287MmGC+6WRFDGzQv9/W5oa/T4gRjyOqvYiURCwiidzgDntscHKEisqbJ349h3Ki9KmJnKADJkXKxyK3F0D5c1JIL1doUwJKH3ZCn8Hww7bCw1TBzT4TqhHBG6Yf/Mual2I8oRO2y4ggS0Ah50/qg+Xja9ONtAHrk5VuKTJsqPSqMiOsYPrEqewoUmZOykREJQIcrDc1iZ6OoBId7oAK+3deKSJZ2pM7YfupbJg9nZasLuDTQkKCiKsZOsMui56bpC8KLPTgSmbh5yPomxrijAhJBAfBj2MA9u+tvn6zEDy9+C5i9jz1NxyghrRB88PG/rRgrtTd3R9Upe2OEq7hwPdgCVLV3osX20G50XPVWHiAHZNlDVjWTCH75PXYBfv/F6CYjVyc4FPiwGD+r3siSVsfUJEauTnAp8WAwf1e9kSStj6hIjVyc4FPiwGD+r3siSVsfUJEauTnAp8WAwf1e9kR5RZvCPAu+4bJzge6YDcs1mJ8ZcEvHkLvdQ0MWpHyjE8B/w32icad8v+Uu0BawtjwITpUPlukG5L18wmGmWNa/LEHQFHRtDF6WaGs0uAEFswIfQMf+fdC3jg5ICv1J/TP54Hl6Ucu+IqrPAdDPDAa6Qz+gXFxnthJF0H2oc261QDXhYe0qmh2gOCa3AcajSHkGqmFuigomSmX3tV7rPUlfAPhyvaJb3xXIgyrCWzBi5c8jco4HklDgHEBV9zL2cefjETvaDAqJvr12aWcZ46CCSrFHShPq3wPyIjf433YL+4MTwh83ljYFJXsUBYyhrE0ZcgicSmLOrFcBhH+/2Ayk4J+J8a9Vvx2d+Z2D5xG98g+ut8L+DON/TMDicpPae9CnQYK5CVqoDgOJ/N+Rb/ZCFK10qtdxGP8aFtNsGS96qkgAAAAAAAAAAAAAAAACv4Oz7KvCR2fFWnXjYZShVsZc/YybbSPRX+vQEZxNtOKuhz+sciQ5Qn5dk5frB/ZV7Wqf7dVoCZwJtL98OiIhkAOwMB5TsbvSYAQpqnM/8I5z+DdDAJP1XYus+b5r8jgp13S4/gE7YS2c7t+oYqhNN5Vz9uSBd4oASI/ehKfdpHatY9ytRIlQyW3o1ijn8xOJ20O4kJR3TAHGt7SIZuzWYw4mX2/Ty3fXvmIiO0AA43GWeTbxsrVOqXfaSVjzGEQPkA4Xjc9jusipy+97yuR/BDsTuMOCElP+MH+ja5hLw7E7jK75C6HYncZXfIXQ7E7jK75C6HYncZXfIXQ7E7jK75C6HYncZXfIXQ7E7jK75C6HYncZXaQAAAEVYSUa6AAAARXhpZgAASUkqAAgAAAAGABIBAwABAAAAAQAAABoBBQABAAAAVgAAABsBBQABAAAAXgAAACgBAwABAAAAAgAAABMCAwABAAAAAQAAAGmHBAABAAAAZgAAAAAAAABIAAAAAQAAAEgAAAABAAAABgAAkAcABAAAADAyMTABkQcABAAAAAECAwAAoAcABAAAADAxMDABoAMAAQAAAP//AAACoAQAAQAAALAEAAADoAQAAQAAAKACAAAAAAAA;fontStyle=1;align=center;" parent="1" vertex="1">
          <mxGeometry x="368.57" y="70" width="71.43" height="40" as="geometry" />
        </mxCell>
        <mxCell id="ffUYFbKQlvKIQQluMXO9-21" value="" style="shape=image;verticalLabelPosition=bottom;labelBackgroundColor=default;verticalAlign=middle;aspect=fixed;imageAspect=0;image=https://4.bp.blogspot.com/-ou-a_Aa1t7A/W6IhNc3Q0gI/AAAAAAAAD6Y/pwh44arKiuM_NBqB1H7Pz4-7QhUxAgZkACLcBGAs/s1600/spring-boot-logo.png;fontStyle=1;align=center;" parent="1" vertex="1">
          <mxGeometry x="280" y="170" width="76.19" height="40" as="geometry" />
        </mxCell>
        <mxCell id="ffUYFbKQlvKIQQluMXO9-22" value="" style="shape=image;verticalLabelPosition=bottom;labelBackgroundColor=default;verticalAlign=middle;aspect=fixed;imageAspect=0;image=data:image/svg+xml,PHN2ZyB4bWxuczp4bGluaz0iaHR0cDovL3d3dy53My5vcmcvMTk5OS94bGluayIgeG1sbnM9Imh0dHA6Ly93d3cudzMub3JnLzIwMDAvc3ZnIiB4bWw6c3BhY2U9InByZXNlcnZlIiB2aWV3Qm94PSIwIDAgNjAwIDE2MCIgaGVpZ2h0PSIxNjBweCIgd2lkdGg9IjYwMHB4IiB5PSIwcHgiIHg9IjBweCIgaWQ9IkxheWVyXzEiIHZlcnNpb249IjEuMSI+JiN4YTs8Zz4mI3hhOwk8Zz4mI3hhOwkJPHBvbHlnb24gcG9pbnRzPSI2Mi45MTEsNjguNzIyIDQ1LjM2Niw5OS4xNDMgNDUuMzY2LDk5LjE0MyAyNy44MzYsNjguNzIyIDQ1LjM3MywzOC4zNDciIGZpbGw9IiM1OTY2NkMiLz4mI3hhOwkJPHBvbHlnb24gcG9pbnRzPSI4MC40NTgsMzguMzQ4IDQ1LjM4MywzOC4zNDggNjIuOTIxLDY4LjcyMyA5OC4wMDUsNjguNzIyIiBmaWxsPSIjQkNBRTc5Ii8+JiN4YTsJCTxwb2x5Z29uIHBvaW50cz0iODAuNDQ5LDk5LjE1NyA5Ny45OTMsNjguNzM2IDk3Ljk5Myw2OC43MzYgMTE1LjUyMyw5OS4xNTcgOTcuOTg2LDEyOS41MzIiIGZpbGw9IiM1OTY2NkMiLz4mI3hhOwkJPHBvbHlnb24gcG9pbnRzPSI2Mi45MDEsMTI5LjUyOSA5Ny45NzcsMTI5LjUyOSA4MC40MzgsOTkuMTU0IDQ1LjM1NCw5OS4xNTciIGZpbGw9IiNCQ0FFNzkiLz4mI3hhOwk8L2c+JiN4YTsJPHBvbHlnb24gcG9pbnRzPSIxNzkuMTEzLDk4LjcwNSAxNzkuMTEzLDM4LjcwMiAxNjkuNTE0LDM4LjcwMiAxNjkuNTE0LDYzLjUwMyAxNDEuMTU2LDYzLjUwMyAxNDEuMTU2LDM4LjcwMiAmIzEwOyYjOTsmIzk7MTMxLjQ2OCwzOC43MDIgMTMxLjQ2OCw5OC43MDUgMTQxLjE1Niw5OC43MDUgMTQxLjE1Niw3MS43NzEgMTY5LjUxNCw3MS43NzEgMTY5LjUxNCw5OC43MDUiIGZpbGw9IiM1OTY2NkMiLz4mI3hhOwk8cG9seWdvbiBwb2ludHM9IjIwNi45MTgsOTguNzA1IDIwNi45MTgsMzguNzAyIDE5Ny4yMjgsMzguNzAyIDE5Ny4yMjgsOTguNzA1IiBmaWxsPSIjNTk2NjZDIi8+JiN4YTsJPHBhdGggZD0iTTI2NC45MzgsODAuNTdjMC02LjIyMy0zLjY0NC0xMi4xNzgtMTEuNDY3LTEzLjY4OHYtMC4xNzljNi4xMzQtMi4xMzQsMTAuMjIzLTcuNTU2LDEwLjIyMy0xMy42ODkmIzEwOyYjOTsmIzk7YzAtOS4yNDUtNi43NTYtMTQuNTc4LTE5LjgyMy0xNC41NzhjLTcuMjg5LDAtMTQuMTM0LDAuMTc4LTE4Ljg0NiwwLjI2N3Y2MC4wMDNjNi42NjgsMC4wODksMTIuNzEyLDAuMjY3LDE2LjM1NiwwLjI2NyYjMTA7JiM5OyYjOTtDMjU5Ljc4Myw5OC45NzMsMjY0LjkzOCw4OC4zOTUsMjY0LjkzOCw4MC41N0wyNjQuOTM4LDgwLjU3eiBNMjUzLjU2LDU0LjUyNWMwLDYuMDQ0LTQuNzEsOS42ODktMTMuNjg4LDkuNjg5JiMxMDsmIzk7JiM5O2MtMi4wNDUsMC0zLjU1NiwwLTUuMTU1LTAuMDg5VjQ2LjM0N2MyLjMxMS0wLjA4OSw0Ljg4OS0wLjE3OCw3LjU1Ni0wLjE3OEMyNTAuODA1LDQ2LjE2OSwyNTMuNTYsNDkuNjM2LDI1My41Niw1NC41MjUmIzEwOyYjOTsmIzk7TDI1My41Niw1NC41MjV6IE0yNTQuNzE2LDgwLjc0OGMwLDYuMDQ2LTQuMTc4LDEwLjMxMi0xMi45NzksMTAuMzEyYy0zLjExMSwwLTUuNTExLTAuMTgtNy4wMjEtMC40NDVWNzEuNTA0JiMxMDsmIzk7JiM5O2MxLjMzMy0wLjA5LDQuNDQzLTAuMDksNS40MjItMC4wOUMyNDguNTgzLDcxLjQxNCwyNTQuNzE2LDczLjkwNCwyNTQuNzE2LDgwLjc0OEwyNTQuNzE2LDgwLjc0OHoiIGZpbGw9IiM1OTY2NkMiLz4mI3hhOwk8cG9seWdvbiBwb2ludHM9IjMxMC44OTQsOTguNzA1IDMxMC44OTQsOTAuNDM4IDI4OC45MzgsOTAuNDM4IDI4OC45MzgsNzEuNzcxIDMwOS44MjcsNzEuNzcxIDMwOS44MjcsNjMuODU5ICYjMTA7JiM5OyYjOTsyODguOTM4LDYzLjg1OSAyODguOTM4LDQ2Ljc5MSAzMTAuODk0LDQ2Ljc5MSAzMTAuODk0LDM4LjcwMiAyNzkuMjQ3LDM4LjcwMiAyNzkuMjQ3LDk4LjcwNSIgZmlsbD0iIzU5NjY2QyIvPiYjeGE7CTxwYXRoIGQ9Ik0zNjYuOTY2LDk4LjcwNWwtMTUuODIyLTIwLjg5MWMtMS41MTItMS45NTUtMy4zNzctNC4yNjctNS4wNjUtNi40YzkuNzc3LTEuMDY1LDE2Ljk3OS03LjE5OSwxNi45NzktMTYuOCYjMTA7JiM5OyYjOTtjMC0xMS45MTItOC41MzMtMTYuMjY4LTIwLjk3OS0xNi4yNjhjLTYuNzU2LDAtMTEuNzMzLDAuMDg5LTE2LjA4OSwwLjM1NXY2MC4wMDNoOS42ODhWNzIuNzQ4aDAuNDQ0bDE4LjY2OCwyNS45NTdIMzY2Ljk2NiYjMTA7JiM5OyYjOTtMMzY2Ljk2Niw5OC43MDV6IE0zNTIuOTIyLDU1LjY4MWMwLDUuOTU2LTQuNzExLDkuOTU2LTEyLjUzNCw5Ljk1NmMtMi4xMzQsMC0zLjgyLTAuMDg5LTQuNzExLTAuMTc4VjQ2LjQzNiYjMTA7JiM5OyYjOTtjMS40MjMtMC4wODksMy4yMDEtMC4xNzgsNS4wNjYtMC4xNzhDMzQ4LjgzMyw0Ni4yNTgsMzUyLjkyMiw0OS4xMDMsMzUyLjkyMiw1NS42ODFMMzUyLjkyMiw1NS42ODF6IiBmaWxsPSIjNTk2NjZDIi8+JiN4YTsJPHBhdGggZD0iTTQyNy41NjIsOTguNzA1VjM4LjcwMmgtOS40MjVWNTYuNDhjMCw4LjgwMSwwLjI3LDIxLjY5LDAuNjI0LDI4LjUzNiYjMTA7JiM5OyYjOTtjLTIuMjIzLTQuMzU2LTQuNjIyLTkuMTU3LTcuMjkxLTEzLjYwM2wtMTkuODIxLTMyLjcxMmgtMTIuNzE0djYwLjAwM2g5LjQyNlY3OC41MjZjMC04LjUzNC0wLjE3OS0yMC43MTItMC41MzUtMjYuNTc5JiMxMDsmIzk7JiM5O2MxLjg2Nyw0LDQsOC4yNjcsNi42NjksMTIuNjIybDIwLjUzMywzNC4xMzZINDI3LjU2Mkw0MjcuNTYyLDk4LjcwNXoiIGZpbGw9IiNCQ0FFNzkiLz4mI3hhOwk8cGF0aCBkPSJNNDkxLjYzOCw5OC43MDVMNDY5Ljg2LDM4LjcwMmgtMTAuNzU4bC0yMS41MSw2MC4wMDNoOS43NzdsNC42MjItMTMuMjQ2aDI0LjI2OGw0LjYyMiwxMy4yNDZINDkxLjYzOCYjMTA7JiM5OyYjOTtMNDkxLjYzOCw5OC43MDV6IE00NzMuNjgyLDc3LjcyNkg0NTQuNDhsNi43NTYtMTguNTc4YzEuMTU1LTMuMiwyLjEzNC02LjQ4OSwyLjc1OC05LjUxMmgwLjE3NyYjMTA7JiM5OyYjOTtjMC43MTEsMy4yODksMS41MSw2LjEzNCwyLjY2Nyw5LjI0NUw0NzMuNjgyLDc3LjcyNkw0NzMuNjgyLDc3LjcyNnoiIGZpbGw9IiNCQ0FFNzkiLz4mI3hhOwk8cG9seWdvbiBwb2ludHM9IjUzMi4yNTIsNDYuODggNTMyLjI1MiwzOC43MDIgNDg5LjU4MywzOC43MDIgNDg5LjU4Myw0Ni44OCA1MDYuMDI5LDQ2Ljg4IDUwNi4wMjksOTguNzA1ICYjMTA7JiM5OyYjOTs1MTUuNzE3LDk4LjcwNSA1MTUuNzE3LDQ2Ljg4IiBmaWxsPSIjQkNBRTc5Ii8+JiN4YTsJPHBvbHlnb24gcG9pbnRzPSI1NzMuOTIyLDk4LjcwNSA1NzMuOTIyLDkwLjQzOCA1NTEuOTY1LDkwLjQzOCA1NTEuOTY1LDcxLjc3MSA1NzIuODU0LDcxLjc3MSA1NzIuODU0LDYzLjg1OSAmIzEwOyYjOTsmIzk7NTUxLjk2NSw2My44NTkgNTUxLjk2NSw0Ni43OTEgNTczLjkyMiw0Ni43OTEgNTczLjkyMiwzOC43MDIgNTQyLjI3NCwzOC43MDIgNTQyLjI3NCw5OC43MDUiIGZpbGw9IiNCQ0FFNzkiLz4mI3hhOzwvZz4mI3hhOzwvc3ZnPg==;fontStyle=1;align=center;" parent="1" vertex="1">
          <mxGeometry x="458.12" y="100" width="123.75" height="33" as="geometry" />
        </mxCell>
        <mxCell id="ffUYFbKQlvKIQQluMXO9-23" value="" style="shape=image;verticalLabelPosition=bottom;labelBackgroundColor=default;verticalAlign=middle;aspect=fixed;imageAspect=0;image=https://dbdb.io/media/logos/h2-logo.svg;fontStyle=1;align=center;" parent="1" vertex="1">
          <mxGeometry x="660" y="70" width="40" height="40" as="geometry" />
        </mxCell>
        <mxCell id="ffUYFbKQlvKIQQluMXO9-24" value="" style="shape=image;verticalLabelPosition=bottom;labelBackgroundColor=default;verticalAlign=middle;aspect=fixed;imageAspect=0;image=https://upload.wikimedia.org/wikipedia/commons/thumb/d/d9/Node.js_logo.svg/1920px-Node.js_logo.svg.png;fontStyle=1;align=center;" parent="1" vertex="1">
          <mxGeometry x="34.599999999999994" y="70" width="65.4" height="40" as="geometry" />
        </mxCell>
        <mxCell id="ffUYFbKQlvKIQQluMXO9-25" value="" style="shape=image;verticalLabelPosition=bottom;labelBackgroundColor=default;verticalAlign=middle;aspect=fixed;imageAspect=0;image=https://upload.wikimedia.org/wikipedia/commons/thumb/9/99/Unofficial_JavaScript_logo_2.svg/1024px-Unofficial_JavaScript_logo_2.svg.png;fontStyle=1;align=center;" parent="1" vertex="1">
          <mxGeometry x="-20" y="70" width="40" height="40" as="geometry" />
        </mxCell>
        <mxCell id="ffUYFbKQlvKIQQluMXO9-27" value="" style="shape=image;verticalLabelPosition=bottom;labelBackgroundColor=default;verticalAlign=middle;aspect=fixed;imageAspect=0;image=https://upload.wikimedia.org/wikipedia/commons/thumb/5/5b/HTTP_logo.svg/1920px-HTTP_logo.svg.png;fontStyle=1;align=center;" parent="1" vertex="1">
          <mxGeometry x="175.23" y="106" width="50.47" height="27" as="geometry" />
        </mxCell>
        <mxCell id="ffUYFbKQlvKIQQluMXO9-29" value="" style="shape=image;verticalLabelPosition=bottom;labelBackgroundColor=default;verticalAlign=middle;aspect=fixed;imageAspect=0;image=https://upload.wikimedia.org/wikipedia/commons/thumb/9/91/Electron_Software_Framework_Logo.svg/1200px-Electron_Software_Framework_Logo.svg.png;align=center;" parent="1" vertex="1">
          <mxGeometry x="20" y="170" width="40" height="40" as="geometry" />
        </mxCell>
        <mxCell id="bq3jUTXx_F4QkcpRocF--3" value="" style="shape=image;verticalLabelPosition=bottom;labelBackgroundColor=default;verticalAlign=top;aspect=fixed;imageAspect=0;image=https://upload.wikimedia.org/wikipedia/commons/thumb/b/b2/Bootstrap_logo.svg/1280px-Bootstrap_logo.svg.png;" vertex="1" parent="1">
          <mxGeometry x="-111.63" y="145" width="50.21" height="40" as="geometry" />
        </mxCell>
        <mxCell id="bq3jUTXx_F4QkcpRocF--4" value="" style="shape=image;verticalLabelPosition=bottom;labelBackgroundColor=default;verticalAlign=top;aspect=fixed;imageAspect=0;image=https://upload.wikimedia.org/wikipedia/commons/thumb/6/61/HTML5_logo_and_wordmark.svg/1024px-HTML5_logo_and_wordmark.svg.png;" vertex="1" parent="1">
          <mxGeometry x="-130" y="95" width="40" height="40" as="geometry" />
        </mxCell>
        <mxCell id="bq3jUTXx_F4QkcpRocF--5" value="" style="shape=image;verticalLabelPosition=bottom;labelBackgroundColor=default;verticalAlign=top;aspect=fixed;imageAspect=0;image=https://upload.wikimedia.org/wikipedia/commons/thumb/d/d5/CSS3_logo_and_wordmark.svg/800px-CSS3_logo_and_wordmark.svg.png;" vertex="1" parent="1">
          <mxGeometry x="-80" y="95" width="28.37" height="40" as="geometry" />
        </mxCell>
        <mxCell id="bq3jUTXx_F4QkcpRocF--9" value="" style="shape=image;verticalLabelPosition=bottom;labelBackgroundColor=default;verticalAlign=top;aspect=fixed;imageAspect=0;image=data:image/png,iVBORw0KGgoAAAANSUhEUgAAAMgAAADICAYAAACtWK6eAAAkZElEQVR4nOydB5hb5bnn/0dHXRpJ06tn7LGN69jGDRvHxpjQDKEZErgQerIJIcluQnazZJO7m727ZBMum3KXACHADfeSkITQEwjGgGk2AUNs497LzHi6Rr3vc775jkbSSBpJo6My8/6eZx7OOTqSXmH99X3v971FBYIgUkICIYg0kEAIIg0kEIJIAwmEINJAAiGINJBACCINJBCCSAMJhCDSQAIhiDSQQAgiDSQQgkhDuQhkKYCnANQV2xCCKDWmAegBEAGwC0B1sQ0iiFJhBoA9XBzy3wkA5xTbMIIoNu0xI0fi3zCA9cU2kCCKRROA3bIg1FpVZM21TRGNThUrEj+ArxTbUGJyIxbbgCTMAfAeH0Gg1qpw248WYO11LZi1zIb92wfgc4fAbb8cgAnA61w0BJFXSk0gWgCbAcyUL2y6ZzaWfHZk8cpWr8eyS+qx9/0BuIYC8i1rACwB8CyAUJHsJiYppSaQn/FRARCAjV+dgbXXNUMQhOgNWoOIjvU16DrkRH+nV748F8BqAH8B4C6O6cRkRCi2ATHcBuAx+eQz1zXj6v80K+XNkUgET/1wH3a82hN7+TSAVQBOKWwrMUUolY1C6Uv9S/lk9jIbLvvKjLRPCAYisdMsmd8D6FbIRmIKUgojiBrATgDzpJOaFj3ueXI5NLrUs79wOIInvrsbn74zEHv5fgDfKYC9xBSiFEaQh2VxqEQBX7h3TlpxSLz84JFEcfxfAN9V2E5iClJsgdwB4Hb55KLb29C+xJb2CX997BjefCrOxbgPwLdoBYtQgmIKxAzgf8knjTON2PDFaWmf8Ok7/Xj10eOxl94G8D0FbSSmOMUUyEMA6qUDnUnELf97AUR1anOG+3x45icHYy91AriFNggJJSmWQM4DcGP05AstqJ1mTHlzOBTBE/fugb3XJ1/y8/2SowWwlZjCFEsg35cPbPU6rLu+Je3Nb/3uFI7vHk58/scK2kcQjGII5CIAF7A3VwFf/OF8GMzqlDf3HHfjlV8di730O76kSxCKUwyBfEs+6Fhfg+kdlrQ3//mhIwj6w/Kp5KHfKs26FLaRIBiFFsgKAJ+VT867Pv2q1d73+rF7a3/spW8D8CloH0HEUWiB/EgOkJx3bhXaFqYePXyeEH77T/sRGV2jegnAM4UxkyBGKKRAlgLYIB0IKuCyu9rT3vzuM6djY636AHy5ADYSRByFFMgt8sFZyyvR2G5KeWPAF8Jbv43bLf8ZgC6F7SOIMRRKIFoA18knKy5rSHvz6785AedgdPQYAvCgwvYRRFIKJZA7ADRKByabhq1epaK/04MtT56MvXQ/gIEC2EgQYyiUQO6WDzrOq4Fak/pttz3fhVAw6pn7eLQvQRSFQghkCYD58knHutSjRygYxkevnIm9dD930AmiKBRCIJfKBwazGrOWpw5nP7zDDnuvXz51Afg/BbCPIFJSCIFcLB8svbgu7fTqky1x+eXPAHAobBtBpEVpgdh4WR7Gudc0pbwx4Ath55be2Eu/Vtg2ghgXpQXyGZ5zjuoWPRpmpN77+PSdfnic0aTAUzwZiiCKSiEEwmhfbE1740fx5XueoEQoohRQWiCr5YN0AvH7Qti/LW6r498VtosgMkJJgWh4/BWjdUHqwMRTex2xex9HAexT0C6CyBglBbKMF2aAwSyivi11Su3JfXGLVdsUtIkgskJJgZwvH8xcZoOgSl2jruuwK/Z0h4I2EURWKCmQC+SDOSur0t5IAiFKFaUEIsS2SZsxzgpW/2lv7OkhhWwiiKxRSiBtsv+h0anS+h8+dxAeR1A+DfJ6VwRREiglkLPkg5pmA6u5m4qhnrgU8z4uEoIoCZQSSDSftmaaPu2NLnucHoYUsocgckIpgcyWD2rSVEwEn2LF4FTIHoLICSV9EEZVY/oRJGaDUGJMRxyCKCZKCaRZPrDV6dLeGAzE1YAj/4MoKRQXiLVWm/bGCNVIJEoYJQQiAKiTTypq0gtEVAtK20MQOaPEF7IJAJtXqUTAbEsvkIQMQ40C9hBEzighkEb5wGjRQJUmBgtMIHGPGxSwhyByRgmBRKdXJsv4A4LOFNf6IP2SF0EUGCUEUi8f6CtS9/2QSegNUqGAPQSRM4qOIIaK9O2cJfTmuHtIIERJoYRAopXh9MbxRxBj/DTMJLdHIIhSQAmBRHNrtYbxv+tqjQo6Y9x96ZNHCKKAKCGQaPJHwhc/JSZb3CiSujYpQRQYJQQS9SM0usxe3miJm4rVKmATQeSEogJRazN7eXNl3GYiCYQoGZQQSHQvI1OBVFTGTbHqFLCJIHJCCYFEv+3j7aLLmKviRpBGBWwiiJxQQiDRb7uQ4avbauNC4lvzbxJB5EZJjCCW+JD41CXgCaLAKCGQ6NpuumJxsVhr4kaQZgVsIoicGH+rO3uiObSqDOWXZAQR+YZhJc8v8QMYBGCnqu9EIVFCIFnnCFqqdSxxiuen23huerLhR7rezQtcHwbwMYBXARzIi+UEkYASU6zoL3w4Q6lI4qhqiot0TzU3k/ybaQDWAbgNwM8B7AfwCYCbKSORyDdKfKGisoiEM58N1bXGlweSDDMKKphVIgzjL4ctBvCvAI4D+A4lXhH5QokpVrRNbTg0vkDUw2GY9gfxeaEKkRoTWjU6VIsamAUVBGF0IAlHIhgOh9AXCqAz6MfRgBe7fW783etCcHTQagHwYwB3AfgfAJ4EEFLgMxJTBGUFkmIEEfwR2D7wo/p1H8x7g2w+1Q49YEydUKgSBNhENfubpTVgHY+J7AsG8IyjD887B+AdLZEyHcDjADYB+DwAT54/IzFFUFQgkYQRRNMfRvUWL2o2+6Cx52cxqkatwX+obMTnLTV4zjGAZ539cIajg8blAHZx/+S9vLwhMaVQQiDR4m/RqomhCBr/4EH9C14ICtXBqhQ1uM1Wj8vMVfhu71EcC0SLYs8E8BqA9QD+psy7E5OVfGbvSTOlHwK4SV6FaltowUq/Ee33O2HbEYBQgB0Mk0rEhSYbgpEI9vndsneiAXANX+06rLwVxGQhXwKpBfA8gFtlcVhVIm6xV2HhdkDtLuzenkZQYbmhAgt1Jmz3OOCLsPc3AvgHACe4UAhiXDKLBUmPNE17C8C58oV2jR4/qZvOpj3F5kzQj2+eOYKeULQutnRwEYA3i2sZUQ7kYx/kwVhxrNCbcX/djJIQh0S9Wov7aqezEY0jGfYCgOXFtYwoByYqkP8G4EvyyWp9Bfsy2kQlfP/cmaHV43vV02IvVfCNxdJQMVGyTMQHuRrAL+Vp2tk6E35Q2wpdphGKBaZJo0OtqME2j0N23Gt5q7g/UQAkkYpcBWID8Iqcfz5do8NP69thUI19OW2lDZUd82CZOxu66ioEHE6E/f6J2p0Ts7UGDISC2O+P7hsuBLAPwO6iGESUPLk46ZIKXgZwsXSiEwT8on4m292ORVtpRcOGdbDNnwMhZlQJ+wM4/swLGD5QnNVWRyiEu88cwslgVKRHuFBot50YQy4jyNcB3C2f3FXZiDXG+D7olUs60H7jtTA21MfFU0kIoghT2zT0bf8wd6sngDQFPMdQgb86B+EfmVlVAvAB2FoUg4iSJluHQQvgXvlkntaAK83VcTdY552FaVdcApU6taOutVRAa7Nlb22eaFLrcJ0lrj7dt6guMJGMbAVyi1y9XS+ocG/1NBZEKGNsaULrNZ8bM2okQzQUt9PBVRU1qBpdbZPU+v2iGkSUJNkKJDq1utRUiWZNfIPOlssugkqd2axN8kWKSYVKxJ3WhthL36SaXEQi2QjkEgCLwB2Xqyvip1a1a1bC0JDZ9ysSiSBgH87OUgW40GRDszqaD6/loSgEESUbgdwnH0h+R0vM6KGtqkTj+WszfiFJHOFAYUeQQJJ2uqIg4Op4H+rOQtpElD6ZCkQaOZaArwtfb4kvn1u9dBFbncoUb29fdlYmIRiJwBPOLFnwOUcfLj35Kf7jmSMYDsW3Yl9vtMaudS8AsHTCxhGThkwFcql8sFhnYklKUQQBto75Wb2pp7s3q/sT+dDjwKbTe3HVqb14ztGf9t4jfi9+OdjNEuV3+lx4YOB03ONVag3mxu/h3Dwh44hJRaYC2SAfnGOIXw01tjSxZdts8HR3Z3V/LBFE8IvBTjjCIQQQwf8b7MRRf+o9vqeGe9h9Mls9wzjgi79/hd4ce7opZ+OISUcmAlEDWCmfLNGb4h60zGrP+k09nWeyfo7MJ15n7C44q8jw4GBX0ntDkQiLvUrkWWf8FK9DF/eZWgDMyNlAYlKRiUAW830CaCFgliY+pMQ8Pbta00GPB/4he3ZWxrDd4xxz7SOfC73BsU7/QCgIdxLn/H2Pg62kyZylHVMl6OycDSQmFZkI5Hz5QPoiiTGbgCqtFsaW7LoVuE52ZmdhAkcC3qTXd/lcY645I8md+OFwCP0xznqFqE4UybIJGUlMGjIRSId80KKJq6ELU2tLXCBiJng6k0+HMsWbolxjT5IRRJMmFtORsALWoYsrXNeRu4XEZCKTb/c8+aBRHS8Q47TsOxW4u3L3PyT0KQTpSjJaVKZJ3IokpIAsjvdDaKmXYGQikGg7gkpV/BfOUJ99ZIa3uyfr58TSlCBSmWQfxKQS0ZLifmvCZ1mkM8W+hvSZGyZkKDEpyEQgURVUJHyp9DXVWb1ZwOlCYHjsqlI2LIyfCkVJlea7NiEUX8KiEmMDFUeuiWq0qONiy1ZOyFBiUjCeQMTY4nLahIY4GqslqzdznTiZnXVJWGWwsCStRGZokkcHX2GuGnP/+UZb0ojjebo4R33VhI0lyp7xBKJKdSLqdRlH7so4j5zI6v5kmFUiLjNVxV2TfKOF8T5ElHq1FndY66PndaIGt1uTTw2XxG8YfnbCxhJlz3jlRwK8nQHTRiBm70DQZF8QxHNmYv6HzM3WOrztsaM3FGSG3VPVDHWaHJRrLbWsmNw+vxs3WOrYsm4yOsY66jYAQ3kxmihLMqnPMwiAORvumCXWTJKiEpnIBmEskr/wSMNsbHHbWZG6xfrko0csV1ZU40qk95kaRQ1z6k+N7NSLPOzk13kxmihLMnHSo9F9g+HRzbVIKPu2G0G3O+vnpMIqqllOSibiyBRJ9OvjnXrKD5niZCKQaPmR2HCOkM8fF64xHhFp9Mmi41SxuMAYlyu/Tk4xJqYmmQgkWn7kWEyYRyQYRNCV+YjAdtxzmJYVmjatHrNHV8TUvCo8MUXJRCDb5IPDCXFQ3jPZ5XWotOVR6TMhpP9zxbOEKDaZCoR1o7GHQ+iKCTV3nTiV1ZtpLNntmxSLVYY4O88HUFM8a4hikolA3LwfOePv3tFw8+GDR7J6M62tPAQyT2tA1WjUgDTfuqO4FhHFItNQ3GgvjQ9jBOLp6oY/i+ok2cZuTfvyrVjw0D+j5Y6boG/JPjAyVwRBwGeMcWK+m1c9IaYYmW6FB3n3KJwJBlhVQjkvRGuzwpThlzfs82Ho030Z3Wuc1Y5Fj/4MptkzUX3eGky74ybYVpyNoMsFz4mTQIqw93yhF1R41RXdI5TU8j6AQ4q+KVFyZDqCvCfvh7gjYbzsHIw+MPj33Rkv95paWzJeydImCYSs/MwqdDzyU5z7/muY+5MfovbSCyGakgcv5or0WTqDfvSGAom/Hjfk9Y2IsiCbdVdpHv4oeDTsvzXNYXFREjP+YRMss2dm9CL7H34io5B3w/RWrHrrpXHvC3l9cO7eA/vHO+Hcsx+eYyfg7exGcNiBiI8vKKgEiAYDVAYD1GYT1DYLNFYrNFU2aOtqoWush76pEad8HpzzuY3wJxe8l+eq515xgig7shGIyEcRtnH2NVsjNvEC0MbmRsy+84sZvcjpV15H3/aPxr1P+iX/5fwW3PaNr2Pjxo1ZmDkxmpub0dmZNC1YUvWXebNSYoqQTThuhHeKZTnqJwM+bDRXsiDAgMMJlUYDU2vz+K8SjmBo995xb5Mc5R0HD+Dexx/F008/jZ6eHlgsFjQ1KeusnzhxAtu3b5dPT/F2D98D8F95sx1iCpFtf5BPAXwDgNoZCbOpyAq+qeY8cgyWs2ZCU2FO+wKaigr0bvtbRmEn7Ro9nnH0obevD1u3bsUjjzyCp556Ch6PB+3t7aioyH/HAkmEjz32mHyq5YXkuqlN29QkW4G4ecMZ1tV2r9+NJToTGnhaq6frDCoXL0hbyEEQRXi6euDrS18RUcKgEnE64I+rZDIwMIDNmzfjgQcewIsvvsh+8X0+H6xWK0ymiQcuSlOshx56CC4Xq5Ki5kvcRyf8wkRZkktwlPSz/QGAudJJg6jBww2zUcFr81bMmoEZ11+Ttlbv8MHDOPrUMxm9WXfQj1s7D8jdoFIiTclaWlowf/589tfW1obGxkbU1NRExaPVjgg5HA7D6/WyP6fTiaGhIfYnia+vr4+NUsePH5df+gEA387w/w0xycg1erCDBzGyb9ylpkp8p7ol+mDjZ89D3ZpzUj5ZcsD3/cuj8A8MZvRmDw524Y+OiRe8zpGPqcrJ1CXXLrc9vOrnBdLJoYAXagistpT0S+46eZrteWhtYwsmgP/aq80m2Pfsz+jN5mgNeNszPKaWVYGoA/Aryc0qxpsTxWUifdLf44UNZkknH/tcrA7VXJ2R7XLb9xxg7Z9FffJiCoa6Gtj3HcgoZF6nUmG5vgJ/cQ1AYYns5CPG23w5998BPMx9kOQlHYlJzUQEIjkFz/Jl32nShR1eJ1rVOkzX6lnGobuzG5Ud81M67aJWC/u+gxm9mVVUo1bU4F2Pop2pfg3gdi6Ot6SPxMNLSBxTlIkIBLyow8t8KdQUln56PXYs05tRp9ayGliSUCpmTk/6ZH1tDRNIpolXs7QGaAUBO7xj6/DmibUAugCMv5NJTAkmKhDwubk03bpectqlYeVjr5NFw5pVItynOqExm2FsGluoUPJFTK3NGPhkV8bpuB06E6uussuXv/z2BDYCOEMiIZAngUicBPBXANdJ7oUzEsYbLjtWGSpYic/hA4ehrjAlFYnGPLJ34TyWec2ss/VmNIlafOR1Ipj//TtpPngZn0K+le8XJ8qLfAlEohPAcQDXSieeSBif+Fy41FzJQuMdh47C2NwAXVXlmCeaWpowtPcgQhlWPREAzNQaMF9nxJtuuxKOu8B9q0UAXuJTSWIKkk+BSOwG4ABwofQlG+Ipup8xWNg3zr5nPwxNjWNEIjnx5vY2DO3aw4pBZEqjWouz9SZ86nOzdGAFmMdHk118lEyHgW+ikkM/ici3QMATiyxyOMrRgA8D4QBW6SuASATDBw6hcuHY5V+10QC10Yjh/dnlJNWptbjcXIX+UAAHUzTXmSANPNRfmgtuSRKTNQfAf+ZLwpsAPM4TzIhJgBICAZ+7zwKwUDo54Peyts1LDWa2quU4fAyWObNYfd9Y9A11bGk40x12GZUgYLWxgrUwOBXwsZKkCrCGF5Jz85bYXwVwP4D/zh8z8FQA6e9FJQwgCo9SApHmO8/wL8sK6cIuvxt9wQCL/o14PCwT0dQ2La5DriAILCLYdeI0AlnkurPnQmBTrktNlZit1WMwFMSZUN5dhyoAVwC4krdpS1btZBkv1fpKvt+cKDxKCUTmFd5CmnX6lKZAjnCIrW5JvoZ9/0FYzpoFdUzarEqthm3BXNj3HkDIk7q9cyokkbVq9LjYXIk1Bgt7v9MBP5TMYF+qM7GC2DF9D8/h4Th/U/BtiQKgtECk+fpfAKwHwDKd9vs9MAoqLNCZEAkEMbhzD8tI1FWOlvwURBHmmdOZPxL2+XJ+8ypRg/OMVuajNKu1MKpUcIXDcCXpfJspema7kb3uFyw1+EZlE66oqGa91t92D8e+9gaeP0NJVmVMoWqBGvhm4hL5wl22RlzLU3ZVGg3ab7pupKhDDAGHEwd/9Rv233wiOfQ7vS4WZHky4GMrbfZwEJ5wmM0NRd6HxCqqWT8RSVzTNXrM1hrQptHFdfqN5XTAh690H4oVSYiv6L2R1w9AFIxCFstt5c7rIvnC7dY63MSb20ijRsvnLkHV4gVxT/L29uHIk7/Pu0iUYrvHge/3Ho/dwOzjo8mu4lpG5ILSU6xY7ACe5KEcbEv9Y58LvnAES/WmkSXgfQehr6+Fvna05I/kn1TMnMHy2LPZIykWLRodZmr0eMttlyUiOViXA/gDAEUjLYn8U0iBgO9Iv8i/MGx+tdvvxnA4iBX6CuZgD+8/CEGtZn6J3KRHEomtYx7LMwmWwUgyTaNjkcfve6INS60AbgTwLi8EQZQJhRYI+E777wEs53WmsM/vYXFVkkiMEFgBCE9PLyyz2tmqFnhPxMqO+awOlqez9EtTSf7KIp0J2zwO+EbqbJl5QOcABUKWD8UQiISLT7dWSN8l6UJvKIAPPA5cYLSyBClf3wCG9uyHlW0ojuy6S36KZfZMiEYDHIeyK5xdDFhzUa0Rm11D8jKzlo+eZh7cSZQ4xRII+BLwC7xpP1vdsodD+JvXieV6M9tXCHm9bD/EPKOVhczLmJobYWhqgPPocYQDpR1HWKfWYq7WgPc9wwiMOu7nSu4KD10p7Q8wxSmmQCT8AJ7jcU5rwPsgvuIaxGKWdKVB2OfH4O69LFQ+dq9EX10F69zZrBh2qYukWaPDBpMN77qH4RxdAl7K0wNe4dMuogQptkBkNvNVrvMkn1z6pd3qtqNa1LAVIYTCGNy1B4KgYnslUefdYGAicXd1s+zFUsasErHOaGVt7DpHmxBVc+fdzdN7lS1ZT2RNqQgEvJPVFt7yzCSJ5F3PME4GfSwSWC0ILKnKcfgYy0JUG0fCUySRVC3pYJuNrmMn2XJxqWJSibjQVIlqUY2PPE45j8XAl76v5MUhDhfbTmKUUhII+BKonJnIFHAs4GP5HmuNlpE6wMMOtidibGmKlhUaSd1tYUXrWHhKiU+5ztIasURvwnueYXmFC3xv6CY+3XyXfJNx0fL6bJfyANLP83SD8/mmdDdfMZ0Qpdp2toGvcn02ekHU4LvV07BI7osuCKhfdy7q162Oq5riGxzC8T++UBZLwcOhEB61d7F+KwnjnjSS/Jj/P1CsQkUZUctXPFfwSAxJGO3j/MD7APwcwL0Tyc8pVYFIaAA8xMvwMNQQ8LXKRhYcKBtuWzgPrVdtjCt1Gg4Gcerl1zD4SXlEd+zyunBf/0l0jw3PPwngvwB4eor5JyJftJGmnpcAWDyB1/oXXqE/J0pZIDJf5r8E0eyqDUYri6K1iCObiLraaky7/OIxwY4Dn+xG56tb2HJxqeMKh/Ccox+/sffELgfL7OU1gn87SUcUkS/1n8eDO9fw9OW0WFQiWtRatphjVonQSH5qOMQixk+PLoSEefJeTgXIy0Eg4EPr4wCikYxmQWSjycVmnt8uCKhaugiNG9ax9F2ZoMeLrr++MVJaqAywh4L4g6MPzzv6k4Xle/ne0W/5yl/px92kZg7P9z+P1yMbW82DI31Jp2t0WKgzsZYY7Vo92tS66A9kIpFIBHedOcyEwrkq18ZH5SIQ8CnXb3i4RpRrK2rwVVtDdOlXctzbb7oOuuqquCf3bvuQjSblgiccYqPJHx19qaq2DPOawY8B2FNo+3JAbr4kr9il7bZkVYkssW61wcIKEZpUma8n+SJh3HB6H4ZGC3lsyDXloJwEAl6z6k4A9/H0V8ZsrR7frGxmZYDYTTod6teuQs3KpWz5V8bT3YPTf94M18nyiRccCo1snErTr57UKcSH+RL5dp53s7/IPouRV4SRnOnVPA15Yew0ecwTBBUrfr7SMFJbYLpGnzLvJh3SD8s/9p2IbVfex2P+chpty00gMrP5kDlPviAp52ZrHW601EX/xxoa69G26QroqkdH70g4jJ53P8CZN99hx+VCKBJhy8JPD/dij3/cVORBAK8B2MrTfncqWI7IxKe+HbyY+TJ+Pm5feZtKjXMNFVhrtLLwolwEEUswEsEPeo9jmzdudfdWAP+a62uWq0DAf43+kZfciY6/87QG3FPVghna0QDH2tXLUbd2NSuWLeM+3YXOzW/BlUVFx1IgwjMXJbFsdQ9jn9+dyVAR4ntMR3gj1h7+Z+dTNRcXkJ+PPGr+/1QfU+/Lyv2EWt4SopVPk2ozbSdeqVKzdOV5OiMWSv/VGtkGcD446vfiR/2ncDAQ9+PxKIAvTeR1y1kgMht5TapooJZWEHC7tR6bKmqiv0qSTzLt6o0wNcc3Ae376BM27UIZjSaxDIeCrLrk+55h/N3ngreEIgkMgor5D0v5X6sm5QxrQkif/yf9p1g1zxje5r7HhLLsJoNAwH/F7udV5qPM1RrwJVsD27UW+Ee1dcxH/drVcVmL7s5udL/xTlmE0KfDGw7jcMCDI34v9vo9OBHw4VTQh2GFGw9ZVCIL7W/T6NCi1rH/Sj5Ek1o74WlTOiT/7OcDnXjTY0986Em+9zHmgWyZLAKRWcaFsj7uot6Er1c2sXJAMtb5c1B37kqWuSjjPH4S3W++W3bTrnREEGE79pKD3xn0YyAUZF8sezjI9l7ckTArVhGIRBBChM2vRDZnEtj0RxoF9CoVc6ItopqtLllVahZpXSOqUSNqYMxihSkfuMMhtgz+O0dfYtexTgB38741eWGyCQT8M/0T72se/XxqCLjeUoMbrXXQCaNTZuv8uWi57MK4vZOBnXtw+qVXSz6mayqyy+vCjwdOxW4EyrzMK1/mNe+/1IIV88UWAH/ina/OAvc8d/rceMNthwgBbRo923n19fZhYMdOBBwOaCutLErYUF+LykULmF/i7ekrq9WuycqpgA/3D5zGI/buxFHjOO/d/z0lVuom4wiSyJU8HicuDqVJ1OLrVY1YySvPMwQBtgVzUL9uTdRH8fUP4PQrr7P2DUThkaZTT9p78CdHf7IQnBcBfDEfvkYqpoJAwJcnf8ALTsctpSzRmXCrtX40ShgjQpF8lKpFC1iFR5UownHkGHre2Qbn0cnjn5Qykp/0knOA+Rr94TELUR/youF/TlJtP69MFYHI1AH4FoCv8cIJUc7S6nGNuYalxsauzatNRiYW2/w5rNi2p+sMurdsZYlbRP456vfiWUc/XncPJS7bSrwD4EeFEIbMVBOITC2Pjr0p8YF6UYM7bQ3YYLJGl4ZlNFYLC1+pXrYYnq4eNvXynukppN2TFkcoiMftZ/C8cyDZN3+Yh/0/VGi7pqpAZBYD+DaAG/jucZRZGj0rei2NKOaEZUyVVgPzjDZWtyscDLLCEe5TnYW2veyRhHDI78ELjn5sdg/FZlfKSP9Tf8p71RelKuVUF4jM2XxEWZ/4gEUl4uqKalxlrmbFrJNhnNbMooldJ8onCLLYHA948YuBTuzwJU1vkS7+TwD/XOxuXSSQeNZwR/4aHoMUxSCoWL+Ri002FjYhKLhDPFkJRCJ4x21n0ck7vM5kYfynuSh+XSp1jOlfOTlt/B9qU7IH2zV6loci+SlaIaM4vSmNNxxm4fq/c/SmCnvp5s73w6XWBJUEkp7ZPCf+ZrkBUCzS9EsaVdYZrSwoL1+RqZMByZvY63PjJWc/izp2J29a9DZP+vpTqaYS079oZgi8wsoNfOOxKvEGq0pkxbclwawwmAsen1QKRCIR1pRoq9uOLa4hdCVP8OrlRSieKIci3iSQ7DEDuIfvpSRr4snid1YZLLjAaMNqQwUrxj2ZkYSxzevAE0M9ifkYsRzngaSPl+pokQwSSO6oeQWOq3g1yMZkN0nO/UqDmaWRLuJFByaDgx+IhLHT68bbHjurgNmfvPW2l3c7/jcAr5djMbzy/5cqDUReTOIOXqUj5ZAh+y3rjVYs1pvKzskfCAXwsnMAzzkGWKHxFPTwTb2H+V5G2UICyT/NvBzmBQAuSuavyEiqmqU1sMQuaWSZqTWwxjuaEhphZL/iA4+DNQPa43enivFw8tHiD3y0KKnVqFwpnX+JyYnAC6JdwjchV49XEE0STYtax9q4sT+1jmXmNWu0qFKpFZ+eucIhlpEo+RKfeF3Y6XOly0jsA/ASL6DxWjn5FplCAiksWl4k7Qq+GtaWzZN1goBWtY6ltzaotaxhaLWoZsUQKlm2n5pl/42HMxxi0bKDoSC6Qn50Bvw4EvCysI8k5U+T8T7fJ3p2spdEJYEUlxm8kc7ZfKRZnJi3ki0CF5Lk2whsRBIgDTqBSAR+9hfO5Rvt4CWE/swz945PxMZyggRSerTy+lLLeY792enKcipIN586vcynT5PCp8gWEkh5UMVr2bbxEaYZQD3f3a/mj9vknioZEOajQj/fuOvkxZ2P8CqN+/goUTo1hIoECWRyoeYF3kxcLJqYxyTnwsODAO2T3XcgCKIAlNcuFUEUGBIIQaSBBEIQaSCBEEQaSCAEkQYSCEGkgQRCEGkggRBEGkggBJEGEghBpIEEQhBpIIEQRBpIIASRBhIIQaSBBEIQaSCBEEQaSCAEkYb/HwAA//+3f1w7C9U7yQAAAABJRU5ErkJggg==;" vertex="1" parent="1">
          <mxGeometry x="400" y="170" width="40" height="40" as="geometry" />
        </mxCell>
        <mxCell id="bq3jUTXx_F4QkcpRocF--10" value="Electron" style="text;html=1;align=center;verticalAlign=middle;resizable=0;points=[];autosize=1;strokeColor=none;fillColor=none;fontFamily=Jetbrains mono;fontSource=https%3A%2F%2Ffonts.googleapis.com%2Fcss%3Ffamily%3DJetbrains%2Bmono;fontStyle=0" vertex="1" parent="1">
          <mxGeometry y="210" width="80" height="30" as="geometry" />
        </mxCell>
        <mxCell id="bq3jUTXx_F4QkcpRocF--11" value="Bootstrap" style="text;html=1;align=center;verticalAlign=middle;resizable=0;points=[];autosize=1;strokeColor=none;fillColor=none;fontFamily=Jetbrains mono;fontSource=https%3A%2F%2Ffonts.googleapis.com%2Fcss%3Ffamily%3DJetbrains%2Bmono;fontStyle=0" vertex="1" parent="1">
          <mxGeometry x="-131.52" y="190" width="90" height="30" as="geometry" />
        </mxCell>
        <mxCell id="bq3jUTXx_F4QkcpRocF--12" value="Lombok" style="text;html=1;align=center;verticalAlign=middle;resizable=0;points=[];autosize=1;strokeColor=none;fillColor=none;fontFamily=Jetbrains mono;fontSource=https%3A%2F%2Ffonts.googleapis.com%2Fcss%3Ffamily%3DJetbrains%2Bmono;fontStyle=0" vertex="1" parent="1">
          <mxGeometry x="385" y="210" width="70" height="30" as="geometry" />
        </mxCell>
      </root>
    </mxGraphModel>
  </diagram>
</mxfile>
